SplineFontDB: 3.0
FontName: Shojumaru-Regular
FullName: Shojumaru
FamilyName: Shojumaru
Weight: Book
Copyright: Copyright (c) 2012 by Brian J. Bonislawsky DBA Astigmatic (AOETI) (astigma@astigmatic.com), with Reserved Font Name "Shojumaru"
Version: 1.001
ItalicAngle: 0
UnderlinePosition: -103
UnderlineWidth: 102
Ascent: 1638
Descent: 410
sfntRevision: 0x00010000
LayerCount: 2
Layer: 0 1 "Back"  1
Layer: 1 1 "Fore"  0
XUID: [1021 943 357575927 14505927]
FSType: 0
OS2Version: 3
OS2_WeightWidthSlopeOnly: 0
OS2_UseTypoMetrics: 1
CreationTime: 1326944880
ModificationTime: 1327090723
PfmFamily: 65
TTFWeight: 400
TTFWidth: 5
LineGap: 0
VLineGap: 0
Panose: 3 2 5 5 0 0 0 2 0 4
OS2TypoAscent: 382
OS2TypoAOffset: 1
OS2TypoDescent: -282
OS2TypoDOffset: 1
OS2TypoLinegap: 0
OS2WinAscent: 0
OS2WinAOffset: 1
OS2WinDescent: 0
OS2WinDOffset: 1
HheadAscent: 0
HheadAOffset: 1
HheadDescent: 0
HheadDOffset: 1
OS2SubXSize: 1434
OS2SubYSize: 1331
OS2SubXOff: 0
OS2SubYOff: 287
OS2SupXSize: 1434
OS2SupYSize: 1331
OS2SupXOff: 0
OS2SupYOff: 977
OS2StrikeYSize: 102
OS2StrikeYPos: 512
OS2Vendor: 'AOEF'
OS2CodePages: 00000093.00000000
OS2UnicodeRanges: a00000ef.4000004a.00000000.00000000
Lookup: 1 0 0 "'aalt' Access All Alternates in Latin lookup 0"  {"'aalt' Access All Alternates in Latin lookup 0 subtable"  } ['aalt' ('latn' <'dflt' > ) ]
Lookup: 1 0 0 "'sups' Superscript in Latin lookup 1"  {"'sups' Superscript in Latin lookup 1 subtable" ("superior" ) } ['sups' ('latn' <'dflt' > ) ]
Lookup: 4 0 1 "'liga' Standard Ligatures in Latin lookup 2"  {"'liga' Standard Ligatures in Latin lookup 2 subtable"  } ['liga' ('latn' <'dflt' > ) ]
Lookup: 6 0 0 "'ordn' Ordinals in Latin lookup 3"  {"'ordn' Ordinals in Latin lookup 3 subtable"  } ['ordn' ('latn' <'dflt' > ) ]

StartChar: comma
Encoding: 44 44 4
Width: 608
Flags: W
LayerCount: 2
Fore
SplineSet
580 213 m 1,0,1
 521 178 521 178 463.5 128.5 c 128,-1,2
 406 79 406 79 354 19 c 128,-1,3
 302 -41 302 -41 258.5 -107.5 c 128,-1,4
 215 -174 215 -174 184 -242 c 1,5,6
 144 -210 144 -210 84.5 -184 c 128,-1,7
 25 -158 25 -158 -53 -152 c 1,8,9
 21 -43 21 -43 76 77.5 c 128,-1,10
 131 198 131 198 160 334 c 1,11,12
 191 312 191 312 241 290 c 128,-1,13
 291 268 291 268 348.5 250.5 c 128,-1,14
 406 233 406 233 466.5 222 c 128,-1,15
 527 211 527 211 580 213 c 1,0,1
EndSplineSet
EndChar

StartChar: hyphen
Encoding: 45 45 5
Width: 981
Flags: W
LayerCount: 2
Fore
SplineSet
879 524 m 1,0,1
 829 528 829 528 766.5 533 c 128,-1,2
 704 538 704 538 634.5 542 c 128,-1,3
 565 546 565 546 492.5 548 c 128,-1,4
 420 550 420 550 351.5 546.5 c 128,-1,5
 283 543 283 543 220.5 533 c 128,-1,6
 158 523 158 523 109 504 c 1,7,8
 115 538 115 538 118 586.5 c 128,-1,9
 121 635 121 635 120.5 686 c 128,-1,10
 120 737 120 737 115.5 786 c 128,-1,11
 111 835 111 835 102 872 c 1,12,13
 291 806 291 806 482.5 812.5 c 128,-1,14
 674 819 674 819 879 885 c 1,15,16
 868 852 868 852 863 805 c 128,-1,17
 858 758 858 758 858.5 708 c 128,-1,18
 859 658 859 658 864.5 609 c 128,-1,19
 870 560 870 560 879 524 c 1,0,1
EndSplineSet
EndChar

StartChar: period
Encoding: 46 46 6
Width: 647
Flags: W
LayerCount: 2
Fore
SplineSet
590 154 m 0,0,1
 590 81 590 81 521 38.5 c 128,-1,2
 452 -4 452 -4 330 -4 c 0,3,4
 268 -4 268 -4 217.5 6.5 c 128,-1,5
 167 17 167 17 130 37 c 128,-1,6
 93 57 93 57 73 84.5 c 128,-1,7
 53 112 53 112 53 147 c 0,8,9
 53 183 53 183 74 212.5 c 128,-1,10
 95 242 95 242 132.5 262.5 c 128,-1,11
 170 283 170 283 221.5 294 c 128,-1,12
 273 305 273 305 334 305 c 0,13,14
 391 305 391 305 438 294.5 c 128,-1,15
 485 284 485 284 518.5 264 c 128,-1,16
 552 244 552 244 571 216 c 128,-1,17
 590 188 590 188 590 154 c 0,0,1
EndSplineSet
EndChar

StartChar: slash
Encoding: 47 47 7
Width: 1321
Flags: W
LayerCount: 2
Fore
SplineSet
1272 1405 m 1,0,1
 1150 1159 1150 1159 1009 930.5 c 128,-1,2
 868 702 868 702 711.5 503.5 c 128,-1,3
 555 305 555 305 384.5 142 c 128,-1,4
 214 -21 214 -21 33 -135 c 1,5,6
 194 91 194 91 317.5 304.5 c 128,-1,7
 441 518 441 518 531 723.5 c 128,-1,8
 621 929 621 929 679 1130 c 128,-1,9
 737 1331 737 1331 768 1532 c 1,10,11
 811 1496 811 1496 872.5 1470 c 128,-1,12
 934 1444 934 1444 1002.5 1428 c 128,-1,13
 1071 1412 1071 1412 1141 1406 c 128,-1,14
 1211 1400 1211 1400 1272 1405 c 1,0,1
EndSplineSet
EndChar

StartChar: quotedbl
Encoding: 34 34 8
Width: 938
Flags: W
LayerCount: 2
Fore
SplineSet
469 1434 m 1,0,1
 448 1362 448 1362 433.5 1300 c 128,-1,2
 419 1238 419 1238 410 1176.5 c 128,-1,3
 401 1115 401 1115 396.5 1048.5 c 128,-1,4
 392 982 392 982 391 901 c 1,5,6
 383 902 383 902 367 902.5 c 128,-1,7
 351 903 351 903 333 903.5 c 128,-1,8
 315 904 315 904 299 904.5 c 128,-1,9
 283 905 283 905 274 905 c 0,10,11
 263 905 263 905 244 904 c 128,-1,12
 225 903 225 903 204.5 901.5 c 128,-1,13
 184 900 184 900 165.5 897.5 c 128,-1,14
 147 895 147 895 137 893 c 1,15,16
 132 982 132 982 125.5 1047 c 128,-1,17
 119 1112 119 1112 108.5 1168 c 128,-1,18
 98 1224 98 1224 83 1278 c 128,-1,19
 68 1332 68 1332 47 1399 c 1,20,21
 59 1399 59 1399 70.5 1398 c 128,-1,22
 82 1397 82 1397 94 1397 c 0,23,24
 126 1397 126 1397 177 1400 c 128,-1,25
 228 1403 228 1403 283 1408 c 128,-1,26
 338 1413 338 1413 388 1419.5 c 128,-1,27
 438 1426 438 1426 469 1434 c 1,0,1
885 1407 m 1,28,29
 865 1339 865 1339 851 1275.5 c 128,-1,30
 837 1212 837 1212 828 1149 c 128,-1,31
 819 1086 819 1086 815 1023 c 128,-1,32
 811 960 811 960 811 895 c 1,33,34
 802 896 802 896 786 897 c 128,-1,35
 770 898 770 898 752.5 899 c 128,-1,36
 735 900 735 900 719 900.5 c 128,-1,37
 703 901 703 901 694 901 c 0,38,39
 683 901 683 901 665 900 c 128,-1,40
 647 899 647 899 627 897 c 128,-1,41
 607 895 607 895 588.5 892.5 c 128,-1,42
 570 890 570 890 559 887 c 1,43,44
 554 965 554 965 547.5 1026.5 c 128,-1,45
 541 1088 541 1088 531.5 1144 c 128,-1,46
 522 1200 522 1200 508.5 1255 c 128,-1,47
 495 1310 495 1310 475 1374 c 1,48,49
 486 1372 486 1372 497.5 1372 c 128,-1,50
 509 1372 509 1372 520 1372 c 0,51,52
 551 1372 551 1372 600.5 1374.5 c 128,-1,53
 650 1377 650 1377 703 1381.5 c 128,-1,54
 756 1386 756 1386 805.5 1392.5 c 128,-1,55
 855 1399 855 1399 885 1407 c 1,28,29
EndSplineSet
EndChar

StartChar: quotesingle
Encoding: 39 39 9
Width: 522
Flags: W
LayerCount: 2
Fore
SplineSet
469 1434 m 1,0,1
 448 1362 448 1362 433.5 1300 c 128,-1,2
 419 1238 419 1238 410 1176.5 c 128,-1,3
 401 1115 401 1115 396.5 1048.5 c 128,-1,4
 392 982 392 982 391 901 c 1,5,6
 383 902 383 902 367 902.5 c 128,-1,7
 351 903 351 903 333 903.5 c 128,-1,8
 315 904 315 904 299 904.5 c 128,-1,9
 283 905 283 905 274 905 c 0,10,11
 263 905 263 905 244 904 c 128,-1,12
 225 903 225 903 204.5 901.5 c 128,-1,13
 184 900 184 900 165.5 897.5 c 128,-1,14
 147 895 147 895 137 893 c 1,15,16
 132 982 132 982 125.5 1047 c 128,-1,17
 119 1112 119 1112 108.5 1168 c 128,-1,18
 98 1224 98 1224 83 1278 c 128,-1,19
 68 1332 68 1332 47 1399 c 1,20,21
 59 1399 59 1399 70.5 1398 c 128,-1,22
 82 1397 82 1397 94 1397 c 0,23,24
 126 1397 126 1397 177 1400 c 128,-1,25
 228 1403 228 1403 283 1408 c 128,-1,26
 338 1413 338 1413 388 1419.5 c 128,-1,27
 438 1426 438 1426 469 1434 c 1,0,1
EndSplineSet
EndChar

StartChar: colon
Encoding: 58 58 10
Width: 741
Flags: W
LayerCount: 2
Fore
SplineSet
639 154 m 0,0,1
 639 81 639 81 570 38.5 c 128,-1,2
 501 -4 501 -4 379 -4 c 0,3,4
 317 -4 317 -4 266.5 6.5 c 128,-1,5
 216 17 216 17 179 37 c 128,-1,6
 142 57 142 57 122 84.5 c 128,-1,7
 102 112 102 112 102 147 c 0,8,9
 102 183 102 183 123 212.5 c 128,-1,10
 144 242 144 242 181.5 262.5 c 128,-1,11
 219 283 219 283 270.5 294 c 128,-1,12
 322 305 322 305 383 305 c 0,13,14
 440 305 440 305 487 294.5 c 128,-1,15
 534 284 534 284 568 264 c 128,-1,16
 602 244 602 244 620.5 216 c 128,-1,17
 639 188 639 188 639 154 c 0,0,1
639 782 m 0,18,19
 639 746 639 746 621 717 c 128,-1,20
 603 688 603 688 569.5 667.5 c 128,-1,21
 536 647 536 647 488 636 c 128,-1,22
 440 625 440 625 379 625 c 0,23,24
 317 625 317 625 266.5 635.5 c 128,-1,25
 216 646 216 646 179 666 c 128,-1,26
 142 686 142 686 122 713.5 c 128,-1,27
 102 741 102 741 102 776 c 0,28,29
 102 812 102 812 123 841 c 128,-1,30
 144 870 144 870 181.5 891 c 128,-1,31
 219 912 219 912 270.5 923 c 128,-1,32
 322 934 322 934 383 934 c 0,33,34
 440 934 440 934 487 923 c 128,-1,35
 534 912 534 912 568 892.5 c 128,-1,36
 602 873 602 873 620.5 844.5 c 128,-1,37
 639 816 639 816 639 782 c 0,18,19
EndSplineSet
EndChar

StartChar: semicolon
Encoding: 59 59 11
Width: 729
Flags: W
LayerCount: 2
Fore
SplineSet
655 782 m 0,0,1
 655 746 655 746 637 717 c 128,-1,2
 619 688 619 688 585.5 667.5 c 128,-1,3
 552 647 552 647 504 636 c 128,-1,4
 456 625 456 625 395 625 c 0,5,6
 333 625 333 625 282.5 635.5 c 128,-1,7
 232 646 232 646 195.5 666 c 128,-1,8
 159 686 159 686 139 713.5 c 128,-1,9
 119 741 119 741 119 776 c 0,10,11
 119 812 119 812 140 841 c 128,-1,12
 161 870 161 870 198.5 891 c 128,-1,13
 236 912 236 912 287.5 923 c 128,-1,14
 339 934 339 934 399 934 c 0,15,16
 456 934 456 934 503 923 c 128,-1,17
 550 912 550 912 584 892.5 c 128,-1,18
 618 873 618 873 636.5 844.5 c 128,-1,19
 655 816 655 816 655 782 c 0,0,1
608 213 m 1,20,21
 550 178 550 178 492.5 128.5 c 128,-1,22
 435 79 435 79 383 19 c 128,-1,23
 331 -41 331 -41 287.5 -107.5 c 128,-1,24
 244 -174 244 -174 213 -242 c 1,25,26
 173 -210 173 -210 113.5 -184 c 128,-1,27
 54 -158 54 -158 -25 -152 c 1,28,29
 50 -43 50 -43 104.5 77.5 c 128,-1,30
 159 198 159 198 188 334 c 1,31,32
 219 312 219 312 269 290 c 128,-1,33
 319 268 319 268 376.5 250.5 c 128,-1,34
 434 233 434 233 494.5 222 c 128,-1,35
 555 211 555 211 608 213 c 1,20,21
EndSplineSet
EndChar

StartChar: less
Encoding: 60 60 12
Width: 817
Flags: W
LayerCount: 2
Fore
SplineSet
717 543 m 1,0,1
 699 521 699 521 682 486.5 c 128,-1,2
 665 452 665 452 650 410 c 128,-1,3
 635 368 635 368 623 320.5 c 128,-1,4
 611 273 611 273 601.5 225.5 c 128,-1,5
 592 178 592 178 586.5 132 c 128,-1,6
 581 86 581 86 580 47 c 1,7,8
 470 224 470 224 339.5 394 c 128,-1,9
 209 564 209 564 51 723 c 1,10,11
 126 804 126 804 194 878.5 c 128,-1,12
 262 953 262 953 326 1030 c 128,-1,13
 390 1107 390 1107 450 1189.5 c 128,-1,14
 510 1272 510 1272 567 1368 c 1,15,16
 573 1317 573 1317 588 1250 c 128,-1,17
 603 1183 603 1183 622.5 1114 c 128,-1,18
 642 1045 642 1045 665.5 981 c 128,-1,19
 689 917 689 917 713 872 c 1,20,21
 664 872 664 872 610 862.5 c 128,-1,22
 556 853 556 853 503.5 833.5 c 128,-1,23
 451 814 451 814 404 784.5 c 128,-1,24
 357 755 357 755 322 715 c 1,25,26
 352 676 352 676 398.5 642.5 c 128,-1,27
 445 609 445 609 498.5 585.5 c 128,-1,28
 552 562 552 562 609 550.5 c 128,-1,29
 666 539 666 539 717 543 c 1,0,1
EndSplineSet
EndChar

StartChar: equal
Encoding: 61 61 13
Width: 985
Flags: W
LayerCount: 2
Fore
SplineSet
881 748 m 1,0,1
 831 751 831 751 768.5 756.5 c 128,-1,2
 706 762 706 762 636.5 766 c 128,-1,3
 567 770 567 770 494.5 771.5 c 128,-1,4
 422 773 422 773 353.5 769.5 c 128,-1,5
 285 766 285 766 222.5 756 c 128,-1,6
 160 746 160 746 111 727 c 1,7,8
 117 761 117 761 120 809.5 c 128,-1,9
 123 858 123 858 122.5 909 c 128,-1,10
 122 960 122 960 117.5 1009.5 c 128,-1,11
 113 1059 113 1059 104 1096 c 1,12,13
 293 1030 293 1030 484.5 1036 c 128,-1,14
 676 1042 676 1042 881 1108 c 1,15,16
 870 1075 870 1075 865 1028 c 128,-1,17
 860 981 860 981 860.5 931 c 128,-1,18
 861 881 861 881 866.5 832.5 c 128,-1,19
 872 784 872 784 881 748 c 1,0,1
881 287 m 1,20,21
 831 290 831 290 768.5 295.5 c 128,-1,22
 706 301 706 301 636.5 305 c 128,-1,23
 567 309 567 309 494.5 310.5 c 128,-1,24
 422 312 422 312 353.5 308.5 c 128,-1,25
 285 305 285 305 222.5 295 c 128,-1,26
 160 285 160 285 111 266 c 1,27,28
 117 300 117 300 120 348.5 c 128,-1,29
 123 397 123 397 122.5 448.5 c 128,-1,30
 122 500 122 500 117.5 549 c 128,-1,31
 113 598 113 598 104 635 c 1,32,33
 293 569 293 569 484.5 575 c 128,-1,34
 676 581 676 581 881 647 c 1,35,36
 870 614 870 614 865 567 c 128,-1,37
 860 520 860 520 860.5 470 c 128,-1,38
 861 420 861 420 866.5 371.5 c 128,-1,39
 872 323 872 323 881 287 c 1,20,21
EndSplineSet
EndChar

StartChar: greater
Encoding: 62 62 14
Width: 817
Flags: W
LayerCount: 2
Fore
SplineSet
100 543 m 1,0,1
 152 539 152 539 208.5 550.5 c 128,-1,2
 265 562 265 562 319 585.5 c 128,-1,3
 373 609 373 609 419 642.5 c 128,-1,4
 465 676 465 676 496 715 c 1,5,6
 460 755 460 755 413 784.5 c 128,-1,7
 366 814 366 814 314 833.5 c 128,-1,8
 262 853 262 853 207.5 862.5 c 128,-1,9
 153 872 153 872 104 872 c 1,10,11
 128 917 128 917 151.5 981 c 128,-1,12
 175 1045 175 1045 194.5 1114 c 128,-1,13
 214 1183 214 1183 229 1250 c 128,-1,14
 244 1317 244 1317 250 1368 c 1,15,16
 307 1272 307 1272 367 1189.5 c 128,-1,17
 427 1107 427 1107 490.5 1030 c 128,-1,18
 554 953 554 953 622.5 878.5 c 128,-1,19
 691 804 691 804 766 723 c 1,20,21
 608 564 608 564 477.5 394 c 128,-1,22
 347 224 347 224 238 47 c 1,23,24
 237 86 237 86 231 132 c 128,-1,25
 225 178 225 178 216 225.5 c 128,-1,26
 207 273 207 273 194.5 320.5 c 128,-1,27
 182 368 182 368 167 410 c 128,-1,28
 152 452 152 452 135 486.5 c 128,-1,29
 118 521 118 521 100 543 c 1,0,1
EndSplineSet
EndChar

StartChar: bracketleft
Encoding: 91 91 15
Width: 940
Flags: W
LayerCount: 2
Fore
SplineSet
905 111 m 1,0,1
 893 77 893 77 885.5 29.5 c 128,-1,2
 878 -18 878 -18 874 -69 c 128,-1,3
 870 -120 870 -120 869 -168.5 c 128,-1,4
 868 -217 868 -217 870 -254 c 1,5,6
 788 -225 788 -225 686.5 -209 c 128,-1,7
 585 -193 585 -193 477.5 -187.5 c 128,-1,8
 370 -182 370 -182 265 -185 c 128,-1,9
 160 -188 160 -188 70 -197 c 1,10,11
 94 -79 94 -79 111 65 c 128,-1,12
 128 209 128 209 138 367.5 c 128,-1,13
 148 526 148 526 152 692.5 c 128,-1,14
 156 859 156 859 154 1022.5 c 128,-1,15
 152 1186 152 1186 145 1340.5 c 128,-1,16
 138 1495 138 1495 127 1628 c 1,17,18
 212 1628 212 1628 310 1630 c 128,-1,19
 408 1632 408 1632 509 1640.5 c 128,-1,20
 610 1649 610 1649 708 1665 c 128,-1,21
 806 1681 806 1681 891 1710 c 1,22,23
 880 1675 880 1675 875.5 1624 c 128,-1,24
 871 1573 871 1573 871.5 1518 c 128,-1,25
 872 1463 872 1463 878.5 1410.5 c 128,-1,26
 885 1358 885 1358 897 1321 c 1,27,28
 852 1337 852 1337 807.5 1347 c 128,-1,29
 763 1357 763 1357 727 1362 c 0,30,31
 685 1368 685 1368 645 1370 c 1,32,33
 626 1224 626 1224 613.5 1107 c 128,-1,34
 601 990 601 990 594 888.5 c 128,-1,35
 587 787 587 787 583.5 695 c 128,-1,36
 580 603 580 603 579 507.5 c 128,-1,37
 578 412 578 412 578.5 306 c 128,-1,38
 579 200 579 200 580 72 c 1,39,40
 657 62 657 62 739.5 73.5 c 128,-1,41
 822 85 822 85 905 111 c 1,0,1
EndSplineSet
EndChar

StartChar: backslash
Encoding: 92 92 16
Width: 1321
Flags: W
LayerCount: 2
Fore
SplineSet
49 1405 m 1,0,1
 110 1400 110 1400 180 1406 c 128,-1,2
 250 1412 250 1412 318.5 1428 c 128,-1,3
 387 1444 387 1444 448.5 1470 c 128,-1,4
 510 1496 510 1496 553 1532 c 1,5,6
 584 1331 584 1331 642 1130 c 128,-1,7
 700 929 700 929 790 723.5 c 128,-1,8
 880 518 880 518 1003.5 304.5 c 128,-1,9
 1127 91 1127 91 1288 -135 c 1,10,11
 1107 -21 1107 -21 936.5 142 c 128,-1,12
 766 305 766 305 609.5 503.5 c 128,-1,13
 453 702 453 702 312 930.5 c 128,-1,14
 171 1159 171 1159 49 1405 c 1,0,1
EndSplineSet
EndChar

StartChar: bracketright
Encoding: 93 93 17
Width: 940
Flags: W
LayerCount: 2
Fore
SplineSet
35 111 m 1,0,1
 118 85 118 85 200.5 73.5 c 128,-1,2
 283 62 283 62 360 72 c 1,3,4
 360 200 360 200 361 306 c 128,-1,5
 362 412 362 412 361 507.5 c 128,-1,6
 360 603 360 603 356.5 695 c 128,-1,7
 353 787 353 787 346 888.5 c 128,-1,8
 339 990 339 990 326.5 1107 c 128,-1,9
 314 1224 314 1224 295 1370 c 1,10,11
 255 1368 255 1368 213 1362 c 0,12,13
 177 1357 177 1357 132 1347 c 128,-1,14
 87 1337 87 1337 43 1321 c 1,15,16
 55 1358 55 1358 61.5 1410.5 c 128,-1,17
 68 1463 68 1463 68.5 1518 c 128,-1,18
 69 1573 69 1573 64.5 1624 c 128,-1,19
 60 1675 60 1675 49 1710 c 1,20,21
 134 1681 134 1681 232 1665 c 128,-1,22
 330 1649 330 1649 431 1640.5 c 128,-1,23
 532 1632 532 1632 630 1630 c 128,-1,24
 728 1628 728 1628 813 1628 c 1,25,26
 802 1494 802 1494 795 1340 c 128,-1,27
 788 1186 788 1186 786 1022.5 c 128,-1,28
 784 859 784 859 788 692.5 c 128,-1,29
 792 526 792 526 802 367.5 c 128,-1,30
 812 209 812 209 828.5 65 c 128,-1,31
 845 -79 845 -79 870 -197 c 1,32,33
 780 -188 780 -188 675 -185 c 128,-1,34
 570 -182 570 -182 462.5 -187.5 c 128,-1,35
 355 -193 355 -193 253.5 -209 c 128,-1,36
 152 -225 152 -225 70 -254 c 1,37,38
 71 -217 71 -217 70.5 -168.5 c 128,-1,39
 70 -120 70 -120 66 -69 c 128,-1,40
 62 -18 62 -18 54.5 29.5 c 128,-1,41
 47 77 47 77 35 111 c 1,0,1
EndSplineSet
EndChar

StartChar: asciicircum
Encoding: 94 94 18
Width: 1024
Flags: W
LayerCount: 2
Fore
SplineSet
1024 635 m 1,0,1
 1012 637 1012 637 995.5 638 c 128,-1,2
 979 639 979 639 961 639 c 0,3,4
 924 639 924 639 880 635.5 c 128,-1,5
 836 632 836 632 793 625.5 c 128,-1,6
 750 619 750 619 712.5 611 c 128,-1,7
 675 603 675 603 651 594 c 1,8,9
 635 655 635 655 619.5 704 c 128,-1,10
 604 753 604 753 586 799.5 c 128,-1,11
 568 846 568 846 547.5 896 c 128,-1,12
 527 946 527 946 500 1010 c 1,13,14
 472 956 472 956 452 902.5 c 128,-1,15
 432 849 432 849 418 794 c 128,-1,16
 404 739 404 739 394 681 c 128,-1,17
 384 623 384 623 377 559 c 1,18,19
 359 568 359 568 331.5 575 c 128,-1,20
 304 582 304 582 271.5 586 c 128,-1,21
 239 590 239 590 204 592 c 128,-1,22
 169 594 169 594 135 594 c 0,23,24
 95 594 95 594 60 592 c 128,-1,25
 25 590 25 590 0 584 c 1,26,27
 48 657 48 657 90 731.5 c 128,-1,28
 132 806 132 806 165.5 894.5 c 128,-1,29
 199 983 199 983 221.5 1092.5 c 128,-1,30
 244 1202 244 1202 252 1346 c 1,31,32
 283 1339 283 1339 332 1336 c 128,-1,33
 381 1333 381 1333 438 1333 c 0,34,35
 481 1333 481 1333 525.5 1334.5 c 128,-1,36
 570 1336 570 1336 611.5 1339.5 c 128,-1,37
 653 1343 653 1343 690 1348 c 128,-1,38
 727 1353 727 1353 756 1360 c 1,39,40
 756 1255 756 1255 775 1162.5 c 128,-1,41
 794 1070 794 1070 828.5 982.5 c 128,-1,42
 863 895 863 895 912.5 810 c 128,-1,43
 962 725 962 725 1024 635 c 1,0,1
EndSplineSet
EndChar

StartChar: underscore
Encoding: 95 95 19
Width: 1282
Flags: W
LayerCount: 2
Fore
SplineSet
1118 -416 m 1,0,1
 1068 -412 1068 -412 992.5 -407 c 128,-1,2
 917 -402 917 -402 827.5 -398 c 128,-1,3
 738 -394 738 -394 642.5 -392 c 128,-1,4
 547 -390 547 -390 458 -393.5 c 128,-1,5
 369 -397 369 -397 293 -407 c 128,-1,6
 217 -417 217 -417 168 -436 c 1,7,8
 174 -402 174 -402 177 -353.5 c 128,-1,9
 180 -305 180 -305 180 -254 c 128,-1,10
 180 -203 180 -203 175.5 -154 c 128,-1,11
 171 -105 171 -105 162 -68 c 1,12,13
 225 -90 225 -90 301.5 -103.5 c 128,-1,14
 378 -117 378 -117 461.5 -123 c 128,-1,15
 545 -129 545 -129 632.5 -127.5 c 128,-1,16
 720 -126 720 -126 805 -117 c 128,-1,17
 890 -108 890 -108 970 -92.5 c 128,-1,18
 1050 -77 1050 -77 1118 -55 c 1,19,20
 1107 -88 1107 -88 1102.5 -135 c 128,-1,21
 1098 -182 1098 -182 1098.5 -232 c 128,-1,22
 1099 -282 1099 -282 1104 -331 c 128,-1,23
 1109 -380 1109 -380 1118 -416 c 1,0,1
EndSplineSet
EndChar

StartChar: grave
Encoding: 96 96 20
Width: 465
Flags: W
LayerCount: 2
Fore
SplineSet
332 1034 m 1,0,1
 261 1104 261 1104 182 1156 c 128,-1,2
 103 1208 103 1208 0 1255 c 1,3,4
 27 1270 27 1270 59 1292 c 128,-1,5
 91 1314 91 1314 121.5 1340 c 128,-1,6
 152 1366 152 1366 178 1395.5 c 128,-1,7
 204 1425 204 1425 219 1454 c 1,8,9
 267 1376 267 1376 330 1308.5 c 128,-1,10
 393 1241 393 1241 465 1176 c 1,11,-1
 332 1034 l 1,0,1
EndSplineSet
EndChar

StartChar: braceleft
Encoding: 123 123 21
Width: 963
Flags: W
LayerCount: 2
Fore
SplineSet
991 1661 m 1,0,1
 899 1632 899 1632 829 1583 c 128,-1,2
 759 1534 759 1534 712 1474.5 c 128,-1,3
 665 1415 665 1415 641.5 1349.5 c 128,-1,4
 618 1284 618 1284 618 1223 c 0,5,6
 618 1187 618 1187 633 1144.5 c 128,-1,7
 648 1102 648 1102 666.5 1058.5 c 128,-1,8
 685 1015 685 1015 700 973 c 128,-1,9
 715 931 715 931 715 895 c 0,10,11
 715 872 715 872 708.5 844.5 c 128,-1,12
 702 817 702 817 683.5 791.5 c 128,-1,13
 665 766 665 766 630.5 745.5 c 128,-1,14
 596 725 596 725 539 717 c 1,15,16
 567 710 567 710 597 695 c 128,-1,17
 627 680 627 680 651.5 657.5 c 128,-1,18
 676 635 676 635 691.5 605.5 c 128,-1,19
 707 576 707 576 707 539 c 0,20,21
 707 506 707 506 697.5 472 c 128,-1,22
 688 438 688 438 676 403 c 128,-1,23
 664 368 664 368 654.5 331.5 c 128,-1,24
 645 295 645 295 645 258 c 0,25,26
 645 192 645 192 654.5 141.5 c 128,-1,27
 664 91 664 91 683.5 50 c 128,-1,28
 703 9 703 9 731.5 -24.5 c 128,-1,29
 760 -58 760 -58 798.5 -90 c 128,-1,30
 837 -122 837 -122 885 -155.5 c 128,-1,31
 933 -189 933 -189 991 -229 c 1,32,33
 913 -250 913 -250 821 -254.5 c 128,-1,34
 729 -259 729 -259 636.5 -246 c 128,-1,35
 544 -233 544 -233 458 -202.5 c 128,-1,36
 372 -172 372 -172 306 -123.5 c 128,-1,37
 240 -75 240 -75 200 -8 c 128,-1,38
 160 59 160 59 160 145 c 0,39,40
 160 196 160 196 172 242 c 128,-1,41
 184 288 184 288 198 328.5 c 128,-1,42
 212 369 212 369 224 404.5 c 128,-1,43
 236 440 236 440 236 469 c 0,44,45
 236 511 236 511 223.5 541.5 c 128,-1,46
 211 572 211 572 190 593.5 c 128,-1,47
 169 615 169 615 142 630 c 128,-1,48
 115 645 115 645 87 656.5 c 128,-1,49
 59 668 59 668 31.5 677.5 c 128,-1,50
 4 687 4 687 -18 698 c 1,51,52
 33 707 33 707 78 727 c 128,-1,53
 123 747 123 747 156 776 c 128,-1,54
 189 805 189 805 208 842 c 128,-1,55
 227 879 227 879 227 922 c 0,56,57
 227 953 227 953 217 988 c 128,-1,58
 207 1023 207 1023 195.5 1062 c 128,-1,59
 184 1101 184 1101 174 1143.5 c 128,-1,60
 164 1186 164 1186 164 1231 c 0,61,62
 164 1288 164 1288 185.5 1347.5 c 128,-1,63
 207 1407 207 1407 251.5 1461 c 128,-1,64
 296 1515 296 1515 364 1560 c 128,-1,65
 432 1605 432 1605 524 1634 c 128,-1,66
 616 1663 616 1663 732.5 1671.5 c 128,-1,67
 849 1680 849 1680 991 1661 c 1,0,1
EndSplineSet
EndChar

StartChar: bar
Encoding: 124 124 22
Width: 649
Flags: W
LayerCount: 2
Fore
SplineSet
561 -131 m 1,0,1
 516 -123 516 -123 456.5 -124.5 c 128,-1,2
 397 -126 397 -126 333 -138 c 128,-1,3
 269 -150 269 -150 207 -172 c 128,-1,4
 145 -194 145 -194 96 -227 c 1,5,6
 113 -98 113 -98 126 58 c 128,-1,7
 139 214 139 214 146 382 c 128,-1,8
 153 550 153 550 154 725 c 128,-1,9
 155 900 155 900 148 1067.5 c 128,-1,10
 141 1235 141 1235 126 1389.5 c 128,-1,11
 111 1544 111 1544 86 1671 c 1,12,13
 131 1661 131 1661 195.5 1661.5 c 128,-1,14
 260 1662 260 1662 329.5 1675 c 128,-1,15
 399 1688 399 1688 466 1715 c 128,-1,16
 533 1742 533 1742 584 1784 c 1,17,18
 554 1644 554 1644 533 1485 c 128,-1,19
 512 1326 512 1326 500 1157.5 c 128,-1,20
 488 989 488 989 485.5 816.5 c 128,-1,21
 483 644 483 644 490.5 478 c 128,-1,22
 498 312 498 312 515.5 157 c 128,-1,23
 533 2 533 2 561 -131 c 1,0,1
EndSplineSet
EndChar

StartChar: braceright
Encoding: 125 125 23
Width: 963
Flags: W
LayerCount: 2
Fore
SplineSet
-29 1661 m 1,0,1
 113 1680 113 1680 230 1671.5 c 128,-1,2
 347 1663 347 1663 439 1634 c 128,-1,3
 531 1605 531 1605 598.5 1560 c 128,-1,4
 666 1515 666 1515 711 1461 c 128,-1,5
 756 1407 756 1407 777.5 1347.5 c 128,-1,6
 799 1288 799 1288 799 1231 c 0,7,8
 799 1186 799 1186 789 1143.5 c 128,-1,9
 779 1101 779 1101 767 1062 c 128,-1,10
 755 1023 755 1023 745 988 c 128,-1,11
 735 953 735 953 735 922 c 0,12,13
 735 879 735 879 754 842 c 128,-1,14
 773 805 773 805 806.5 776 c 128,-1,15
 840 747 840 747 885 727 c 128,-1,16
 930 707 930 707 981 698 c 1,17,18
 959 687 959 687 931.5 677.5 c 128,-1,19
 904 668 904 668 876 656.5 c 128,-1,20
 848 645 848 645 821 630 c 128,-1,21
 794 615 794 615 773 593.5 c 128,-1,22
 752 572 752 572 739.5 541.5 c 128,-1,23
 727 511 727 511 727 469 c 0,24,25
 727 440 727 440 739 404.5 c 128,-1,26
 751 369 751 369 765 328.5 c 128,-1,27
 779 288 779 288 791 242 c 128,-1,28
 803 196 803 196 803 145 c 0,29,30
 803 59 803 59 763 -8 c 128,-1,31
 723 -75 723 -75 657 -123.5 c 128,-1,32
 591 -172 591 -172 505 -202.5 c 128,-1,33
 419 -233 419 -233 326.5 -246 c 128,-1,34
 234 -259 234 -259 141.5 -254.5 c 128,-1,35
 49 -250 49 -250 -29 -229 c 1,36,37
 29 -189 29 -189 77 -155.5 c 128,-1,38
 125 -122 125 -122 163.5 -90 c 128,-1,39
 202 -58 202 -58 231 -24.5 c 128,-1,40
 260 9 260 9 279 50 c 128,-1,41
 298 91 298 91 307.5 141.5 c 128,-1,42
 317 192 317 192 317 258 c 0,43,44
 317 295 317 295 307.5 331.5 c 128,-1,45
 298 368 298 368 286.5 403 c 128,-1,46
 275 438 275 438 265.5 472 c 128,-1,47
 256 506 256 506 256 539 c 0,48,49
 256 576 256 576 271.5 605.5 c 128,-1,50
 287 635 287 635 311.5 657.5 c 128,-1,51
 336 680 336 680 365.5 695 c 128,-1,52
 395 710 395 710 424 717 c 1,53,54
 367 725 367 725 332.5 745.5 c 128,-1,55
 298 766 298 766 279 791.5 c 128,-1,56
 260 817 260 817 254 844.5 c 128,-1,57
 248 872 248 872 248 895 c 0,58,59
 248 931 248 931 263 973 c 128,-1,60
 278 1015 278 1015 296 1058.5 c 128,-1,61
 314 1102 314 1102 329 1144.5 c 128,-1,62
 344 1187 344 1187 344 1223 c 0,63,64
 344 1284 344 1284 320.5 1349.5 c 128,-1,65
 297 1415 297 1415 250 1474.5 c 128,-1,66
 203 1534 203 1534 133 1583 c 128,-1,67
 63 1632 63 1632 -29 1661 c 1,0,1
EndSplineSet
EndChar

StartChar: asciitilde
Encoding: 126 126 24
Width: 1067
Flags: W
LayerCount: 2
Fore
SplineSet
930 1001 m 1,0,1
 947 978 947 978 960 943 c 0,2,3
 971 913 971 913 981 866.5 c 128,-1,4
 991 820 991 820 991 754 c 0,5,6
 991 695 991 695 972.5 649.5 c 128,-1,7
 954 604 954 604 923 573 c 128,-1,8
 892 542 892 542 851.5 526 c 128,-1,9
 811 510 811 510 766 510 c 0,10,11
 713 510 713 510 674 527 c 128,-1,12
 635 544 635 544 605.5 569.5 c 128,-1,13
 576 595 576 595 553 624.5 c 128,-1,14
 530 654 530 654 509.5 679.5 c 128,-1,15
 489 705 489 705 468 722 c 128,-1,16
 447 739 447 739 422 739 c 0,17,18
 396 739 396 739 386.5 720.5 c 128,-1,19
 377 702 377 702 377 674 c 0,20,21
 377 643 377 643 385.5 607 c 128,-1,22
 394 571 394 571 403 545 c 1,23,24
 379 553 379 553 350.5 556 c 128,-1,25
 322 559 322 559 291 559 c 0,26,27
 251 559 251 559 209.5 553.5 c 128,-1,28
 168 548 168 548 131 537 c 1,29,30
 115 564 115 564 104 599 c 0,31,32
 94 629 94 629 86 672 c 128,-1,33
 78 715 78 715 78 772 c 0,34,35
 78 836 78 836 102.5 878.5 c 128,-1,36
 127 921 127 921 164 946 c 128,-1,37
 201 971 201 971 244 981 c 128,-1,38
 287 991 287 991 324 991 c 0,39,40
 380 991 380 991 419.5 973 c 128,-1,41
 459 955 459 955 488 927.5 c 128,-1,42
 517 900 517 900 537.5 868 c 128,-1,43
 558 836 558 836 575.5 808.5 c 128,-1,44
 593 781 593 781 609.5 763 c 128,-1,45
 626 745 626 745 647 745 c 0,46,47
 681 745 681 745 695 765.5 c 128,-1,48
 709 786 709 786 709 815 c 0,49,50
 709 836 709 836 702.5 860.5 c 128,-1,51
 696 885 696 885 685.5 908 c 128,-1,52
 675 931 675 931 662 951 c 128,-1,53
 649 971 649 971 635 983 c 1,54,55
 678 977 678 977 733 977 c 0,56,57
 778 977 778 977 827.5 982 c 128,-1,58
 877 987 877 987 930 1001 c 1,0,1
EndSplineSet
EndChar

StartChar: acute
Encoding: 180 180 25
Width: 465
Flags: W
LayerCount: 2
Fore
SplineSet
465 1255 m 1,0,1
 418 1234 418 1234 375 1211 c 128,-1,2
 332 1188 332 1188 291.5 1161 c 128,-1,3
 251 1134 251 1134 211.5 1103 c 128,-1,4
 172 1072 172 1072 133 1034 c 1,5,-1
 0 1176 l 1,6,7
 69 1234 69 1234 131 1300.5 c 128,-1,8
 193 1367 193 1367 246 1454 c 1,9,10
 259 1428 259 1428 284 1399.5 c 128,-1,11
 309 1371 309 1371 339.5 1344.5 c 128,-1,12
 370 1318 370 1318 403 1294.5 c 128,-1,13
 436 1271 436 1271 465 1255 c 1,0,1
EndSplineSet
EndChar

StartChar: dieresis
Encoding: 168 168 26
Width: 641
Flags: W
LayerCount: 2
Fore
SplineSet
276 1241 m 0,0,1
 276 1213 276 1213 265.5 1189 c 128,-1,2
 255 1165 255 1165 236 1147 c 128,-1,3
 217 1129 217 1129 192 1118.5 c 128,-1,4
 167 1108 167 1108 139 1108 c 0,5,6
 110 1108 110 1108 84.5 1118.5 c 128,-1,7
 59 1129 59 1129 40 1147 c 128,-1,8
 21 1165 21 1165 10.5 1189 c 128,-1,9
 0 1213 0 1213 0 1241 c 0,10,11
 0 1268 0 1268 10.5 1292 c 128,-1,12
 21 1316 21 1316 40 1333.5 c 128,-1,13
 59 1351 59 1351 84.5 1361.5 c 128,-1,14
 110 1372 110 1372 139 1372 c 0,15,16
 167 1372 167 1372 192 1361.5 c 128,-1,17
 217 1351 217 1351 236 1333.5 c 128,-1,18
 255 1316 255 1316 265.5 1292 c 128,-1,19
 276 1268 276 1268 276 1241 c 0,0,1
641 1241 m 0,20,21
 641 1213 641 1213 630.5 1189 c 128,-1,22
 620 1165 620 1165 601 1147 c 128,-1,23
 582 1129 582 1129 557 1118.5 c 128,-1,24
 532 1108 532 1108 504 1108 c 0,25,26
 475 1108 475 1108 449.5 1118.5 c 128,-1,27
 424 1129 424 1129 405 1147 c 128,-1,28
 386 1165 386 1165 375.5 1189 c 128,-1,29
 365 1213 365 1213 365 1241 c 0,30,31
 365 1268 365 1268 375.5 1292 c 128,-1,32
 386 1316 386 1316 405 1333.5 c 128,-1,33
 424 1351 424 1351 449.5 1361.5 c 128,-1,34
 475 1372 475 1372 504 1372 c 0,35,36
 532 1372 532 1372 557 1361.5 c 128,-1,37
 582 1351 582 1351 601 1333.5 c 128,-1,38
 620 1316 620 1316 630.5 1292 c 128,-1,39
 641 1268 641 1268 641 1241 c 0,20,21
EndSplineSet
EndChar

StartChar: notequal
Encoding: 8800 8800 27
Width: 940
Flags: W
LayerCount: 2
Fore
SplineSet
776 1083 m 1,0,1
 818 1094 818 1094 856 1108 c 1,2,3
 845 1075 845 1075 840 1028 c 128,-1,4
 835 981 835 981 835.5 931 c 128,-1,5
 836 881 836 881 841.5 832.5 c 128,-1,6
 847 784 847 784 856 748 c 1,7,-1
 643 764 l 1,8,9
 621 716 621 716 600.5 670.5 c 128,-1,10
 580 625 580 625 557 582 c 1,11,12
 631 590 631 590 705 606 c 128,-1,13
 779 622 779 622 856 647 c 1,14,15
 845 614 845 614 840 567 c 128,-1,16
 835 520 835 520 835.5 470 c 128,-1,17
 836 420 836 420 841.5 371.5 c 128,-1,18
 847 323 847 323 856 287 c 1,19,20
 813 290 813 290 760.5 294 c 128,-1,21
 708 298 708 298 650 301.5 c 128,-1,22
 592 305 592 305 530.5 307.5 c 128,-1,23
 469 310 469 310 408 309 c 1,24,25
 335 189 335 189 256.5 79.5 c 128,-1,26
 178 -30 178 -30 90 -135 c 1,27,28
 133 -29 133 -29 175.5 81 c 128,-1,29
 218 191 218 191 260 303 c 1,30,31
 211 298 211 298 167 289 c 128,-1,32
 123 280 123 280 86 266 c 1,33,34
 92 300 92 300 95 348.5 c 128,-1,35
 98 397 98 397 98 448.5 c 128,-1,36
 98 500 98 500 93.5 549 c 128,-1,37
 89 598 89 598 80 635 c 1,38,39
 149 610 149 610 217 596.5 c 128,-1,40
 285 583 285 583 356 578 c 1,41,-1
 418 770 l 1,42,43
 324 770 324 770 237.5 761 c 128,-1,44
 151 752 151 752 86 727 c 1,45,46
 92 761 92 761 95 809.5 c 128,-1,47
 98 858 98 858 98 909 c 128,-1,48
 98 960 98 960 93.5 1009.5 c 128,-1,49
 89 1059 89 1059 80 1096 c 1,50,51
 182 1061 182 1061 283 1046 c 128,-1,52
 384 1031 384 1031 489 1036 c 1,53,54
 511 1129 511 1129 530 1220.5 c 128,-1,55
 549 1312 549 1312 563 1405 c 1,56,57
 585 1386 585 1386 621.5 1363.5 c 128,-1,58
 658 1341 658 1341 699 1323 c 128,-1,59
 740 1305 740 1305 781 1295.5 c 128,-1,60
 822 1286 822 1286 852 1292 c 1,61,-1
 776 1083 l 1,0,1
EndSplineSet
EndChar

StartChar: plusminus
Encoding: 177 177 28
Width: 948
Flags: W
LayerCount: 2
Fore
SplineSet
643 1081 m 1,0,1
 628 1033 628 1033 618.5 967 c 128,-1,2
 609 901 609 901 606 823 c 1,3,4
 669 833 669 833 732.5 848 c 128,-1,5
 796 863 796 863 862 885 c 1,6,7
 851 852 851 852 846.5 805 c 128,-1,8
 842 758 842 758 842.5 708 c 128,-1,9
 843 658 843 658 848 609 c 128,-1,10
 853 560 853 560 862 524 c 1,11,12
 813 535 813 535 749 542.5 c 128,-1,13
 685 550 685 550 612 555 c 1,14,15
 620 484 620 484 632.5 421.5 c 128,-1,16
 645 359 645 359 664 311 c 1,17,18
 629 317 629 317 581 320.5 c 128,-1,19
 533 324 533 324 481.5 323.5 c 128,-1,20
 430 323 430 323 381 318.5 c 128,-1,21
 332 314 332 314 295 305 c 1,22,23
 338 426 338 426 350 553 c 1,24,25
 276 547 276 547 209.5 535.5 c 128,-1,26
 143 524 143 524 92 504 c 1,27,28
 98 538 98 538 101.5 586.5 c 128,-1,29
 105 635 105 635 104.5 686 c 128,-1,30
 104 737 104 737 99.5 786 c 128,-1,31
 95 835 95 835 86 872 c 1,32,33
 215 827 215 827 344 815 c 1,34,35
 336 881 336 881 320 947 c 128,-1,36
 304 1013 304 1013 283 1081 c 1,37,38
 316 1070 316 1070 363 1065.5 c 128,-1,39
 410 1061 410 1061 460 1061.5 c 128,-1,40
 510 1062 510 1062 558.5 1067 c 128,-1,41
 607 1072 607 1072 643 1081 c 1,0,1
862 -111 m 1,42,43
 815 -101 815 -101 754 -93 c 128,-1,44
 693 -85 693 -85 623.5 -81 c 128,-1,45
 554 -77 554 -77 481 -77 c 128,-1,46
 408 -77 408 -77 338 -83 c 128,-1,47
 268 -89 268 -89 204.5 -100.5 c 128,-1,48
 141 -112 141 -112 92 -131 c 1,49,50
 98 -97 98 -97 101.5 -48.5 c 128,-1,51
 105 0 105 0 104.5 51 c 128,-1,52
 104 102 104 102 99.5 151.5 c 128,-1,53
 95 201 95 201 86 238 c 1,54,55
 276 172 276 172 466.5 178 c 128,-1,56
 657 184 657 184 862 250 c 1,57,58
 851 217 851 217 846.5 170 c 128,-1,59
 842 123 842 123 842.5 73 c 128,-1,60
 843 23 843 23 848 -26 c 128,-1,61
 853 -75 853 -75 862 -111 c 1,42,43
EndSplineSet
EndChar

StartChar: dagger
Encoding: 8224 8224 29
Width: 1092
Flags: W
LayerCount: 2
Fore
SplineSet
1036 1055 m 1,0,1
 984 1058 984 1058 902 1063 c 128,-1,2
 820 1068 820 1068 721 1073 c 1,3,4
 712 913 712 913 711.5 751.5 c 128,-1,5
 711 590 711 590 719 435.5 c 128,-1,6
 727 281 727 281 744 137 c 128,-1,7
 761 -7 761 -7 788 -131 c 1,8,9
 744 -123 744 -123 684.5 -124.5 c 128,-1,10
 625 -126 625 -126 561 -138 c 128,-1,11
 497 -150 497 -150 435 -172 c 128,-1,12
 373 -194 373 -194 324 -227 c 1,13,14
 341 -97 341 -97 353.5 60 c 128,-1,15
 366 217 366 217 373 386.5 c 128,-1,16
 380 556 380 556 381 732 c 128,-1,17
 382 908 382 908 375 1077 c 1,18,19
 278 1074 278 1074 195 1064 c 128,-1,20
 112 1054 112 1054 61 1034 c 1,21,22
 67 1068 67 1068 70.5 1116.5 c 128,-1,23
 74 1165 74 1165 73.5 1216.5 c 128,-1,24
 73 1268 73 1268 68.5 1317 c 128,-1,25
 64 1366 64 1366 55 1403 c 1,26,27
 117 1381 117 1381 194 1367.5 c 128,-1,28
 271 1354 271 1354 356 1348 c 1,29,30
 348 1436 348 1436 337.5 1517.5 c 128,-1,31
 327 1599 327 1599 313 1671 c 1,32,33
 358 1661 358 1661 422.5 1661.5 c 128,-1,34
 487 1662 487 1662 556.5 1675 c 128,-1,35
 626 1688 626 1688 693 1715 c 128,-1,36
 760 1742 760 1742 811 1784 c 1,37,38
 789 1685 789 1685 772.5 1577.5 c 128,-1,39
 756 1470 756 1470 743 1356 c 1,40,41
 825 1365 825 1365 899 1380 c 128,-1,42
 973 1395 973 1395 1036 1415 c 1,43,44
 1025 1382 1025 1382 1020.5 1335 c 128,-1,45
 1016 1288 1016 1288 1016.5 1238 c 128,-1,46
 1017 1188 1017 1188 1022 1139.5 c 128,-1,47
 1027 1091 1027 1091 1036 1055 c 1,0,1
EndSplineSet
EndChar

StartChar: logicalnot
Encoding: 172 172 30
Width: 1079
Flags: W
LayerCount: 2
Fore
SplineSet
985 262 m 1,0,1
 947 274 947 274 896 278 c 128,-1,2
 845 282 845 282 790 279.5 c 128,-1,3
 735 277 735 277 683 268.5 c 128,-1,4
 631 260 631 260 592 248 c 1,5,6
 617 303 617 303 630.5 344.5 c 128,-1,7
 644 386 644 386 651 425.5 c 128,-1,8
 658 465 658 465 659.5 510 c 128,-1,9
 661 555 661 555 662 618 c 1,10,11
 587 633 587 633 508.5 634 c 128,-1,12
 430 635 430 635 354 625.5 c 128,-1,13
 278 616 278 616 208.5 597 c 128,-1,14
 139 578 139 578 82 553 c 1,15,16
 94 587 94 587 98 635.5 c 128,-1,17
 102 684 102 684 100 735.5 c 128,-1,18
 98 787 98 787 90 836.5 c 128,-1,19
 82 886 82 886 72 924 c 1,20,21
 126 910 126 910 197 902 c 128,-1,22
 268 894 268 894 347.5 890.5 c 128,-1,23
 427 887 427 887 511 888 c 128,-1,24
 595 889 595 889 675.5 894 c 128,-1,25
 756 899 756 899 829.5 907.5 c 128,-1,26
 903 916 903 916 961 928 c 1,27,28
 949 886 949 886 942.5 832.5 c 128,-1,29
 936 779 936 779 933.5 719 c 128,-1,30
 931 659 931 659 933 596.5 c 128,-1,31
 935 534 935 534 941.5 474 c 128,-1,32
 948 414 948 414 959 359.5 c 128,-1,33
 970 305 970 305 985 262 c 1,0,1
EndSplineSet
EndChar

StartChar: guillemotleft
Encoding: 171 171 31
Width: 1378
Flags: W
LayerCount: 2
Fore
SplineSet
1286 874 m 1,0,1
 1274 876 1274 876 1262 877.5 c 128,-1,2
 1250 879 1250 879 1239 879 c 0,3,4
 1191 879 1191 879 1146.5 864 c 128,-1,5
 1102 849 1102 849 1061.5 823 c 128,-1,6
 1021 797 1021 797 985 762 c 128,-1,7
 949 727 949 727 918 688 c 1,8,9
 978 619 978 619 1060 581 c 128,-1,10
 1142 543 1142 543 1235 543 c 0,11,12
 1241 543 1241 543 1248 544 c 128,-1,13
 1255 545 1255 545 1262 545 c 1,14,15
 1231 444 1231 444 1215 345 c 128,-1,16
 1199 246 1199 246 1196 129 c 1,17,18
 1137 210 1137 210 1071 282 c 128,-1,19
 1005 354 1005 354 932 421.5 c 128,-1,20
 859 489 859 489 781 555 c 128,-1,21
 703 621 703 621 621 690 c 1,22,23
 694 757 694 757 766 827 c 128,-1,24
 838 897 838 897 910.5 970.5 c 128,-1,25
 983 1044 983 1044 1056.5 1122.5 c 128,-1,26
 1130 1201 1130 1201 1208 1286 c 1,27,28
 1202 1256 1202 1256 1202 1221 c 0,29,30
 1202 1179 1202 1179 1209 1134 c 128,-1,31
 1216 1089 1216 1089 1227.5 1044 c 128,-1,32
 1239 999 1239 999 1254 956 c 128,-1,33
 1269 913 1269 913 1286 874 c 1,0,1
709 543 m 1,34,35
 674 465 674 465 651.5 376.5 c 128,-1,36
 629 288 629 288 629 199 c 0,37,38
 629 182 629 182 630 164 c 128,-1,39
 631 146 631 146 633 129 c 1,40,41
 492 282 492 282 348.5 429.5 c 128,-1,42
 205 577 205 577 43 723 c 1,43,44
 117 787 117 787 190.5 849.5 c 128,-1,45
 264 912 264 912 337 979 c 128,-1,46
 410 1046 410 1046 481 1121 c 128,-1,47
 552 1196 552 1196 621 1286 c 1,48,49
 621 1235 621 1235 625 1185.5 c 128,-1,50
 629 1136 629 1136 637 1086 c 128,-1,51
 645 1036 645 1036 657 983 c 128,-1,52
 669 930 669 930 686 872 c 1,53,54
 588 872 588 872 499 839.5 c 128,-1,55
 410 807 410 807 340 727 c 1,56,57
 367 692 367 692 401.5 658 c 128,-1,58
 436 624 436 624 475.5 596.5 c 128,-1,59
 515 569 515 569 559.5 552 c 128,-1,60
 604 535 604 535 651 535 c 0,61,62
 665 535 665 535 680 537.5 c 128,-1,63
 695 540 695 540 709 543 c 1,34,35
EndSplineSet
EndChar

StartChar: guillemotright
Encoding: 187 187 32
Width: 1376
Flags: W
LayerCount: 2
Fore
SplineSet
1333 723 m 1,0,1
 1259 656 1259 656 1186.5 587 c 128,-1,2
 1114 518 1114 518 1041.5 444.5 c 128,-1,3
 969 371 969 371 895 292.5 c 128,-1,4
 821 214 821 214 743 129 c 1,5,6
 743 235 743 235 727.5 335.5 c 128,-1,7
 712 436 712 436 668 543 c 1,8,9
 682 538 682 538 696.5 536.5 c 128,-1,10
 711 535 711 535 725 535 c 0,11,12
 770 535 770 535 812.5 551 c 128,-1,13
 855 567 855 567 894.5 594 c 128,-1,14
 934 621 934 621 970 655.5 c 128,-1,15
 1006 690 1006 690 1038 727 c 1,16,17
 975 798 975 798 888.5 835 c 128,-1,18
 802 872 802 872 692 872 c 1,19,20
 707 923 707 923 718 972 c 128,-1,21
 729 1021 729 1021 737 1071.5 c 128,-1,22
 745 1122 745 1122 749.5 1174.5 c 128,-1,23
 754 1227 754 1227 756 1286 c 1,24,25
 815 1205 815 1205 881 1134.5 c 128,-1,26
 947 1064 947 1064 1019 997 c 128,-1,27
 1091 930 1091 930 1170 863 c 128,-1,28
 1249 796 1249 796 1333 723 c 1,0,1
756 690 m 1,29,30
 680 626 680 626 604 562.5 c 128,-1,31
 528 499 528 499 455 431.5 c 128,-1,32
 382 364 382 364 312.5 289.5 c 128,-1,33
 243 215 243 215 180 129 c 1,34,35
 180 181 180 181 176 231.5 c 128,-1,36
 172 282 172 282 164 333 c 128,-1,37
 156 384 156 384 144 436.5 c 128,-1,38
 132 489 132 489 117 545 c 1,39,40
 168 545 168 545 213.5 553 c 128,-1,41
 259 561 259 561 301.5 578 c 128,-1,42
 344 595 344 595 384 622.5 c 128,-1,43
 424 650 424 650 463 688 c 1,44,45
 397 773 397 773 314.5 823.5 c 128,-1,46
 232 874 232 874 123 874 c 2,47,-1
 90 874 l 1,48,49
 132 958 132 958 150 1046 c 128,-1,50
 168 1134 168 1134 168 1237 c 2,51,-1
 168 1286 l 1,52,53
 233 1213 233 1213 300.5 1141.5 c 128,-1,54
 368 1070 368 1070 440 996.5 c 128,-1,55
 512 923 512 923 590.5 847 c 128,-1,56
 669 771 669 771 756 690 c 1,29,30
EndSplineSet
EndChar

StartChar: endash
Encoding: 8211 8211 33
Width: 1229
Flags: W
LayerCount: 2
Fore
SplineSet
1126 524 m 1,0,1
 1085 527 1085 527 1021.5 531.5 c 128,-1,2
 958 536 958 536 881.5 539.5 c 128,-1,3
 805 543 805 543 720 546 c 128,-1,4
 635 549 635 549 551 549 c 0,5,6
 483 549 483 549 417.5 546.5 c 128,-1,7
 352 544 352 544 294 539 c 128,-1,8
 236 534 236 534 187.5 525 c 128,-1,9
 139 516 139 516 106 504 c 1,10,11
 113 536 113 536 116 581 c 128,-1,12
 119 626 119 626 119 676 c 0,13,14
 119 730 119 730 114.5 782 c 128,-1,15
 110 834 110 834 100 872 c 1,16,17
 144 857 144 857 197.5 845.5 c 128,-1,18
 251 834 251 834 310.5 826.5 c 128,-1,19
 370 819 370 819 434.5 815 c 128,-1,20
 499 811 499 811 565 811 c 0,21,22
 642 811 642 811 719 816 c 128,-1,23
 796 821 796 821 868 830.5 c 128,-1,24
 940 840 940 840 1006 853.5 c 128,-1,25
 1072 867 1072 867 1126 885 c 1,26,27
 1115 853 1115 853 1110.5 808.5 c 128,-1,28
 1106 764 1106 764 1106 715 c 0,29,30
 1106 662 1106 662 1111.5 611.5 c 128,-1,31
 1117 561 1117 561 1126 524 c 1,0,1
EndSplineSet
EndChar

StartChar: emdash
Encoding: 8212 8212 34
Width: 2253
Flags: W
LayerCount: 2
Fore
SplineSet
2150 524 m 1,0,1
 2122 526 2122 526 2060.5 528.5 c 128,-1,2
 1999 531 1999 531 1911 534 c 128,-1,3
 1823 537 1823 537 1714.5 539.5 c 128,-1,4
 1606 542 1606 542 1485.5 544 c 128,-1,5
 1365 546 1365 546 1237 547.5 c 128,-1,6
 1109 549 1109 549 983 549 c 0,7,8
 829 549 829 549 685.5 546.5 c 128,-1,9
 542 544 542 544 424 539 c 128,-1,10
 306 534 306 534 222.5 525 c 128,-1,11
 139 516 139 516 106 504 c 1,12,13
 113 536 113 536 116 581 c 128,-1,14
 119 626 119 626 119 676 c 0,15,16
 119 730 119 730 114.5 782 c 128,-1,17
 110 834 110 834 100 872 c 1,18,19
 144 857 144 857 235.5 845.5 c 128,-1,20
 327 834 327 834 450.5 826.5 c 128,-1,21
 574 819 574 819 721.5 815 c 128,-1,22
 869 811 869 811 1024 811 c 0,23,24
 1143 811 1143 811 1263 813 c 128,-1,25
 1383 815 1383 815 1496 819.5 c 128,-1,26
 1609 824 1609 824 1711.5 830.5 c 128,-1,27
 1814 837 1814 837 1899.5 845 c 128,-1,28
 1985 853 1985 853 2049.5 863 c 128,-1,29
 2114 873 2114 873 2150 885 c 1,30,31
 2139 853 2139 853 2134.5 808.5 c 128,-1,32
 2130 764 2130 764 2130 715 c 0,33,34
 2130 662 2130 662 2135.5 611.5 c 128,-1,35
 2141 561 2141 561 2150 524 c 1,0,1
EndSplineSet
EndChar

StartChar: quotedblleft
Encoding: 8220 8220 35
Width: 1067
Flags: W
LayerCount: 2
Fore
SplineSet
420 950 m 1,0,1
 478 984 478 984 535.5 1034.5 c 128,-1,2
 593 1085 593 1085 645 1144.5 c 128,-1,3
 697 1204 697 1204 740.5 1270.5 c 128,-1,4
 784 1337 784 1337 815 1405 c 1,5,6
 855 1373 855 1373 914.5 1347 c 128,-1,7
 974 1321 974 1321 1053 1315 c 1,8,9
 978 1206 978 1206 923.5 1086 c 128,-1,10
 869 966 869 966 840 829 c 1,11,12
 808 851 808 851 758.5 873 c 128,-1,13
 709 895 709 895 651.5 912.5 c 128,-1,14
 594 930 594 930 533.5 940.5 c 128,-1,15
 473 951 473 951 420 950 c 1,0,1
-35 1004 m 1,16,17
 23 1038 23 1038 81 1088 c 128,-1,18
 139 1138 139 1138 190.5 1198 c 128,-1,19
 242 1258 242 1258 286 1324 c 128,-1,20
 330 1390 330 1390 360 1458 c 1,21,22
 401 1426 401 1426 460.5 1400 c 128,-1,23
 520 1374 520 1374 598 1368 c 1,24,25
 524 1260 524 1260 469 1139.5 c 128,-1,26
 414 1019 414 1019 385 883 c 1,27,28
 353 904 353 904 303.5 926.5 c 128,-1,29
 254 949 254 949 196.5 966.5 c 128,-1,30
 139 984 139 984 78.5 994.5 c 128,-1,31
 18 1005 18 1005 -35 1004 c 1,16,17
EndSplineSet
EndChar

StartChar: quotedblright
Encoding: 8221 8221 36
Width: 1063
Flags: W
LayerCount: 2
Fore
SplineSet
647 1337 m 1,0,1
 589 1302 589 1302 531.5 1252.5 c 128,-1,2
 474 1203 474 1203 422 1143 c 128,-1,3
 370 1083 370 1083 326.5 1016.5 c 128,-1,4
 283 950 283 950 252 883 c 1,5,6
 212 915 212 915 152.5 941 c 128,-1,7
 93 967 93 967 14 973 c 1,8,9
 89 1081 89 1081 143.5 1201.5 c 128,-1,10
 198 1322 198 1322 227 1458 c 1,11,12
 258 1437 258 1437 308 1414.5 c 128,-1,13
 358 1392 358 1392 415.5 1374.5 c 128,-1,14
 473 1357 473 1357 533.5 1346 c 128,-1,15
 594 1335 594 1335 647 1337 c 1,0,1
1102 1284 m 1,16,17
 1043 1249 1043 1249 985.5 1199.5 c 128,-1,18
 928 1150 928 1150 876.5 1090 c 128,-1,19
 825 1030 825 1030 781 963.5 c 128,-1,20
 737 897 737 897 707 829 c 1,21,22
 666 861 666 861 606.5 887 c 128,-1,23
 547 913 547 913 469 920 c 1,24,25
 543 1028 543 1028 598 1148.5 c 128,-1,26
 653 1269 653 1269 682 1405 c 1,27,28
 713 1384 713 1384 763 1361.5 c 128,-1,29
 813 1339 813 1339 870.5 1321.5 c 128,-1,30
 928 1304 928 1304 988.5 1293 c 128,-1,31
 1049 1282 1049 1282 1102 1284 c 1,16,17
EndSplineSet
EndChar

StartChar: quoteleft
Encoding: 8216 8216 37
Width: 618
Flags: W
LayerCount: 2
Fore
SplineSet
-31 995 m 1,0,1
 27 1029 27 1029 85 1079.5 c 128,-1,2
 143 1130 143 1130 195 1189.5 c 128,-1,3
 247 1249 247 1249 290.5 1315.5 c 128,-1,4
 334 1382 334 1382 365 1450 c 1,5,6
 405 1418 405 1418 464.5 1392 c 128,-1,7
 524 1366 524 1366 602 1360 c 1,8,9
 528 1252 528 1252 473 1131.5 c 128,-1,10
 418 1011 418 1011 389 874 c 1,11,12
 357 896 357 896 307.5 918 c 128,-1,13
 258 940 258 940 200.5 957.5 c 128,-1,14
 143 975 143 975 82.5 985.5 c 128,-1,15
 22 996 22 996 -31 995 c 1,0,1
EndSplineSet
EndChar

StartChar: quoteright
Encoding: 8217 8217 38
Width: 618
Flags: W
LayerCount: 2
Fore
SplineSet
649 1329 m 1,0,1
 591 1294 591 1294 533.5 1244.5 c 128,-1,2
 476 1195 476 1195 424 1135 c 128,-1,3
 372 1075 372 1075 328.5 1008.5 c 128,-1,4
 285 942 285 942 254 874 c 1,5,6
 214 907 214 907 154.5 932.5 c 128,-1,7
 95 958 95 958 16 965 c 1,8,9
 91 1073 91 1073 145.5 1193.5 c 128,-1,10
 200 1314 200 1314 229 1450 c 1,11,12
 260 1429 260 1429 310 1406.5 c 128,-1,13
 360 1384 360 1384 417.5 1366.5 c 128,-1,14
 475 1349 475 1349 535.5 1338 c 128,-1,15
 596 1327 596 1327 649 1329 c 1,0,1
EndSplineSet
EndChar

StartChar: divide
Encoding: 247 247 39
Width: 901
Flags: W
LayerCount: 2
Fore
SplineSet
840 539 m 1,0,1
 790 551 790 551 727 559 c 128,-1,2
 664 567 664 567 594.5 571 c 128,-1,3
 525 575 525 575 453 574.5 c 128,-1,4
 381 574 381 574 312 567.5 c 128,-1,5
 243 561 243 561 181 549 c 128,-1,6
 119 537 119 537 70 518 c 1,7,8
 76 552 76 552 79 600.5 c 128,-1,9
 82 649 82 649 81.5 700 c 128,-1,10
 81 751 81 751 76.5 800.5 c 128,-1,11
 72 850 72 850 63 887 c 1,12,13
 157 854 157 854 254.5 834.5 c 128,-1,14
 352 815 352 815 450 814.5 c 128,-1,15
 548 814 548 814 646 834 c 128,-1,16
 744 854 744 854 840 899 c 1,17,18
 829 866 829 866 824 819 c 128,-1,19
 819 772 819 772 819.5 722 c 128,-1,20
 820 672 820 672 825.5 623.5 c 128,-1,21
 831 575 831 575 840 539 c 1,0,1
659 1055 m 0,22,23
 659 982 659 982 606 939.5 c 128,-1,24
 553 897 553 897 457 897 c 0,25,26
 409 897 409 897 369 907.5 c 128,-1,27
 329 918 329 918 300.5 938 c 128,-1,28
 272 958 272 958 256 986 c 128,-1,29
 240 1014 240 1014 240 1049 c 0,30,31
 240 1085 240 1085 256.5 1114 c 128,-1,32
 273 1143 273 1143 302 1163.5 c 128,-1,33
 331 1184 331 1184 371 1195 c 128,-1,34
 411 1206 411 1206 459 1206 c 0,35,36
 504 1206 504 1206 540.5 1195.5 c 128,-1,37
 577 1185 577 1185 603.5 1165 c 128,-1,38
 630 1145 630 1145 644.5 1117 c 128,-1,39
 659 1089 659 1089 659 1055 c 0,22,23
659 352 m 0,40,41
 659 280 659 280 606 237.5 c 128,-1,42
 553 195 553 195 457 195 c 0,43,44
 409 195 409 195 369 205.5 c 128,-1,45
 329 216 329 216 300.5 236 c 128,-1,46
 272 256 272 256 256 283.5 c 128,-1,47
 240 311 240 311 240 346 c 0,48,49
 240 382 240 382 256.5 411 c 128,-1,50
 273 440 273 440 302 461 c 128,-1,51
 331 482 331 482 371 493 c 128,-1,52
 411 504 411 504 459 504 c 0,53,54
 504 504 504 504 540.5 493 c 128,-1,55
 577 482 577 482 603.5 462.5 c 128,-1,56
 630 443 630 443 644.5 414.5 c 128,-1,57
 659 386 659 386 659 352 c 0,40,41
EndSplineSet
EndChar

StartChar: fraction
Encoding: 8260 8260 40
Width: 1120
Flags: W
LayerCount: 2
Fore
SplineSet
1159 1405 m 1,0,1
 1104 1247 1104 1247 1028.5 1092 c 128,-1,2
 953 937 953 937 860.5 790.5 c 128,-1,3
 768 644 768 644 660 509 c 128,-1,4
 552 374 552 374 433 255.5 c 128,-1,5
 314 137 314 137 184.5 38 c 128,-1,6
 55 -61 55 -61 -80 -135 c 1,7,8
 30 -30 30 -30 138 97 c 128,-1,9
 246 224 246 224 345 364.5 c 128,-1,10
 444 505 444 505 531.5 654.5 c 128,-1,11
 619 804 619 804 688.5 954.5 c 128,-1,12
 758 1105 758 1105 806 1251.5 c 128,-1,13
 854 1398 854 1398 874 1532 c 1,14,15
 917 1496 917 1496 956 1474 c 128,-1,16
 995 1452 995 1452 1030.5 1438.5 c 128,-1,17
 1066 1425 1066 1425 1098 1418 c 128,-1,18
 1130 1411 1130 1411 1159 1405 c 1,0,1
EndSplineSet
EndChar

StartChar: guilsinglleft
Encoding: 8249 8249 41
Width: 805
Flags: W
LayerCount: 2
Fore
SplineSet
709 543 m 1,0,1
 674 465 674 465 651.5 376.5 c 128,-1,2
 629 288 629 288 629 199 c 0,3,4
 629 182 629 182 630 164 c 128,-1,5
 631 146 631 146 633 129 c 1,6,7
 492 282 492 282 348.5 429.5 c 128,-1,8
 205 577 205 577 43 723 c 1,9,10
 117 787 117 787 190.5 849.5 c 128,-1,11
 264 912 264 912 337 979 c 128,-1,12
 410 1046 410 1046 481 1121 c 128,-1,13
 552 1196 552 1196 621 1286 c 1,14,15
 621 1235 621 1235 625 1185.5 c 128,-1,16
 629 1136 629 1136 637 1086 c 128,-1,17
 645 1036 645 1036 657 983 c 128,-1,18
 669 930 669 930 686 872 c 1,19,20
 587 872 587 872 500.5 838.5 c 128,-1,21
 414 805 414 805 340 727 c 1,22,23
 369 690 369 690 403.5 656 c 128,-1,24
 438 622 438 622 477.5 595.5 c 128,-1,25
 517 569 517 569 561 553 c 128,-1,26
 605 537 605 537 653 537 c 0,27,28
 680 537 680 537 709 543 c 1,0,1
EndSplineSet
EndChar

StartChar: guilsinglright
Encoding: 8250 8250 42
Width: 799
Flags: W
LayerCount: 2
Fore
SplineSet
756 690 m 1,0,1
 680 626 680 626 604 562.5 c 128,-1,2
 528 499 528 499 455 431.5 c 128,-1,3
 382 364 382 364 312.5 289.5 c 128,-1,4
 243 215 243 215 180 129 c 1,5,6
 180 181 180 181 176 231.5 c 128,-1,7
 172 282 172 282 164 333 c 128,-1,8
 156 384 156 384 144 436.5 c 128,-1,9
 132 489 132 489 117 545 c 1,10,11
 168 545 168 545 214 552.5 c 128,-1,12
 260 560 260 560 302.5 577 c 128,-1,13
 345 594 345 594 384.5 621 c 128,-1,14
 424 648 424 648 463 688 c 1,15,16
 397 773 397 773 314.5 823.5 c 128,-1,17
 232 874 232 874 123 874 c 2,18,-1
 90 874 l 1,19,20
 132 958 132 958 150 1046 c 128,-1,21
 168 1134 168 1134 168 1237 c 2,22,-1
 168 1286 l 1,23,24
 233 1213 233 1213 300.5 1141.5 c 128,-1,25
 368 1070 368 1070 440 996.5 c 128,-1,26
 512 923 512 923 590.5 847 c 128,-1,27
 669 771 669 771 756 690 c 1,0,1
EndSplineSet
EndChar

StartChar: daggerdbl
Encoding: 8225 8225 43
Width: 1120
Flags: W
LayerCount: 2
Fore
SplineSet
1051 84 m 1,0,1
 1001 87 1001 87 927.5 92 c 128,-1,2
 854 97 854 97 764 100 c 1,3,4
 772 38 772 38 781 -18.5 c 128,-1,5
 790 -75 790 -75 803 -131 c 1,6,7
 758 -123 758 -123 698.5 -124.5 c 128,-1,8
 639 -126 639 -126 575 -138 c 128,-1,9
 511 -150 511 -150 449 -172 c 128,-1,10
 387 -194 387 -194 338 -227 c 1,11,12
 347 -152 347 -152 355.5 -68.5 c 128,-1,13
 364 15 364 15 371 104 c 1,14,15
 280 101 280 101 202.5 91.5 c 128,-1,16
 125 82 125 82 76 63 c 1,17,18
 82 98 82 98 85 146 c 128,-1,19
 88 194 88 194 88 245.5 c 128,-1,20
 88 297 88 297 83.5 346 c 128,-1,21
 79 395 79 395 70 432 c 1,22,23
 135 409 135 409 215.5 395 c 128,-1,24
 296 381 296 381 387 375 c 1,25,26
 395 548 395 548 395 726 c 128,-1,27
 395 904 395 904 389 1077 c 1,28,29
 292 1074 292 1074 209.5 1064 c 128,-1,30
 127 1054 127 1054 76 1034 c 1,31,32
 82 1068 82 1068 85 1116.5 c 128,-1,33
 88 1165 88 1165 88 1216.5 c 128,-1,34
 88 1268 88 1268 83.5 1317 c 128,-1,35
 79 1366 79 1366 70 1403 c 1,36,37
 132 1381 132 1381 209 1367.5 c 128,-1,38
 286 1354 286 1354 371 1348 c 1,39,40
 363 1436 363 1436 352.5 1517.5 c 128,-1,41
 342 1599 342 1599 328 1671 c 1,42,43
 373 1661 373 1661 437.5 1661.5 c 128,-1,44
 502 1662 502 1662 571 1675 c 128,-1,45
 640 1688 640 1688 707 1715 c 128,-1,46
 774 1742 774 1742 825 1784 c 1,47,48
 804 1685 804 1685 787 1577.5 c 128,-1,49
 770 1470 770 1470 758 1356 c 1,50,51
 839 1365 839 1365 913.5 1380 c 128,-1,52
 988 1395 988 1395 1051 1415 c 1,53,54
 1040 1382 1040 1382 1035 1335 c 128,-1,55
 1030 1288 1030 1288 1030.5 1238 c 128,-1,56
 1031 1188 1031 1188 1036.5 1139.5 c 128,-1,57
 1042 1091 1042 1091 1051 1055 c 1,58,59
 998 1058 998 1058 916 1063 c 128,-1,60
 834 1068 834 1068 735 1073 c 1,61,62
 726 899 726 899 726 724.5 c 128,-1,63
 726 550 726 550 737 383 c 1,64,65
 824 391 824 391 903.5 407 c 128,-1,66
 983 423 983 423 1051 444 c 1,67,68
 1040 411 1040 411 1035 364 c 128,-1,69
 1030 317 1030 317 1030.5 267 c 128,-1,70
 1031 217 1031 217 1036.5 168.5 c 128,-1,71
 1042 120 1042 120 1051 84 c 1,0,1
EndSplineSet
EndChar

StartChar: periodcentered
Encoding: 183 183 44
Width: 690
Flags: W
LayerCount: 2
Fore
SplineSet
612 680 m 0,0,1
 612 644 612 644 594 615 c 128,-1,2
 576 586 576 586 542.5 565 c 128,-1,3
 509 544 509 544 461 533 c 128,-1,4
 413 522 413 522 352 522 c 0,5,6
 290 522 290 522 239.5 533 c 128,-1,7
 189 544 189 544 152.5 563.5 c 128,-1,8
 116 583 116 583 96 611 c 128,-1,9
 76 639 76 639 76 674 c 0,10,11
 76 710 76 710 97 739 c 128,-1,12
 118 768 118 768 155.5 788.5 c 128,-1,13
 193 809 193 809 244.5 820 c 128,-1,14
 296 831 296 831 356 831 c 0,15,16
 413 831 413 831 460 820.5 c 128,-1,17
 507 810 507 810 541 790 c 128,-1,18
 575 770 575 770 593.5 742 c 128,-1,19
 612 714 612 714 612 680 c 0,0,1
EndSplineSet
EndChar

StartChar: quotesinglbase
Encoding: 8218 8218 45
Width: 608
Flags: W
LayerCount: 2
Fore
SplineSet
580 213 m 1,0,1
 521 178 521 178 463.5 128.5 c 128,-1,2
 406 79 406 79 354 19 c 128,-1,3
 302 -41 302 -41 258.5 -107.5 c 128,-1,4
 215 -174 215 -174 184 -242 c 1,5,6
 144 -210 144 -210 84.5 -184 c 128,-1,7
 25 -158 25 -158 -53 -152 c 1,8,9
 21 -43 21 -43 76 77.5 c 128,-1,10
 131 198 131 198 160 334 c 1,11,12
 191 312 191 312 241 290 c 128,-1,13
 291 268 291 268 348.5 250.5 c 128,-1,14
 406 233 406 233 466.5 222 c 128,-1,15
 527 211 527 211 580 213 c 1,0,1
EndSplineSet
EndChar

StartChar: quotedblbase
Encoding: 8222 8222 46
Width: 1063
Flags: W
LayerCount: 2
Fore
SplineSet
580 213 m 1,0,1
 521 178 521 178 463.5 128.5 c 128,-1,2
 406 79 406 79 354 19 c 128,-1,3
 302 -41 302 -41 258.5 -107.5 c 128,-1,4
 215 -174 215 -174 184 -242 c 1,5,6
 144 -210 144 -210 84.5 -184 c 128,-1,7
 25 -158 25 -158 -53 -152 c 1,8,9
 21 -43 21 -43 76 77.5 c 128,-1,10
 131 198 131 198 160 334 c 1,11,12
 191 312 191 312 241 290 c 128,-1,13
 291 268 291 268 348.5 250.5 c 128,-1,14
 406 233 406 233 466.5 222 c 128,-1,15
 527 211 527 211 580 213 c 1,0,1
1034 160 m 1,16,17
 976 125 976 125 918.5 75 c 128,-1,18
 861 25 861 25 809 -34.5 c 128,-1,19
 757 -94 757 -94 713.5 -161 c 128,-1,20
 670 -228 670 -228 639 -295 c 1,21,22
 599 -263 599 -263 539.5 -237 c 128,-1,23
 480 -211 480 -211 401 -205 c 1,24,25
 476 -96 476 -96 530.5 24 c 128,-1,26
 585 144 585 144 614 281 c 1,27,28
 645 259 645 259 695 237 c 128,-1,29
 745 215 745 215 802.5 197.5 c 128,-1,30
 860 180 860 180 920.5 169 c 128,-1,31
 981 158 981 158 1034 160 c 1,16,17
EndSplineSet
EndChar

StartChar: circumflex
Encoding: 710 710 47
Width: 680
Flags: W
LayerCount: 2
Fore
SplineSet
680 1106 m 1,0,1
 649 1096 649 1096 614 1084.5 c 128,-1,2
 579 1073 579 1073 544 1059.5 c 128,-1,3
 509 1046 509 1046 475 1031 c 128,-1,4
 441 1016 441 1016 412 999 c 1,5,6
 417 1030 417 1030 416 1063.5 c 128,-1,7
 415 1097 415 1097 408 1131 c 128,-1,8
 401 1165 401 1165 388 1196.5 c 128,-1,9
 375 1228 375 1228 356 1255 c 1,10,11
 310 1201 310 1201 283 1138.5 c 128,-1,12
 256 1076 256 1076 231 995 c 1,13,14
 212 1017 212 1017 185 1032.5 c 128,-1,15
 158 1048 158 1048 127 1058.5 c 128,-1,16
 96 1069 96 1069 63.5 1076.5 c 128,-1,17
 31 1084 31 1084 0 1090 c 1,18,19
 44 1117 44 1117 80 1153.5 c 128,-1,20
 116 1190 116 1190 145.5 1233.5 c 128,-1,21
 175 1277 175 1277 198.5 1325.5 c 128,-1,22
 222 1374 222 1374 242 1425 c 1,23,-1
 489 1434 l 1,24,25
 514 1338 514 1338 559.5 1258 c 128,-1,26
 605 1178 605 1178 680 1106 c 1,0,1
EndSplineSet
EndChar

StartChar: tilde
Encoding: 732 732 48
Width: 690
Flags: W
LayerCount: 2
Fore
SplineSet
690 1311 m 0,0,1
 690 1256 690 1256 674 1211.5 c 128,-1,2
 658 1167 658 1167 629 1135.5 c 128,-1,3
 600 1104 600 1104 558 1086.5 c 128,-1,4
 516 1069 516 1069 465 1069 c 0,5,6
 419 1069 419 1069 389.5 1082.5 c 128,-1,7
 360 1096 360 1096 341.5 1116.5 c 128,-1,8
 323 1137 323 1137 312.5 1161 c 128,-1,9
 302 1185 302 1185 293 1205.5 c 128,-1,10
 284 1226 284 1226 273.5 1239.5 c 128,-1,11
 263 1253 263 1253 246 1253 c 0,12,13
 227 1253 227 1253 220 1239 c 128,-1,14
 213 1225 213 1225 213 1206 c 0,15,16
 213 1189 213 1189 218 1165.5 c 128,-1,17
 223 1142 223 1142 236 1108 c 1,18,19
 213 1108 213 1108 184.5 1107.5 c 128,-1,20
 156 1107 156 1107 126.5 1104 c 128,-1,21
 97 1101 97 1101 68.5 1095 c 128,-1,22
 40 1089 40 1089 18 1077 c 1,23,24
 13 1098 13 1098 9 1124 c 0,25,26
 5 1146 5 1146 2.5 1176.5 c 128,-1,27
 0 1207 0 1207 0 1243 c 0,28,29
 0 1284 0 1284 13 1321 c 128,-1,30
 26 1358 26 1358 51.5 1386 c 128,-1,31
 77 1414 77 1414 114 1431 c 128,-1,32
 151 1448 151 1448 199 1450 c 1,33,34
 244 1450 244 1450 272.5 1435.5 c 128,-1,35
 301 1421 301 1421 319 1400 c 128,-1,36
 337 1379 337 1379 348 1353.5 c 128,-1,37
 359 1328 359 1328 369 1307 c 128,-1,38
 379 1286 379 1286 391.5 1271.5 c 128,-1,39
 404 1257 404 1257 426 1257 c 256,40,41
 448 1257 448 1257 457.5 1277 c 128,-1,42
 467 1297 467 1297 467 1319 c 0,43,44
 467 1337 467 1337 461.5 1364.5 c 128,-1,45
 456 1392 456 1392 442 1430 c 1,46,47
 466 1421 466 1421 496.5 1419 c 128,-1,48
 527 1417 527 1417 560 1419 c 128,-1,49
 593 1421 593 1421 626 1425.5 c 128,-1,50
 659 1430 659 1430 688 1436 c 1,51,52
 688 1417 688 1417 689 1396 c 0,53,54
 689 1378 689 1378 689.5 1356 c 128,-1,55
 690 1334 690 1334 690 1311 c 0,0,1
EndSplineSet
EndChar

StartChar: macron
Encoding: 175 175 49
Width: 610
Flags: W
LayerCount: 2
Fore
SplineSet
610 1165 m 1,0,1
 546 1178 546 1178 471.5 1184.5 c 128,-1,2
 397 1191 397 1191 320 1189 c 128,-1,3
 243 1187 243 1187 166.5 1176.5 c 128,-1,4
 90 1166 90 1166 23 1145 c 1,5,6
 26 1173 26 1173 27.5 1207.5 c 128,-1,7
 29 1242 29 1242 27 1278 c 128,-1,8
 25 1314 25 1314 18.5 1348 c 128,-1,9
 12 1382 12 1382 0 1411 c 1,10,11
 66 1396 66 1396 141 1388.5 c 128,-1,12
 216 1381 216 1381 293.5 1382.5 c 128,-1,13
 371 1384 371 1384 447.5 1395.5 c 128,-1,14
 524 1407 524 1407 592 1430 c 1,15,16
 586 1401 586 1401 584.5 1368 c 128,-1,17
 583 1335 583 1335 585.5 1300 c 128,-1,18
 588 1265 588 1265 594.5 1230.5 c 128,-1,19
 601 1196 601 1196 610 1165 c 1,0,1
EndSplineSet
EndChar

StartChar: breve
Encoding: 728 728 50
Width: 524
Flags: W
LayerCount: 2
Fore
SplineSet
457 1436 m 1,0,1
 481 1422 481 1422 498 1390 c 128,-1,2
 515 1358 515 1358 520 1317.5 c 128,-1,3
 525 1277 525 1277 517.5 1233 c 128,-1,4
 510 1189 510 1189 484 1151 c 128,-1,5
 458 1113 458 1113 413 1086.5 c 128,-1,6
 368 1060 368 1060 299 1055 c 0,7,8
 215 1048 215 1048 156 1076.5 c 128,-1,9
 97 1105 97 1105 61 1153 c 128,-1,10
 25 1201 25 1201 11 1259.5 c 128,-1,11
 -3 1318 -3 1318 2 1372 c 1,12,13
 52 1364 52 1364 110.5 1366 c 128,-1,14
 169 1368 169 1368 227 1380 c 1,15,16
 222 1329 222 1329 232 1294.5 c 128,-1,17
 242 1260 242 1260 261 1240.5 c 128,-1,18
 280 1221 280 1221 305 1215 c 128,-1,19
 330 1209 330 1209 354 1214 c 0,20,21
 378 1218 378 1218 395 1230 c 128,-1,22
 412 1242 412 1242 423.5 1258.5 c 128,-1,23
 435 1275 435 1275 442 1294.5 c 128,-1,24
 449 1314 449 1314 453 1334 c 0,25,26
 462 1380 462 1380 457 1436 c 1,0,1
EndSplineSet
EndChar

StartChar: dotaccent
Encoding: 729 729 51
Width: 324
Flags: W
LayerCount: 2
Fore
SplineSet
324 1249 m 256,0,1
 324 1215 324 1215 311 1185.5 c 128,-1,2
 298 1156 298 1156 276 1134 c 128,-1,3
 254 1112 254 1112 224.5 1099.5 c 128,-1,4
 195 1087 195 1087 162 1087 c 0,5,6
 128 1087 128 1087 98.5 1099.5 c 128,-1,7
 69 1112 69 1112 47 1134 c 128,-1,8
 25 1156 25 1156 12.5 1185.5 c 128,-1,9
 0 1215 0 1215 0 1249 c 256,10,11
 0 1283 0 1283 12.5 1312.5 c 128,-1,12
 25 1342 25 1342 47 1364 c 128,-1,13
 69 1386 69 1386 98.5 1398.5 c 128,-1,14
 128 1411 128 1411 162 1411 c 0,15,16
 195 1411 195 1411 224.5 1398.5 c 128,-1,17
 254 1386 254 1386 276 1364 c 128,-1,18
 298 1342 298 1342 311 1312.5 c 128,-1,19
 324 1283 324 1283 324 1249 c 256,0,1
EndSplineSet
EndChar

StartChar: ring
Encoding: 730 730 52
Width: 406
Flags: W
LayerCount: 2
Fore
SplineSet
406 1264 m 256,0,1
 406 1216 406 1216 389.5 1174 c 128,-1,2
 373 1132 373 1132 345.5 1100.5 c 128,-1,3
 318 1069 318 1069 281 1050.5 c 128,-1,4
 244 1032 244 1032 203 1032 c 0,5,6
 161 1032 161 1032 124 1050.5 c 128,-1,7
 87 1069 87 1069 59.5 1100.5 c 128,-1,8
 32 1132 32 1132 16 1174 c 128,-1,9
 0 1216 0 1216 0 1264 c 256,10,11
 0 1312 0 1312 16 1353.5 c 128,-1,12
 32 1395 32 1395 59.5 1426 c 128,-1,13
 87 1457 87 1457 124 1475 c 128,-1,14
 161 1493 161 1493 203 1493 c 0,15,16
 244 1493 244 1493 281 1475 c 128,-1,17
 318 1457 318 1457 345.5 1426 c 128,-1,18
 373 1395 373 1395 389.5 1353.5 c 128,-1,19
 406 1312 406 1312 406 1264 c 256,0,1
319 1268 m 256,20,21
 319 1286 319 1286 310.5 1302 c 128,-1,22
 302 1318 302 1318 287 1330 c 128,-1,23
 272 1342 272 1342 252 1349 c 128,-1,24
 232 1356 232 1356 209 1356 c 256,25,26
 186 1356 186 1356 165.5 1349 c 128,-1,27
 145 1342 145 1342 130 1330 c 128,-1,28
 115 1318 115 1318 106.5 1302 c 128,-1,29
 98 1286 98 1286 98 1268 c 256,30,31
 98 1250 98 1250 106.5 1234 c 128,-1,32
 115 1218 115 1218 130 1206 c 128,-1,33
 145 1194 145 1194 165.5 1187 c 128,-1,34
 186 1180 186 1180 209 1180 c 256,35,36
 232 1180 232 1180 252 1187 c 128,-1,37
 272 1194 272 1194 287 1206 c 128,-1,38
 302 1218 302 1218 310.5 1234 c 128,-1,39
 319 1250 319 1250 319 1268 c 256,20,21
EndSplineSet
EndChar

StartChar: cedilla
Encoding: 184 184 53
Width: 449
Flags: W
LayerCount: 2
Fore
SplineSet
449 -311 m 0,0,1
 444 -378 444 -378 415.5 -417.5 c 128,-1,2
 387 -457 387 -457 349.5 -478 c 128,-1,3
 312 -499 312 -499 271.5 -505.5 c 128,-1,4
 231 -512 231 -512 203 -512 c 0,5,6
 152 -512 152 -512 97 -493 c 128,-1,7
 42 -474 42 -474 0 -436 c 1,8,9
 31 -407 31 -407 54.5 -371.5 c 128,-1,10
 78 -336 78 -336 92 -293 c 1,11,12
 109 -315 109 -315 126.5 -326.5 c 128,-1,13
 144 -338 144 -338 159 -343 c 0,14,15
 177 -349 177 -349 193 -350 c 1,16,17
 216 -350 216 -350 231 -343 c 128,-1,18
 246 -336 246 -336 255 -325.5 c 128,-1,19
 264 -315 264 -315 268 -303 c 128,-1,20
 272 -291 272 -291 272 -281 c 256,21,22
 272 -271 272 -271 269 -257 c 128,-1,23
 266 -243 266 -243 255.5 -230.5 c 128,-1,24
 245 -218 245 -218 225.5 -209.5 c 128,-1,25
 206 -201 206 -201 174 -201 c 0,26,27
 157 -201 157 -201 135.5 -204 c 128,-1,28
 114 -207 114 -207 86 -215 c 1,29,-1
 242 92 l 1,30,-1
 274 92 l 1,31,-1
 213 -141 l 1,32,33
 269 -141 269 -141 308 -153 c 128,-1,34
 347 -165 347 -165 373.5 -182.5 c 128,-1,35
 400 -200 400 -200 415 -221.5 c 128,-1,36
 430 -243 430 -243 437.5 -261.5 c 128,-1,37
 445 -280 445 -280 447 -294 c 128,-1,38
 449 -308 449 -308 449 -311 c 0,0,1
EndSplineSet
EndChar

StartChar: hungarumlaut
Encoding: 733 733 54
Width: 848
Flags: W
LayerCount: 2
Fore
SplineSet
465 1262 m 1,0,1
 418 1240 418 1240 375 1217 c 128,-1,2
 332 1194 332 1194 291.5 1167 c 128,-1,3
 251 1140 251 1140 211.5 1109 c 128,-1,4
 172 1078 172 1078 133 1040 c 1,5,-1
 0 1182 l 1,6,7
 69 1241 69 1241 131 1307.5 c 128,-1,8
 193 1374 193 1374 246 1460 c 1,9,10
 259 1434 259 1434 284 1406 c 128,-1,11
 309 1378 309 1378 339.5 1351.5 c 128,-1,12
 370 1325 370 1325 403 1301.5 c 128,-1,13
 436 1278 436 1278 465 1262 c 1,0,1
848 1237 m 1,14,15
 801 1216 801 1216 758 1192.5 c 128,-1,16
 715 1169 715 1169 674.5 1142.5 c 128,-1,17
 634 1116 634 1116 594.5 1084.5 c 128,-1,18
 555 1053 555 1053 516 1016 c 1,19,-1
 383 1157 l 1,20,21
 452 1216 452 1216 514 1282.5 c 128,-1,22
 576 1349 576 1349 629 1436 c 1,23,24
 642 1410 642 1410 667 1381.5 c 128,-1,25
 692 1353 692 1353 722.5 1326.5 c 128,-1,26
 753 1300 753 1300 786 1276.5 c 128,-1,27
 819 1253 819 1253 848 1237 c 1,14,15
EndSplineSet
EndChar

StartChar: ogonek
Encoding: 731 731 55
Width: 498
Flags: W
LayerCount: 2
Fore
SplineSet
498 -332 m 1,0,1
 462 -380 462 -380 424 -408 c 128,-1,2
 386 -436 386 -436 350 -450.5 c 128,-1,3
 314 -465 314 -465 283.5 -469 c 128,-1,4
 253 -473 253 -473 233 -473 c 0,5,6
 176 -473 176 -473 132 -453.5 c 128,-1,7
 88 -434 88 -434 59 -403.5 c 128,-1,8
 30 -373 30 -373 15 -335.5 c 128,-1,9
 0 -298 0 -298 0 -262 c 0,10,11
 0 -225 0 -225 17 -184 c 128,-1,12
 34 -143 34 -143 68.5 -102.5 c 128,-1,13
 103 -62 103 -62 154.5 -24.5 c 128,-1,14
 206 13 206 13 274 45 c 1,15,-1
 295 31 l 1,16,17
 277 16 277 16 254.5 -12 c 128,-1,18
 232 -40 232 -40 213 -72.5 c 128,-1,19
 194 -105 194 -105 181 -139 c 128,-1,20
 168 -173 168 -173 168 -201 c 0,21,22
 168 -232 168 -232 185 -251 c 128,-1,23
 202 -270 202 -270 229 -270 c 0,24,25
 260 -270 260 -270 284 -249.5 c 128,-1,26
 308 -229 308 -229 313 -195 c 1,27,28
 345 -238 345 -238 393 -273.5 c 128,-1,29
 441 -309 441 -309 498 -332 c 1,0,1
EndSplineSet
EndChar

StartChar: caron
Encoding: 711 711 56
Width: 680
Flags: W
LayerCount: 2
Fore
SplineSet
680 1323 m 1,0,1
 605 1251 605 1251 559.5 1171 c 128,-1,2
 514 1091 514 1091 489 995 c 1,3,-1
 242 1004 l 1,4,5
 222 1055 222 1055 198.5 1103.5 c 128,-1,6
 175 1152 175 1152 145.5 1195.5 c 128,-1,7
 116 1239 116 1239 80 1275.5 c 128,-1,8
 44 1312 44 1312 0 1339 c 1,9,10
 31 1345 31 1345 63.5 1352.5 c 128,-1,11
 96 1360 96 1360 127 1370.5 c 128,-1,12
 158 1381 158 1381 185 1396 c 128,-1,13
 212 1411 212 1411 231 1434 c 1,14,15
 256 1353 256 1353 283 1290.5 c 128,-1,16
 310 1228 310 1228 356 1174 c 1,17,18
 375 1201 375 1201 388 1232.5 c 128,-1,19
 401 1264 401 1264 408 1298 c 128,-1,20
 415 1332 415 1332 416 1365.5 c 128,-1,21
 417 1399 417 1399 412 1430 c 1,22,23
 441 1413 441 1413 475 1398 c 128,-1,24
 509 1383 509 1383 544 1369.5 c 128,-1,25
 579 1356 579 1356 614 1344.5 c 128,-1,26
 649 1333 649 1333 680 1323 c 1,0,1
EndSplineSet
EndChar

StartChar: numbersign
Encoding: 35 35 57
Width: 1290
Flags: W
LayerCount: 2
Fore
SplineSet
1233 1077 m 1,0,1
 1221 1052 1221 1052 1207 1009.5 c 128,-1,2
 1193 967 1193 967 1181.5 920.5 c 128,-1,3
 1170 874 1170 874 1164.5 830 c 128,-1,4
 1159 786 1159 786 1165 758 c 1,5,6
 1137 763 1137 763 1108 766.5 c 128,-1,7
 1079 770 1079 770 1055 774 c 0,8,9
 1027 778 1027 778 999 782 c 1,10,11
 987 742 987 742 976.5 701.5 c 128,-1,12
 966 661 966 661 956 623 c 1,13,14
 982 625 982 625 1009 629 c 0,15,16
 1032 632 1032 632 1059 635.5 c 128,-1,17
 1086 639 1086 639 1110 643 c 1,18,19
 1100 622 1100 622 1087.5 581 c 128,-1,20
 1075 540 1075 540 1065 495 c 128,-1,21
 1055 450 1055 450 1050 407.5 c 128,-1,22
 1045 365 1045 365 1049 340 c 1,23,24
 1026 344 1026 344 1001 348 c 128,-1,25
 976 352 976 352 956 355 c 0,26,27
 931 359 931 359 909 362 c 1,28,29
 905 331 905 331 902 298 c 0,30,31
 899 270 899 270 897 238 c 128,-1,32
 895 206 895 206 895 178 c 1,33,34
 863 187 863 187 813.5 190.5 c 128,-1,35
 764 194 764 194 711 192 c 128,-1,36
 658 190 658 190 607.5 183 c 128,-1,37
 557 176 557 176 524 164 c 1,38,39
 542 197 542 197 560.5 235 c 128,-1,40
 579 273 579 273 594 305 c 0,41,42
 612 343 612 343 627 381 c 1,43,44
 617 382 617 382 598 382 c 128,-1,45
 579 382 579 382 559 382 c 0,46,47
 536 382 536 382 510 381 c 1,48,49
 506 351 506 351 504 322 c 0,50,51
 502 297 502 297 501.5 270.5 c 128,-1,52
 501 244 501 244 504 225 c 1,53,54
 475 231 475 231 430 234.5 c 128,-1,55
 385 238 385 238 337 238 c 128,-1,56
 289 238 289 238 244 234.5 c 128,-1,57
 199 231 199 231 168 225 c 1,58,59
 177 246 177 246 187 269.5 c 128,-1,60
 197 293 197 293 205 313 c 0,61,62
 215 337 215 337 223 360 c 1,63,64
 197 356 197 356 169 352 c 0,65,66
 145 348 145 348 116 343.5 c 128,-1,67
 87 339 87 339 59 334 c 1,68,69
 69 357 69 357 79.5 397 c 128,-1,70
 90 437 90 437 99 482 c 128,-1,71
 108 527 108 527 113.5 572 c 128,-1,72
 119 617 119 617 119 649 c 1,73,74
 145 643 145 643 177 638 c 128,-1,75
 209 633 209 633 237 629 c 0,76,77
 270 625 270 625 301 621 c 1,78,79
 313 658 313 658 324.5 698.5 c 128,-1,80
 336 739 336 739 344 774 c 1,81,82
 314 769 314 769 283 762 c 0,83,84
 256 756 256 756 224 748 c 128,-1,85
 192 740 192 740 160 731 c 1,86,87
 170 752 170 752 180.5 790.5 c 128,-1,88
 191 829 191 829 199.5 874.5 c 128,-1,89
 208 920 208 920 213.5 967.5 c 128,-1,90
 219 1015 219 1015 219 1055 c 1,91,92
 239 1047 239 1047 268 1042 c 128,-1,93
 297 1037 297 1037 324 1034 c 0,94,95
 356 1030 356 1030 389 1028 c 1,96,97
 395 1075 395 1075 395.5 1120.5 c 128,-1,98
 396 1166 396 1166 391 1214 c 1,99,100
 426 1209 426 1209 476.5 1204.5 c 128,-1,101
 527 1200 527 1200 580.5 1197 c 128,-1,102
 634 1194 634 1194 685 1194 c 128,-1,103
 736 1194 736 1194 774 1198 c 1,104,105
 755 1176 755 1176 737 1146.5 c 128,-1,106
 719 1117 719 1117 705 1090 c 0,107,108
 688 1058 688 1058 672 1024 c 1,109,110
 704 1024 704 1024 738 1026 c 128,-1,111
 772 1028 772 1028 801 1030 c 1,112,113
 812 1087 812 1087 816.5 1149 c 128,-1,114
 821 1211 821 1211 821 1286 c 1,115,116
 854 1278 854 1278 904.5 1273 c 128,-1,117
 955 1268 955 1268 1010 1266.5 c 128,-1,118
 1065 1265 1065 1265 1117.5 1267.5 c 128,-1,119
 1170 1270 1170 1270 1208 1276 c 1,120,121
 1184 1241 1184 1241 1162 1201 c 128,-1,122
 1140 1161 1140 1161 1123 1128 c 0,123,124
 1103 1088 1103 1088 1085 1051 c 1,125,126
 1112 1055 1112 1055 1138 1059 c 0,127,128
 1161 1063 1161 1063 1186.5 1067.5 c 128,-1,129
 1212 1072 1212 1072 1233 1077 c 1,0,1
752 795 m 1,130,131
 726 797 726 797 696.5 798 c 128,-1,132
 667 799 667 799 616 799 c 1,133,134
 608 784 608 784 598 759 c 128,-1,135
 588 734 588 734 579 706 c 128,-1,136
 570 678 570 678 562.5 652 c 128,-1,137
 555 626 555 626 551 610 c 1,138,139
 586 610 586 610 622 609 c 128,-1,140
 658 608 658 608 696 610 c 1,141,142
 710 655 710 655 726 701.5 c 128,-1,143
 742 748 742 748 752 795 c 1,130,131
EndSplineSet
EndChar

StartChar: brokenbar
Encoding: 166 166 58
Width: 659
Flags: W
LayerCount: 2
Fore
SplineSet
496 956 m 1,0,1
 482 957 482 957 464 959 c 0,2,3
 448 961 448 961 426.5 962 c 128,-1,4
 405 963 405 963 379 963 c 0,5,6
 332 963 332 963 275 958 c 128,-1,7
 218 953 218 953 158 938 c 1,8,9
 153 1143 153 1143 137 1330.5 c 128,-1,10
 121 1518 121 1518 92 1671 c 1,11,12
 114 1666 114 1666 139.5 1663.5 c 128,-1,13
 165 1661 165 1661 193 1661 c 0,14,15
 240 1661 240 1661 293.5 1668 c 128,-1,16
 347 1675 347 1675 399.5 1690 c 128,-1,17
 452 1705 452 1705 501.5 1728.5 c 128,-1,18
 551 1752 551 1752 590 1784 c 1,19,20
 552 1601 552 1601 528 1390 c 128,-1,21
 504 1179 504 1179 496 956 c 1,0,1
160 682 m 1,22,23
 203 674 203 674 243 671 c 128,-1,24
 283 668 283 668 317 668 c 0,25,26
 356 668 356 668 388.5 670.5 c 128,-1,27
 421 673 421 673 444 677 c 0,28,29
 471 681 471 681 492 686 c 1,30,31
 494 462 494 462 512 253.5 c 128,-1,32
 530 45 530 45 567 -131 c 1,33,34
 549 -128 549 -128 526.5 -126.5 c 128,-1,35
 504 -125 504 -125 481 -125 c 0,36,37
 436 -125 436 -125 386 -131 c 128,-1,38
 336 -137 336 -137 285.5 -150 c 128,-1,39
 235 -163 235 -163 188 -182 c 128,-1,40
 141 -201 141 -201 102 -227 c 1,41,42
 114 -133 114 -133 124 -26 c 128,-1,43
 134 81 134 81 141.5 197 c 128,-1,44
 149 313 149 313 153.5 435 c 128,-1,45
 158 557 158 557 160 682 c 1,22,23
EndSplineSet
EndChar

StartChar: exclam
Encoding: 33 33 59
Width: 694
Flags: W
LayerCount: 2
Fore
SplineSet
639 1532 m 1,0,1
 612 1452 612 1452 590 1351.5 c 128,-1,2
 568 1251 568 1251 552.5 1140 c 128,-1,3
 537 1029 537 1029 528.5 912.5 c 128,-1,4
 520 796 520 796 520 684 c 0,5,6
 520 610 520 610 524.5 540.5 c 128,-1,7
 529 471 529 471 537 408 c 1,8,9
 525 409 525 409 506 410.5 c 128,-1,10
 487 412 487 412 466 413.5 c 128,-1,11
 445 415 445 415 426 415.5 c 128,-1,12
 407 416 407 416 395 416 c 0,13,14
 375 416 375 416 344.5 413.5 c 128,-1,15
 314 411 314 411 281.5 407.5 c 128,-1,16
 249 404 249 404 219 400 c 128,-1,17
 189 396 189 396 170 393 c 1,18,19
 181 438 181 438 185.5 492 c 128,-1,20
 190 546 190 546 190 606 c 0,21,22
 190 676 190 676 184 752 c 128,-1,23
 178 828 178 828 167.5 904.5 c 128,-1,24
 157 981 157 981 143 1054.5 c 128,-1,25
 129 1128 129 1128 112 1192.5 c 128,-1,26
 95 1257 95 1257 76.5 1310.5 c 128,-1,27
 58 1364 58 1364 39 1401 c 1,28,29
 48 1399 48 1399 60 1399 c 128,-1,30
 72 1399 72 1399 86 1399 c 0,31,32
 119 1399 119 1399 163.5 1401.5 c 128,-1,33
 208 1404 208 1404 257.5 1410 c 128,-1,34
 307 1416 307 1416 360 1426 c 128,-1,35
 413 1436 413 1436 463.5 1451 c 128,-1,36
 514 1466 514 1466 559 1486 c 128,-1,37
 604 1506 604 1506 639 1532 c 1,0,1
627 154 m 0,38,39
 627 81 627 81 557.5 38.5 c 128,-1,40
 488 -4 488 -4 367 -4 c 0,41,42
 305 -4 305 -4 254.5 6.5 c 128,-1,43
 204 17 204 17 167 37 c 128,-1,44
 130 57 130 57 110 84.5 c 128,-1,45
 90 112 90 112 90 147 c 0,46,47
 90 183 90 183 111 212.5 c 128,-1,48
 132 242 132 242 169.5 262.5 c 128,-1,49
 207 283 207 283 258.5 294 c 128,-1,50
 310 305 310 305 371 305 c 0,51,52
 428 305 428 305 475 294.5 c 128,-1,53
 522 284 522 284 555.5 264 c 128,-1,54
 589 244 589 244 608 216 c 128,-1,55
 627 188 627 188 627 154 c 0,38,39
EndSplineSet
EndChar

StartChar: bullet
Encoding: 8226 8226 60
Width: 831
Flags: W
LayerCount: 2
Fore
SplineSet
719 764 m 1,0,1
 717 701 717 701 688 659 c 128,-1,2
 659 617 659 617 615 591.5 c 128,-1,3
 571 566 571 566 518.5 555.5 c 128,-1,4
 466 545 466 545 416 545 c 0,5,6
 368 545 368 545 315 554.5 c 128,-1,7
 262 564 262 564 217.5 587 c 128,-1,8
 173 610 173 610 144 649.5 c 128,-1,9
 115 689 115 689 115 748 c 0,10,11
 115 817 115 817 143.5 862.5 c 128,-1,12
 172 908 172 908 216.5 935.5 c 128,-1,13
 261 963 261 963 314 974 c 128,-1,14
 367 985 367 985 416 985 c 0,15,16
 467 985 467 985 520.5 972.5 c 128,-1,17
 574 960 574 960 618 933.5 c 128,-1,18
 662 907 662 907 690.5 865 c 128,-1,19
 719 823 719 823 719 764 c 1,0,1
EndSplineSet
EndChar

StartChar: degree
Encoding: 176 176 61
Width: 729
Flags: W
LayerCount: 2
Fore
SplineSet
680 1104 m 0,0,1
 680 1030 680 1030 655 964.5 c 128,-1,2
 630 899 630 899 587.5 850.5 c 128,-1,3
 545 802 545 802 487.5 773.5 c 128,-1,4
 430 745 430 745 365 745 c 0,5,6
 299 745 299 745 241 773.5 c 128,-1,7
 183 802 183 802 140.5 850.5 c 128,-1,8
 98 899 98 899 73.5 964.5 c 128,-1,9
 49 1030 49 1030 49 1104 c 0,10,11
 49 1179 49 1179 73.5 1244 c 128,-1,12
 98 1309 98 1309 140.5 1357.5 c 128,-1,13
 183 1406 183 1406 241 1434 c 128,-1,14
 299 1462 299 1462 365 1462 c 0,15,16
 430 1462 430 1462 487.5 1434 c 128,-1,17
 545 1406 545 1406 587.5 1357.5 c 128,-1,18
 630 1309 630 1309 655 1244 c 128,-1,19
 680 1179 680 1179 680 1104 c 0,0,1
545 1110 m 256,20,21
 545 1139 545 1139 531.5 1164 c 128,-1,22
 518 1189 518 1189 495 1207.5 c 128,-1,23
 472 1226 472 1226 440.5 1236.5 c 128,-1,24
 409 1247 409 1247 373 1247 c 0,25,26
 338 1247 338 1247 306.5 1236.5 c 128,-1,27
 275 1226 275 1226 251.5 1207.5 c 128,-1,28
 228 1189 228 1189 214.5 1164 c 128,-1,29
 201 1139 201 1139 201 1110 c 256,30,31
 201 1081 201 1081 214.5 1056.5 c 128,-1,32
 228 1032 228 1032 251.5 1014 c 128,-1,33
 275 996 275 996 306.5 985.5 c 128,-1,34
 338 975 338 975 373 975 c 0,35,36
 409 975 409 975 440.5 985.5 c 128,-1,37
 472 996 472 996 495 1014 c 128,-1,38
 518 1032 518 1032 531.5 1056.5 c 128,-1,39
 545 1081 545 1081 545 1110 c 256,20,21
EndSplineSet
EndChar

StartChar: minus
Encoding: 8722 8722 62
Width: 987
Flags: W
LayerCount: 2
Fore
SplineSet
881 524 m 1,0,1
 831 528 831 528 768.5 533 c 128,-1,2
 706 538 706 538 636.5 542 c 128,-1,3
 567 546 567 546 494.5 548 c 128,-1,4
 422 550 422 550 353.5 546.5 c 128,-1,5
 285 543 285 543 222.5 533 c 128,-1,6
 160 523 160 523 111 504 c 1,7,8
 117 538 117 538 120 586.5 c 128,-1,9
 123 635 123 635 122.5 686 c 128,-1,10
 122 737 122 737 117.5 786 c 128,-1,11
 113 835 113 835 104 872 c 1,12,13
 293 806 293 806 484.5 812.5 c 128,-1,14
 676 819 676 819 881 885 c 1,15,16
 870 852 870 852 865 805 c 128,-1,17
 860 758 860 758 860.5 708 c 128,-1,18
 861 658 861 658 866.5 609 c 128,-1,19
 872 560 872 560 881 524 c 1,0,1
EndSplineSet
EndChar

StartChar: multiply
Encoding: 215 215 63
Width: 958
Flags: W
LayerCount: 2
Fore
SplineSet
324 1087 m 1,0,1
 347 1042 347 1042 387 989 c 128,-1,2
 427 936 427 936 479 879 c 1,3,4
 516 930 516 930 550.5 986 c 128,-1,5
 585 1042 585 1042 616 1104 c 1,6,7
 632 1072 632 1072 662 1035.5 c 128,-1,8
 692 999 692 999 728 963.5 c 128,-1,9
 764 928 764 928 802 897.5 c 128,-1,10
 840 867 840 867 872 848 c 1,11,12
 830 822 830 822 779 782 c 128,-1,13
 728 742 728 742 674 694 c 1,14,15
 730 649 730 649 782.5 614 c 128,-1,16
 835 579 835 579 883 557 c 1,17,18
 854 537 854 537 817.5 505.5 c 128,-1,19
 781 474 781 474 745 437.5 c 128,-1,20
 709 401 709 401 677.5 363 c 128,-1,21
 646 325 646 325 627 293 c 1,22,23
 598 352 598 352 564 405 c 128,-1,24
 530 458 530 458 489 506 c 1,25,26
 441 450 441 450 402.5 395 c 128,-1,27
 364 340 364 340 342 289 c 1,28,29
 322 318 322 318 290.5 354.5 c 128,-1,30
 259 391 259 391 222.5 427 c 128,-1,31
 186 463 186 463 148 494.5 c 128,-1,32
 110 526 110 526 78 545 c 1,33,34
 201 604 201 604 299 688 c 1,35,36
 246 728 246 728 188.5 763.5 c 128,-1,37
 131 799 131 799 68 831 c 1,38,39
 99 847 99 847 136 877 c 128,-1,40
 173 907 173 907 208 943 c 128,-1,41
 243 979 243 979 273.5 1017 c 128,-1,42
 304 1055 304 1055 324 1087 c 1,0,1
EndSplineSet
EndChar

StartChar: Thorn
Encoding: 222 222 64
Width: 1733
Flags: W
LayerCount: 2
Fore
SplineSet
764 1583 m 1,0,1
 759 1521 759 1521 756 1455.5 c 128,-1,2
 753 1390 753 1390 750 1321 c 1,3,4
 884 1322 884 1322 982 1314.5 c 128,-1,5
 1080 1307 1080 1307 1146 1299 c 1,6,7
 1223 1288 1223 1288 1276 1276 c 1,8,9
 1365 1250 1365 1250 1434 1211.5 c 128,-1,10
 1503 1173 1503 1173 1551 1127.5 c 128,-1,11
 1599 1082 1599 1082 1626.5 1033.5 c 128,-1,12
 1654 985 1654 985 1659 940 c 1,13,-1
 1659 938 l 1,14,15
 1685 953 1685 953 1709.5 969.5 c 128,-1,16
 1734 986 1734 986 1759 1006 c 1,17,18
 1746 882 1746 882 1713 781 c 128,-1,19
 1680 680 1680 680 1634 599.5 c 128,-1,20
 1588 519 1588 519 1533.5 457 c 128,-1,21
 1479 395 1479 395 1424 349 c 0,22,23
 1295 242 1295 242 1139 188 c 1,24,25
 1032 157 1032 157 934.5 150 c 128,-1,26
 837 143 837 143 748 154 c 1,27,-1
 754 -41 l 1,28,29
 619 -22 619 -22 463 -47 c 128,-1,30
 307 -72 307 -72 127 -135 c 1,31,32
 162 -29 162 -29 194 94.5 c 128,-1,33
 226 218 226 218 252 352 c 1,34,35
 189 399 189 399 143.5 442 c 128,-1,36
 98 485 98 485 74 516 c 1,37,38
 167 488 167 488 270 467 c 1,39,40
 284 554 284 554 294 640 c 128,-1,41
 304 726 304 726 309 813 c 1,42,43
 250 794 250 794 193.5 771.5 c 128,-1,44
 137 749 137 749 84 723 c 1,45,46
 126 876 126 876 111 1008.5 c 128,-1,47
 96 1141 96 1141 31 1260 c 1,48,49
 100 1271 100 1271 165.5 1278.5 c 128,-1,50
 231 1286 231 1286 293 1292 c 1,51,52
 287 1333 287 1333 280 1371.5 c 128,-1,53
 273 1410 273 1410 264 1448 c 1,54,55
 512 1445 512 1445 764 1583 c 1,0,1
752 915 m 1,56,-1
 748 915 l 2,57,58
 745 915 745 915 741 913 c 1,59,60
 738 673 738 673 741 440 c 1,61,62
 819 450 819 450 887.5 474.5 c 128,-1,63
 956 499 956 499 1008.5 541 c 128,-1,64
 1061 583 1061 583 1095 644.5 c 128,-1,65
 1129 706 1129 706 1139 791 c 1,66,67
 1182 799 1182 799 1224.5 805.5 c 128,-1,68
 1267 812 1267 812 1311 821 c 1,69,-1
 1311 823 l 1,70,71
 1279 861 1279 861 1242 887.5 c 128,-1,72
 1205 914 1205 914 1144.5 927 c 128,-1,73
 1084 940 1084 940 990.5 937.5 c 128,-1,74
 897 935 897 935 752 915 c 1,56,-1
EndSplineSet
EndChar

StartChar: A
Encoding: 65 65 65
Width: 1855
Flags: W
LayerCount: 2
Fore
SplineSet
1792 471 m 1,0,1
 1746 445 1746 445 1699 422 c 128,-1,2
 1652 399 1652 399 1604 379 c 1,3,4
 1656 274 1656 274 1714 177.5 c 128,-1,5
 1772 81 1772 81 1837 -12 c 1,6,7
 1670 -12 1670 -12 1519.5 -45.5 c 128,-1,8
 1369 -79 1369 -79 1223 -152 c 1,9,10
 1231 -126 1231 -126 1234 -95.5 c 128,-1,11
 1237 -65 1237 -65 1237 -31 c 0,12,13
 1237 29 1237 29 1225.5 101 c 128,-1,14
 1214 173 1214 173 1192 254 c 1,15,16
 1139 246 1139 246 1086.5 242 c 128,-1,17
 1034 238 1034 238 983 238 c 0,18,19
 895 238 895 238 812 252 c 128,-1,20
 729 266 729 266 651 295 c 1,21,22
 633 202 633 202 617 107 c 128,-1,23
 601 12 601 12 586 -88 c 1,24,25
 535 -60 535 -60 473 -38 c 0,26,27
 419 -19 419 -19 345 -3.5 c 128,-1,28
 271 12 271 12 180 12 c 0,29,30
 108 12 108 12 28 -1.5 c 128,-1,31
 -52 -15 -52 -15 -137 -47 c 1,32,33
 -59 38 -59 38 8.5 124.5 c 128,-1,34
 76 211 76 211 131 291.5 c 128,-1,35
 186 372 186 372 229 442 c 128,-1,36
 272 512 272 512 301 563 c 1,37,38
 272 603 272 603 246 649 c 128,-1,39
 220 695 220 695 199 748 c 1,40,41
 239 726 239 726 279.5 707.5 c 128,-1,42
 320 689 320 689 360 672 c 1,43,-1
 360 674 l 1,44,45
 414 785 414 785 473 891 c 128,-1,46
 532 997 532 997 600 1096 c 1,47,48
 586 1130 586 1130 565.5 1173 c 128,-1,49
 545 1216 545 1216 521 1263 c 128,-1,50
 497 1310 497 1310 470.5 1357 c 128,-1,51
 444 1404 444 1404 418 1446 c 1,52,53
 517 1418 517 1418 620.5 1400.5 c 128,-1,54
 724 1383 724 1383 834 1378 c 1,55,56
 892 1434 892 1434 954 1481 c 128,-1,57
 1016 1528 1016 1528 1085 1565 c 1,58,59
 1061 1520 1061 1520 1038 1474 c 128,-1,60
 1015 1428 1015 1428 993 1380 c 1,61,62
 1052 1383 1052 1383 1111 1391 c 128,-1,63
 1170 1399 1170 1399 1229 1411 c 1,64,65
 1272 1240 1272 1240 1323 1076 c 128,-1,66
 1374 912 1374 912 1436 754 c 1,67,68
 1487 783 1487 783 1535 816.5 c 128,-1,69
 1583 850 1583 850 1632 887 c 1,70,71
 1663 768 1663 768 1702 665 c 128,-1,72
 1741 562 1741 562 1792 471 c 1,0,1
1069 606 m 1,73,74
 980 820 980 820 856 1047 c 1,75,76
 818 938 818 938 783.5 823.5 c 128,-1,77
 749 709 749 709 717 584 c 1,78,79
 743 582 743 582 769 581 c 128,-1,80
 795 580 795 580 821 580 c 0,81,82
 884 580 884 580 945.5 586 c 128,-1,83
 1007 592 1007 592 1069 606 c 1,73,74
EndSplineSet
EndChar

StartChar: B
Encoding: 66 66 66
Width: 1710
Flags: W
LayerCount: 2
Fore
SplineSet
1622 260 m 0,0,1
 1620 177 1620 177 1587.5 111.5 c 128,-1,2
 1555 46 1555 46 1498.5 -4 c 128,-1,3
 1442 -54 1442 -54 1365.5 -89.5 c 128,-1,4
 1289 -125 1289 -125 1199.5 -147 c 128,-1,5
 1110 -169 1110 -169 1011.5 -179.5 c 128,-1,6
 913 -190 913 -190 813 -190 c 0,7,8
 735 -190 735 -190 657 -184 c 128,-1,9
 579 -178 579 -178 505.5 -167.5 c 128,-1,10
 432 -157 432 -157 364 -141.5 c 128,-1,11
 296 -126 296 -126 238 -106 c 1,12,-1
 262 -61 l 1,13,14
 228 -71 228 -71 193 -82.5 c 128,-1,15
 158 -94 158 -94 123 -106 c 1,16,17
 183 74 183 74 226.5 254.5 c 128,-1,18
 270 435 270 435 293 621 c 1,19,20
 221 667 221 667 164 716 c 128,-1,21
 107 765 107 765 70 813 c 1,22,23
 125 796 125 796 184.5 781.5 c 128,-1,24
 244 767 244 767 307 756 c 1,25,26
 312 818 312 818 314.5 878 c 128,-1,27
 317 938 317 938 317 999 c 2,28,-1
 317 1032 l 1,29,30
 256 1012 256 1012 196 989 c 128,-1,31
 136 966 136 966 80 938 c 1,32,33
 95 994 95 994 103 1047 c 128,-1,34
 111 1100 111 1100 111 1151 c 0,35,36
 111 1238 111 1238 89 1318 c 128,-1,37
 67 1398 67 1398 27 1473 c 1,38,39
 143 1491 143 1491 238 1502.5 c 128,-1,40
 333 1514 333 1514 414.5 1521 c 128,-1,41
 496 1528 496 1528 569.5 1531 c 128,-1,42
 643 1534 643 1534 715 1534 c 0,43,44
 776 1534 776 1534 854 1531 c 128,-1,45
 932 1528 932 1528 1015.5 1518 c 128,-1,46
 1099 1508 1099 1508 1182.5 1489 c 128,-1,47
 1266 1470 1266 1470 1340 1437 c 128,-1,48
 1414 1404 1414 1404 1473 1355.5 c 128,-1,49
 1532 1307 1532 1307 1565 1239 c 1,50,51
 1586 1251 1586 1251 1608.5 1267 c 128,-1,52
 1631 1283 1631 1283 1653 1300 c 1,53,54
 1658 1273 1658 1273 1659.5 1246 c 128,-1,55
 1661 1219 1661 1219 1661 1194 c 0,56,57
 1661 1116 1661 1116 1642.5 1041 c 128,-1,58
 1624 966 1624 966 1590.5 897 c 128,-1,59
 1557 828 1557 828 1510 765.5 c 128,-1,60
 1463 703 1463 703 1405 651 c 1,61,62
 1460 619 1460 619 1497 578.5 c 128,-1,63
 1534 538 1534 538 1558.5 495 c 128,-1,64
 1583 452 1583 452 1596 411 c 128,-1,65
 1609 370 1609 370 1614.5 337 c 128,-1,66
 1620 304 1620 304 1621 283 c 128,-1,67
 1622 262 1622 262 1622 260 c 0,0,1
879 436 m 0,68,69
 805 436 805 436 737 449 c 1,70,71
 737 396 737 396 738 345 c 128,-1,72
 739 294 739 294 741 242 c 1,73,74
 792 226 792 226 838 220.5 c 128,-1,75
 884 215 884 215 926 215 c 0,76,77
 978 215 978 215 1035.5 227.5 c 128,-1,78
 1093 240 1093 240 1141.5 268.5 c 128,-1,79
 1190 297 1190 297 1221.5 343 c 128,-1,80
 1253 389 1253 389 1253 457 c 0,81,82
 1253 474 1253 474 1250 493 c 128,-1,83
 1247 512 1247 512 1241 532 c 1,84,85
 1156 486 1156 486 1064.5 461 c 128,-1,86
 973 436 973 436 879 436 c 0,68,69
745 1130 m 1,87,88
 742 1031 742 1031 740.5 933.5 c 128,-1,89
 739 836 739 836 737 737 c 1,90,91
 809 748 809 748 866.5 772.5 c 128,-1,92
 924 797 924 797 967 839 c 128,-1,93
 1010 881 1010 881 1036.5 942 c 128,-1,94
 1063 1003 1063 1003 1073 1087 c 1,95,-1
 1163 1102 l 1,96,97
 1120 1127 1120 1127 1067 1139 c 128,-1,98
 1014 1151 1014 1151 952 1151 c 0,99,100
 926 1151 926 1151 906.5 1150 c 128,-1,101
 887 1149 887 1149 865.5 1146.5 c 128,-1,102
 844 1144 844 1144 816.5 1140 c 128,-1,103
 789 1136 789 1136 748 1130 c 1,104,-1
 745 1130 l 1,87,88
EndSplineSet
EndChar

StartChar: C
Encoding: 67 67 67
Width: 1667
Flags: W
LayerCount: 2
Fore
SplineSet
1632 494 m 1,0,1
 1616 369 1616 369 1575 277 c 128,-1,2
 1534 185 1534 185 1476 119.5 c 128,-1,3
 1418 54 1418 54 1347 12 c 128,-1,4
 1276 -30 1276 -30 1200 -54 c 128,-1,5
 1124 -78 1124 -78 1047.5 -87 c 128,-1,6
 971 -96 971 -96 901 -96 c 0,7,8
 722 -96 722 -96 573 -45 c 128,-1,9
 424 6 424 6 310 108 c 128,-1,10
 196 210 196 210 119.5 363.5 c 128,-1,11
 43 517 43 517 10 721 c 1,12,13
 33 713 33 713 59 706 c 128,-1,14
 85 699 85 699 111 694 c 1,15,16
 129 897 129 897 217 1050.5 c 128,-1,17
 305 1204 305 1204 445.5 1307.5 c 128,-1,18
 586 1411 586 1411 770.5 1463.5 c 128,-1,19
 955 1516 955 1516 1167 1516 c 0,20,21
 1264 1516 1264 1516 1374.5 1506 c 128,-1,22
 1485 1496 1485 1496 1612 1473 c 1,23,24
 1583 1382 1583 1382 1568.5 1290.5 c 128,-1,25
 1554 1199 1554 1199 1554 1108 c 0,26,27
 1554 1012 1554 1012 1569 918 c 1,28,29
 1510 962 1510 962 1451 991.5 c 128,-1,30
 1392 1021 1392 1021 1335.5 1038.5 c 128,-1,31
 1279 1056 1279 1056 1225 1063.5 c 128,-1,32
 1171 1071 1171 1071 1122 1071 c 0,33,34
 1030 1071 1030 1071 932 1045.5 c 128,-1,35
 834 1020 834 1020 746.5 971 c 128,-1,36
 659 922 659 922 590 851.5 c 128,-1,37
 521 781 521 781 487 690 c 1,38,39
 528 696 528 696 566 705.5 c 128,-1,40
 604 715 604 715 641 727 c 1,41,42
 635 683 635 683 635 645 c 0,43,44
 635 551 635 551 668 477.5 c 128,-1,45
 701 404 701 404 758 353.5 c 128,-1,46
 815 303 815 303 893 276.5 c 128,-1,47
 971 250 971 250 1061 250 c 0,48,49
 1112 250 1112 250 1177.5 259.5 c 128,-1,50
 1243 269 1243 269 1317 295.5 c 128,-1,51
 1391 322 1391 322 1471 369.5 c 128,-1,52
 1551 417 1551 417 1632 494 c 1,0,1
EndSplineSet
EndChar

StartChar: D
Encoding: 68 68 68
Width: 1755
Flags: W
LayerCount: 2
Fore
SplineSet
1714 827 m 1,0,1
 1728 707 1728 707 1702.5 593.5 c 128,-1,2
 1677 480 1677 480 1619.5 379 c 128,-1,3
 1562 278 1562 278 1476.5 194 c 128,-1,4
 1391 110 1391 110 1286.5 49 c 128,-1,5
 1182 -12 1182 -12 1062.5 -46 c 128,-1,6
 943 -80 943 -80 817 -80 c 0,7,8
 734 -80 734 -80 646.5 -59.5 c 128,-1,9
 559 -39 559 -39 477 16 c 1,10,11
 387 5 387 5 291.5 -18 c 128,-1,12
 196 -41 196 -41 94 -78 c 1,13,14
 184 191 184 191 235.5 462.5 c 128,-1,15
 287 734 287 734 289 1012 c 1,16,17
 254 996 254 996 218 975.5 c 128,-1,18
 182 955 182 955 147 930 c 1,19,20
 151 956 151 956 152.5 980.5 c 128,-1,21
 154 1005 154 1005 154 1030 c 0,22,23
 154 1152 154 1152 118.5 1260.5 c 128,-1,24
 83 1369 83 1369 14 1466 c 1,25,26
 51 1478 51 1478 102 1488 c 128,-1,27
 153 1498 153 1498 210.5 1506 c 128,-1,28
 268 1514 268 1514 328.5 1520 c 128,-1,29
 389 1526 389 1526 446 1530 c 128,-1,30
 503 1534 503 1534 553 1536 c 128,-1,31
 603 1538 603 1538 639 1538 c 0,32,33
 787 1538 787 1538 918 1513.5 c 128,-1,34
 1049 1489 1049 1489 1159 1444.5 c 128,-1,35
 1269 1400 1269 1400 1355.5 1337.5 c 128,-1,36
 1442 1275 1442 1275 1502 1199.5 c 128,-1,37
 1562 1124 1562 1124 1594 1037 c 128,-1,38
 1626 950 1626 950 1626 856 c 0,39,40
 1626 841 1626 841 1626 825.5 c 128,-1,41
 1626 810 1626 810 1624 795 c 1,42,43
 1649 803 1649 803 1671 810.5 c 128,-1,44
 1693 818 1693 818 1714 827 c 1,0,1
1257 745 m 1,45,46
 1238 808 1238 808 1202.5 857 c 128,-1,47
 1167 906 1167 906 1121.5 943 c 128,-1,48
 1076 980 1076 980 1023.5 1005 c 128,-1,49
 971 1030 971 1030 917.5 1047 c 128,-1,50
 864 1064 864 1064 812 1072.5 c 128,-1,51
 760 1081 760 1081 715 1085 c 1,52,53
 709 840 709 840 709 598 c 0,54,55
 709 376 709 376 715 156 c 1,56,57
 813 185 813 185 898.5 236 c 128,-1,58
 984 287 984 287 1044.5 360.5 c 128,-1,59
 1105 434 1105 434 1135 530 c 128,-1,60
 1165 626 1165 626 1153 743 c 1,61,62
 1176 743 1176 743 1202 743 c 128,-1,63
 1228 743 1228 743 1257 745 c 1,45,46
EndSplineSet
EndChar

StartChar: E
Encoding: 69 69 69
Width: 1542
Flags: W
LayerCount: 2
Fore
SplineSet
698 4 m 1,0,1
 616 3 616 3 535.5 3.5 c 128,-1,2
 455 4 455 4 375.5 1 c 128,-1,3
 296 -2 296 -2 218 -12 c 128,-1,4
 140 -22 140 -22 63 -43 c 1,5,6
 132 189 132 189 167.5 417.5 c 128,-1,7
 203 646 203 646 203 877 c 0,8,9
 203 982 203 982 195.5 1086.5 c 128,-1,10
 188 1191 188 1191 172 1296 c 1,11,-1
 18 1315 l 1,12,13
 54 1326 54 1326 90.5 1336 c 128,-1,14
 127 1346 127 1346 162 1356 c 1,15,16
 157 1384 157 1384 152.5 1411.5 c 128,-1,17
 148 1439 148 1439 141 1468 c 1,18,19
 201 1450 201 1450 260 1434 c 128,-1,20
 319 1418 319 1418 381 1407 c 1,21,22
 574 1447 574 1447 766.5 1468 c 128,-1,23
 959 1489 959 1489 1157 1489 c 0,24,25
 1242 1489 1242 1489 1327 1485 c 128,-1,26
 1412 1481 1412 1481 1499 1473 c 1,27,28
 1450 1290 1450 1290 1450 1094 c 0,29,30
 1450 1022 1450 1022 1456 952 c 1,31,32
 1078 1112 1078 1112 676 1204 c 1,33,34
 667 1116 667 1116 661 1027 c 128,-1,35
 655 938 655 938 653 850 c 1,36,37
 755 873 755 873 856 885 c 128,-1,38
 957 897 957 897 1059 899 c 1,39,40
 1036 805 1036 805 1036 713 c 0,41,42
 1036 676 1036 676 1039.5 639 c 128,-1,43
 1043 602 1043 602 1051 565 c 1,44,45
 954 612 954 612 854 649 c 128,-1,46
 754 686 754 686 651 715 c 1,47,48
 651 609 651 609 655.5 496 c 128,-1,49
 660 383 660 383 670 268 c 1,50,51
 1055 320 1055 320 1456 459 c 1,52,53
 1444 384 1444 384 1437 311 c 128,-1,54
 1430 238 1430 238 1430 164 c 0,55,56
 1430 96 1430 96 1436 29 c 128,-1,57
 1442 -38 1442 -38 1456 -106 c 1,58,59
 1267 -58 1267 -58 1078 -23.5 c 128,-1,60
 889 11 889 11 694 31 c 1,61,62
 694 25 694 25 695 17.5 c 128,-1,63
 696 10 696 10 698 4 c 1,0,1
EndSplineSet
EndChar

StartChar: F
Encoding: 70 70 70
Width: 1520
Flags: W
LayerCount: 2
Fore
SplineSet
653 0 m 2,0,1
 500 0 500 0 359 -26.5 c 128,-1,2
 218 -53 218 -53 70 -106 c 1,3,4
 148 230 148 230 179.5 564 c 128,-1,5
 211 898 211 898 213 1229 c 1,6,-1
 35 1253 l 1,7,8
 80 1269 80 1269 124 1284 c 128,-1,9
 168 1299 168 1299 213 1313 c 1,10,11
 213 1351 213 1351 212 1390.5 c 128,-1,12
 211 1430 211 1430 211 1468 c 1,13,14
 280 1459 280 1459 350 1453.5 c 128,-1,15
 420 1448 420 1448 492 1448 c 0,16,17
 535 1448 535 1448 576.5 1450.5 c 128,-1,18
 618 1453 618 1453 662 1456 c 1,19,-1
 657 1419 l 1,20,21
 772 1438 772 1438 885 1448 c 128,-1,22
 998 1458 998 1458 1112 1458 c 0,23,24
 1211 1458 1211 1458 1309 1451.5 c 128,-1,25
 1407 1445 1407 1445 1507 1430 c 1,26,27
 1483 1275 1483 1275 1483 1124 c 0,28,29
 1483 1061 1483 1061 1486.5 998 c 128,-1,30
 1490 935 1490 935 1499 872 c 1,31,32
 1288 957 1288 957 1075.5 1024.5 c 128,-1,33
 863 1092 863 1092 643 1145 c 1,34,35
 640 1088 640 1088 639.5 1032.5 c 128,-1,36
 639 977 639 977 639 922 c 2,37,-1
 639 813 l 1,38,39
 723 825 723 825 805.5 832.5 c 128,-1,40
 888 840 888 840 973 840 c 0,41,42
 994 840 994 840 1015.5 839 c 128,-1,43
 1037 838 1037 838 1059 838 c 1,44,45
 1034 720 1034 720 1034 598 c 0,46,47
 1034 548 1034 548 1038 498 c 128,-1,48
 1042 448 1042 448 1049 397 c 1,49,50
 955 466 955 466 854 525 c 128,-1,51
 753 584 753 584 645 635 c 1,52,53
 651 476 651 476 666.5 317.5 c 128,-1,54
 682 159 682 159 705 0 c 1,55,-1
 653 0 l 2,0,1
EndSplineSet
EndChar

StartChar: G
Encoding: 71 71 71
Width: 1688
Flags: W
LayerCount: 2
Fore
SplineSet
1632 494 m 1,0,1
 1620 398 1620 398 1593 322.5 c 128,-1,2
 1566 247 1566 247 1528 188 c 1,3,4
 1528 156 1528 156 1528.5 121 c 128,-1,5
 1529 86 1529 86 1530 51.5 c 128,-1,6
 1531 17 1531 17 1533 -15 c 128,-1,7
 1535 -47 1535 -47 1538 -72 c 1,8,-1
 1307 -106 l 1,9,-1
 1266 -29 l 1,10,11
 1175 -67 1175 -67 1080.5 -81.5 c 128,-1,12
 986 -96 986 -96 901 -96 c 0,13,14
 722 -96 722 -96 573 -45 c 128,-1,15
 424 6 424 6 310 108 c 128,-1,16
 196 210 196 210 119.5 363.5 c 128,-1,17
 43 517 43 517 10 721 c 1,18,19
 33 713 33 713 59 706 c 128,-1,20
 85 699 85 699 111 694 c 1,21,22
 129 897 129 897 217 1050.5 c 128,-1,23
 305 1204 305 1204 445.5 1307.5 c 128,-1,24
 586 1411 586 1411 770.5 1463.5 c 128,-1,25
 955 1516 955 1516 1167 1516 c 0,26,27
 1264 1516 1264 1516 1374.5 1506 c 128,-1,28
 1485 1496 1485 1496 1612 1473 c 1,29,30
 1583 1382 1583 1382 1568.5 1290.5 c 128,-1,31
 1554 1199 1554 1199 1554 1108 c 0,32,33
 1554 1012 1554 1012 1569 918 c 1,34,35
 1510 962 1510 962 1451 991.5 c 128,-1,36
 1392 1021 1392 1021 1335.5 1038.5 c 128,-1,37
 1279 1056 1279 1056 1225 1063.5 c 128,-1,38
 1171 1071 1171 1071 1122 1071 c 0,39,40
 1029 1071 1029 1071 932 1046 c 128,-1,41
 835 1021 835 1021 748.5 972.5 c 128,-1,42
 662 924 662 924 593.5 853.5 c 128,-1,43
 525 783 525 783 489 692 c 1,44,45
 530 698 530 698 567 706.5 c 128,-1,46
 604 715 604 715 641 727 c 1,47,48
 635 683 635 683 635 645 c 0,49,50
 635 545 635 545 669 471 c 128,-1,51
 703 397 703 397 763 348.5 c 128,-1,52
 823 300 823 300 904.5 276 c 128,-1,53
 986 252 986 252 1081 252 c 0,54,55
 1097 252 1097 252 1113 252 c 128,-1,56
 1129 252 1129 252 1145 254 c 1,57,58
 1105 366 1105 366 1079 479 c 128,-1,59
 1053 592 1053 592 1034 721 c 1,60,61
 1082 712 1082 712 1128 707 c 128,-1,62
 1174 702 1174 702 1219 702 c 0,63,64
 1316 702 1316 702 1408 723 c 128,-1,65
 1500 744 1500 744 1597 784 c 1,66,67
 1549 596 1549 596 1534 416 c 1,68,69
 1559 433 1559 433 1582.5 452.5 c 128,-1,70
 1606 472 1606 472 1632 494 c 1,0,1
EndSplineSet
EndChar

StartChar: H
Encoding: 72 72 72
Width: 1808
Flags: W
LayerCount: 2
Fore
SplineSet
668 -37 m 1,0,1
 586 -17 586 -17 508.5 -7.5 c 128,-1,2
 431 2 431 2 352 2 c 0,3,4
 275 2 275 2 196.5 -7.5 c 128,-1,5
 118 -17 118 -17 33 -37 c 1,6,7
 119 181 119 181 165 405.5 c 128,-1,8
 211 630 211 630 211 868 c 0,9,10
 211 1012 211 1012 193.5 1157.5 c 128,-1,11
 176 1303 176 1303 139 1456 c 1,12,13
 205 1437 205 1437 268.5 1421.5 c 128,-1,14
 332 1406 332 1406 396.5 1394.5 c 128,-1,15
 461 1383 461 1383 528 1377 c 128,-1,16
 595 1371 595 1371 668 1370 c 1,17,18
 674 1208 674 1208 677 1049 c 128,-1,19
 680 890 680 890 682 729 c 1,20,21
 781 738 781 738 876 750.5 c 128,-1,22
 971 763 971 763 1067 778 c 1,23,24
 1079 962 1079 962 1106 1145.5 c 128,-1,25
 1133 1329 1133 1329 1180 1518 c 1,26,27
 1237 1494 1237 1494 1290.5 1477 c 128,-1,28
 1344 1460 1344 1460 1399 1448.5 c 128,-1,29
 1454 1437 1454 1437 1513 1432 c 128,-1,30
 1572 1427 1572 1427 1640 1427 c 0,31,32
 1654 1427 1654 1427 1669 1428.5 c 128,-1,33
 1684 1430 1684 1430 1700 1430 c 1,34,35
 1634 1292 1634 1292 1590 1152 c 128,-1,36
 1546 1012 1546 1012 1528 866 c 1,37,38
 1579 877 1579 877 1630.5 890.5 c 128,-1,39
 1682 904 1682 904 1735 918 c 1,40,41
 1724 846 1724 846 1719 777 c 128,-1,42
 1714 708 1714 708 1714 637 c 256,43,44
 1714 566 1714 566 1719 494.5 c 128,-1,45
 1724 423 1724 423 1735 352 c 1,46,47
 1681 354 1681 354 1630 357 c 128,-1,48
 1579 360 1579 360 1528 365 c 1,49,50
 1540 272 1540 272 1560.5 180 c 128,-1,51
 1581 88 1581 88 1612 -8 c 1,52,53
 1575 -5 1575 -5 1542 -3.5 c 128,-1,54
 1509 -2 1509 -2 1477 -2 c 0,55,56
 1424 -2 1424 -2 1375 -6.5 c 128,-1,57
 1326 -11 1326 -11 1278 -19.5 c 128,-1,58
 1230 -28 1230 -28 1181.5 -40.5 c 128,-1,59
 1133 -53 1133 -53 1081 -70 c 1,60,61
 1069 60 1069 60 1063 187.5 c 128,-1,62
 1057 315 1057 315 1057 446 c 1,63,64
 961 471 961 471 868 501.5 c 128,-1,65
 775 532 775 532 682 567 c 1,66,67
 680 416 680 416 677 265.5 c 128,-1,68
 674 115 674 115 668 -37 c 1,0,1
EndSplineSet
EndChar

StartChar: I
Encoding: 73 73 73
Width: 750
Flags: W
LayerCount: 2
Fore
SplineSet
653 1491 m 1,0,1
 621 1282 621 1282 604.5 1068.5 c 128,-1,2
 588 855 588 855 588 637 c 0,3,4
 588 473 588 473 597.5 312.5 c 128,-1,5
 607 152 607 152 627 -6 c 1,6,7
 585 -3 585 -3 545 -0.5 c 128,-1,8
 505 2 505 2 467 2 c 0,9,10
 374 2 374 2 282 -8.5 c 128,-1,11
 190 -19 190 -19 88 -41 c 1,12,13
 120 136 120 136 139 318.5 c 128,-1,14
 158 501 158 501 158 690 c 0,15,16
 158 852 158 852 143 1012 c 128,-1,17
 128 1172 128 1172 96 1331 c 1,18,19
 167 1340 167 1340 234.5 1354 c 128,-1,20
 302 1368 302 1368 370 1388 c 128,-1,21
 438 1408 438 1408 508 1433.5 c 128,-1,22
 578 1459 578 1459 653 1491 c 1,0,1
EndSplineSet
EndChar

StartChar: J
Encoding: 74 74 74
Width: 1337
Flags: W
LayerCount: 2
Fore
SplineSet
1339 539 m 1,0,1
 1166 242 1166 242 848 73 c 128,-1,2
 530 -96 530 -96 51 -131 c 1,3,4
 51 -54 51 -54 50 14 c 128,-1,5
 49 82 49 82 40 148 c 128,-1,6
 31 214 31 214 11.5 281.5 c 128,-1,7
 -8 349 -8 349 -45 424 c 1,8,9
 97 379 97 379 234.5 357.5 c 128,-1,10
 372 336 372 336 508 336 c 0,11,12
 574 336 574 336 640.5 340.5 c 128,-1,13
 707 345 707 345 772 356 c 1,14,15
 761 504 761 504 744 657 c 128,-1,16
 727 810 727 810 703 961.5 c 128,-1,17
 679 1113 679 1113 649 1262 c 128,-1,18
 619 1411 619 1411 582 1552 c 1,19,20
 731 1494 731 1494 877.5 1455.5 c 128,-1,21
 1024 1417 1024 1417 1169 1417 c 0,22,23
 1183 1417 1183 1417 1197 1417 c 128,-1,24
 1211 1417 1211 1417 1225 1419 c 1,25,26
 1194 1240 1194 1240 1176.5 1061 c 128,-1,27
 1159 882 1159 882 1159 698 c 0,28,29
 1159 649 1159 649 1160 586 c 128,-1,30
 1161 523 1161 523 1163 461 c 1,31,32
 1208 478 1208 478 1251 497.5 c 128,-1,33
 1294 517 1294 517 1339 539 c 1,0,1
EndSplineSet
EndChar

StartChar: K
Encoding: 75 75 75
Width: 1700
Flags: W
LayerCount: 2
Fore
SplineSet
682 1430 m 1,0,1
 657 1261 657 1261 644.5 1094.5 c 128,-1,2
 632 928 632 928 629 760 c 1,3,4
 812 913 812 913 964.5 1100.5 c 128,-1,5
 1117 1288 1117 1288 1247 1507 c 1,6,7
 1343 1396 1343 1396 1467 1311 c 128,-1,8
 1591 1226 1591 1226 1741 1163 c 1,9,10
 1591 1035 1591 1035 1428 927.5 c 128,-1,11
 1265 820 1265 820 1094 741 c 1,12,13
 1203 558 1203 558 1350.5 397.5 c 128,-1,14
 1498 237 1498 237 1671 88 c 1,15,16
 1357 20 1357 20 1106 -123 c 1,17,18
 1027 86 1027 86 910.5 264.5 c 128,-1,19
 794 443 794 443 629 590 c 1,20,21
 629 441 629 441 635 295 c 128,-1,22
 641 149 641 149 655 0 c 1,23,24
 574 -5 574 -5 498 -14.5 c 128,-1,25
 422 -24 422 -24 346.5 -39.5 c 128,-1,26
 271 -55 271 -55 195 -76 c 128,-1,27
 119 -97 119 -97 39 -123 c 1,28,29
 201 402 201 402 201 942 c 0,30,31
 201 1209 201 1209 162 1481 c 1,32,33
 256 1450 256 1450 343.5 1434.5 c 128,-1,34
 431 1419 431 1419 524 1419 c 0,35,36
 562 1419 562 1419 601 1421 c 128,-1,37
 640 1423 640 1423 682 1430 c 1,0,1
EndSplineSet
EndChar

StartChar: L
Encoding: 76 76 76
Width: 1440
Flags: W
LayerCount: 2
Fore
SplineSet
1452 -8 m 1,0,1
 1282 18 1282 18 1113.5 31.5 c 128,-1,2
 945 45 945 45 772 45 c 0,3,4
 579 45 579 45 385.5 28 c 128,-1,5
 192 11 192 11 -4 -27 c 1,6,7
 45 11 45 11 94.5 47 c 128,-1,8
 144 83 144 83 197 115 c 1,9,10
 220 251 220 251 231 383 c 128,-1,11
 242 515 242 515 242 649 c 0,12,13
 242 848 242 848 219 1042.5 c 128,-1,14
 196 1237 196 1237 156 1430 c 1,15,16
 177 1428 177 1428 199.5 1427.5 c 128,-1,17
 222 1427 222 1427 244 1427 c 0,18,19
 371 1427 371 1427 493 1443.5 c 128,-1,20
 615 1460 615 1460 737 1491 c 1,21,22
 737 1202 737 1202 708.5 914.5 c 128,-1,23
 680 627 680 627 614 340 c 1,24,25
 801 422 801 422 998 480 c 128,-1,26
 1195 538 1195 538 1407 573 c 1,27,28
 1395 472 1395 472 1395 375 c 256,29,30
 1395 278 1395 278 1408 182 c 128,-1,31
 1421 86 1421 86 1452 -8 c 1,0,1
EndSplineSet
EndChar

StartChar: M
Encoding: 77 77 77
Width: 2204
Flags: W
LayerCount: 2
Fore
SplineSet
2058 1425 m 1,0,1
 2015 1328 2015 1328 1985 1239 c 128,-1,2
 1955 1150 1955 1150 1936.5 1067.5 c 128,-1,3
 1918 985 1918 985 1909.5 909.5 c 128,-1,4
 1901 834 1901 834 1901 764 c 0,5,6
 1901 631 1901 631 1928 519.5 c 128,-1,7
 1955 408 1955 408 1998 315.5 c 128,-1,8
 2041 223 2041 223 2095 148 c 128,-1,9
 2149 73 2149 73 2202 14 c 1,10,11
 2160 19 2160 19 2122 22 c 128,-1,12
 2084 25 2084 25 2050 25 c 0,13,14
 1998 25 1998 25 1951 19 c 128,-1,15
 1904 13 1904 13 1858 1.5 c 128,-1,16
 1812 -10 1812 -10 1765 -28 c 128,-1,17
 1718 -46 1718 -46 1665 -70 c 1,18,19
 1608 92 1608 92 1575.5 257.5 c 128,-1,20
 1543 423 1543 423 1534 594 c 1,21,22
 1462 451 1462 451 1412 296 c 128,-1,23
 1362 141 1362 141 1343 -37 c 1,24,25
 1331 -37 1331 -37 1290 -38 c 128,-1,26
 1249 -39 1249 -39 1191.5 -44 c 128,-1,27
 1134 -49 1134 -49 1067.5 -59.5 c 128,-1,28
 1001 -70 1001 -70 938 -90 c 1,29,30
 921 103 921 103 873 268.5 c 128,-1,31
 825 434 825 434 750 584 c 1,32,33
 730 246 730 246 621 -70 c 1,34,35
 410 25 410 25 168 25 c 0,36,37
 128 25 128 25 87 22 c 128,-1,38
 46 19 46 19 4 14 c 1,39,40
 184 204 184 204 278.5 439 c 128,-1,41
 373 674 373 674 373 956 c 0,42,43
 373 1028 373 1028 367 1102 c 1,44,45
 280 1190 280 1190 184 1276 c 128,-1,46
 88 1362 88 1362 -20 1452 c 1,47,48
 -2 1447 -2 1447 26 1439.5 c 128,-1,49
 54 1432 54 1432 92 1425 c 128,-1,50
 130 1418 130 1418 176 1413.5 c 128,-1,51
 222 1409 222 1409 276 1409 c 0,52,53
 372 1409 372 1409 487.5 1430 c 128,-1,54
 603 1451 603 1451 733 1509 c 1,55,56
 808 1375 808 1375 882 1212 c 0,57,58
 913 1143 913 1143 947.5 1060 c 128,-1,59
 982 977 982 977 1016 883.5 c 128,-1,60
 1050 790 1050 790 1082.5 687 c 128,-1,61
 1115 584 1115 584 1143 473 c 1,62,63
 1201 636 1201 636 1253.5 776 c 128,-1,64
 1306 916 1306 916 1351 1043.5 c 128,-1,65
 1396 1171 1396 1171 1431.5 1291 c 128,-1,66
 1467 1411 1467 1411 1491 1536 c 1,67,68
 1561 1494 1561 1494 1641 1471.5 c 128,-1,69
 1721 1449 1721 1449 1798 1438.5 c 128,-1,70
 1875 1428 1875 1428 1943.5 1426.5 c 128,-1,71
 2012 1425 2012 1425 2058 1425 c 1,0,1
EndSplineSet
EndChar

StartChar: N
Encoding: 78 78 78
Width: 1835
Flags: W
LayerCount: 2
Fore
SplineSet
1870 1378 m 1,0,1
 1726 1198 1726 1198 1651.5 994 c 128,-1,2
 1577 790 1577 790 1577 555 c 0,3,4
 1577 434 1577 434 1597 306.5 c 128,-1,5
 1617 179 1617 179 1659 43 c 1,6,7
 1576 40 1576 40 1490 27 c 0,8,9
 1416 16 1416 16 1327 -8 c 128,-1,10
 1238 -32 1238 -32 1153 -76 c 1,11,12
 1124 9 1124 9 1089 87.5 c 128,-1,13
 1054 166 1054 166 1017 236 c 128,-1,14
 980 306 980 306 942.5 367 c 128,-1,15
 905 428 905 428 871 479 c 0,16,17
 790 598 790 598 707 692 c 0,18,19
 706 693 706 693 704 696 c 0,20,21
 702 698 702 698 700 700.5 c 128,-1,22
 698 703 698 703 696 707 c 1,23,24
 702 620 702 620 702 537 c 0,25,26
 702 231 702 231 623 -66 c 1,27,28
 449 -4 449 -4 264 -4 c 0,29,30
 205 -4 205 -4 144.5 -10 c 128,-1,31
 84 -16 84 -16 23 -29 c 1,32,33
 166 149 166 149 240.5 353 c 128,-1,34
 315 557 315 557 315 797 c 0,35,36
 315 877 315 877 306.5 961 c 128,-1,37
 298 1045 298 1045 281 1133 c 1,38,39
 216 1187 216 1187 141 1243 c 128,-1,40
 66 1299 66 1299 -20 1358 c 1,41,42
 73 1345 73 1345 158.5 1347 c 128,-1,43
 244 1349 244 1349 328 1366.5 c 128,-1,44
 412 1384 412 1384 498 1416 c 128,-1,45
 584 1448 584 1448 678 1495 c 1,46,-1
 1212 535 l 1,47,48
 1198 624 1198 624 1191 710 c 128,-1,49
 1184 796 1184 796 1184 881 c 0,50,51
 1184 1066 1184 1066 1220.5 1238 c 128,-1,52
 1257 1410 1257 1410 1337 1569 c 1,53,54
 1576 1400 1576 1400 1870 1378 c 1,0,1
EndSplineSet
EndChar

StartChar: O
Encoding: 79 79 79
Width: 1866
Flags: W
LayerCount: 2
Fore
SplineSet
1446 1452 m 1,0,1
 1406 1417 1406 1417 1370.5 1379.5 c 128,-1,2
 1335 1342 1335 1342 1303 1300 c 1,3,4
 1408 1279 1408 1279 1501.5 1230 c 128,-1,5
 1595 1181 1595 1181 1665 1106 c 128,-1,6
 1735 1031 1735 1031 1776 930.5 c 128,-1,7
 1817 830 1817 830 1817 707 c 0,8,9
 1817 570 1817 570 1776.5 458.5 c 128,-1,10
 1736 347 1736 347 1664 260.5 c 128,-1,11
 1592 174 1592 174 1494 111 c 128,-1,12
 1396 48 1396 48 1281 6.5 c 128,-1,13
 1166 -35 1166 -35 1039.5 -54.5 c 128,-1,14
 913 -74 913 -74 784 -74 c 0,15,16
 739 -74 739 -74 690 -72.5 c 128,-1,17
 641 -71 641 -71 595.5 -67.5 c 128,-1,18
 550 -64 550 -64 510.5 -57.5 c 128,-1,19
 471 -51 471 -51 446 -41 c 1,20,21
 481 -12 481 -12 510 18 c 128,-1,22
 539 48 539 48 565 80 c 1,23,24
 460 101 460 101 366 146 c 128,-1,25
 272 191 272 191 201.5 260.5 c 128,-1,26
 131 330 131 330 90 426 c 128,-1,27
 49 522 49 522 49 647 c 0,28,29
 49 792 49 792 96.5 909.5 c 128,-1,30
 144 1027 144 1027 226.5 1117.5 c 128,-1,31
 309 1208 309 1208 420 1273.5 c 128,-1,32
 531 1339 531 1339 659 1381.5 c 128,-1,33
 787 1424 787 1424 925.5 1444 c 128,-1,34
 1064 1464 1064 1464 1200 1464 c 0,35,36
 1259 1464 1259 1464 1319.5 1461 c 128,-1,37
 1380 1458 1380 1458 1446 1452 c 1,0,1
1368 793 m 0,38,39
 1368 851 1368 851 1354 897.5 c 128,-1,40
 1340 944 1340 944 1315 981 c 128,-1,41
 1290 1018 1290 1018 1255.5 1045 c 128,-1,42
 1221 1072 1221 1072 1180 1092 c 1,43,44
 1164 1056 1164 1056 1151.5 1020 c 128,-1,45
 1139 984 1139 984 1128 946 c 1,46,47
 1070 966 1070 966 1019.5 973.5 c 128,-1,48
 969 981 969 981 926 981 c 0,49,50
 851 981 851 981 774 954.5 c 128,-1,51
 697 928 697 928 635.5 878 c 128,-1,52
 574 828 574 828 535 757 c 128,-1,53
 496 686 496 686 496 598 c 0,54,55
 496 553 496 553 509.5 510.5 c 128,-1,56
 523 468 523 468 547.5 429 c 128,-1,57
 572 390 572 390 605.5 354.5 c 128,-1,58
 639 319 639 319 678 287 c 1,59,60
 692 329 692 329 699.5 370.5 c 128,-1,61
 707 412 707 412 709 459 c 1,62,63
 775 425 775 425 835.5 412 c 128,-1,64
 896 399 896 399 948 399 c 0,65,66
 1026 399 1026 399 1101.5 426 c 128,-1,67
 1177 453 1177 453 1236.5 504 c 128,-1,68
 1296 555 1296 555 1332 628 c 128,-1,69
 1368 701 1368 701 1368 793 c 0,38,39
EndSplineSet
EndChar

StartChar: P
Encoding: 80 80 80
Width: 1720
Flags: W
LayerCount: 2
Fore
SplineSet
1755 1217 m 1,0,1
 1739 1109 1739 1109 1697.5 1002 c 128,-1,2
 1656 895 1656 895 1593.5 797.5 c 128,-1,3
 1531 700 1531 700 1449.5 616.5 c 128,-1,4
 1368 533 1368 533 1271.5 471.5 c 128,-1,5
 1175 410 1175 410 1065.5 375 c 128,-1,6
 956 340 956 340 838 340 c 0,7,8
 786 340 786 340 737 346 c 1,9,10
 739 249 739 249 742 152.5 c 128,-1,11
 745 56 745 56 750 -41 c 1,12,13
 722 -38 722 -38 693 -35.5 c 128,-1,14
 664 -33 664 -33 633 -33 c 0,15,16
 518 -33 518 -33 390.5 -59.5 c 128,-1,17
 263 -86 263 -86 123 -135 c 1,18,19
 179 30 179 30 219.5 196 c 128,-1,20
 260 362 260 362 285 532 c 1,21,22
 206 586 206 586 151.5 640 c 128,-1,23
 97 694 97 694 70 729 c 1,24,25
 124 712 124 712 182.5 698 c 128,-1,26
 241 684 241 684 301 672 c 1,27,28
 309 747 309 747 313 821 c 128,-1,29
 317 895 317 895 317 971 c 2,30,-1
 317 1030 l 1,31,32
 256 1010 256 1010 196 987 c 128,-1,33
 136 964 136 964 80 936 c 1,34,35
 95 992 95 992 103 1045 c 128,-1,36
 111 1098 111 1098 111 1149 c 0,37,38
 111 1236 111 1236 89 1316 c 128,-1,39
 67 1396 67 1396 27 1470 c 1,40,41
 260 1506 260 1506 445.5 1519 c 128,-1,42
 631 1532 631 1532 776 1532 c 0,43,44
 844 1532 844 1532 930.5 1528.5 c 128,-1,45
 1017 1525 1017 1525 1108.5 1512.5 c 128,-1,46
 1200 1500 1200 1500 1290 1476 c 128,-1,47
 1380 1452 1380 1452 1455 1409.5 c 128,-1,48
 1530 1367 1530 1367 1583.5 1304.5 c 128,-1,49
 1637 1242 1637 1242 1655 1153 c 1,50,-1
 1655 1149 l 1,51,52
 1681 1164 1681 1164 1705.5 1180.5 c 128,-1,53
 1730 1197 1730 1197 1755 1217 c 1,0,1
1014 1149 m 0,54,55
 961 1149 961 1149 896 1144 c 128,-1,56
 831 1139 831 1139 748 1128 c 1,57,58
 743 1008 743 1008 740 889 c 128,-1,59
 737 770 737 770 737 651 c 1,60,61
 815 661 815 661 883 685 c 128,-1,62
 951 709 951 709 1003.5 751 c 128,-1,63
 1056 793 1056 793 1090.5 854.5 c 128,-1,64
 1125 916 1125 916 1135 1001 c 1,65,66
 1178 1009 1178 1009 1220.5 1016 c 128,-1,67
 1263 1023 1263 1023 1307 1032 c 1,68,-1
 1307 1034 l 1,69,70
 1284 1062 1284 1062 1259 1083.5 c 128,-1,71
 1234 1105 1234 1105 1201 1119.5 c 128,-1,72
 1168 1134 1168 1134 1123 1141.5 c 128,-1,73
 1078 1149 1078 1149 1014 1149 c 0,54,55
EndSplineSet
EndChar

StartChar: Q
Encoding: 81 81 81
Width: 1868
Flags: W
LayerCount: 2
Fore
SplineSet
1446 1452 m 1,0,1
 1406 1417 1406 1417 1370.5 1379.5 c 128,-1,2
 1335 1342 1335 1342 1303 1300 c 1,3,4
 1408 1279 1408 1279 1501.5 1230 c 128,-1,5
 1595 1181 1595 1181 1665 1106 c 128,-1,6
 1735 1031 1735 1031 1776 930.5 c 128,-1,7
 1817 830 1817 830 1817 707 c 0,8,9
 1817 566 1817 566 1774 453 c 128,-1,10
 1731 340 1731 340 1656 252.5 c 128,-1,11
 1581 165 1581 165 1479 102.5 c 128,-1,12
 1377 40 1377 40 1260 0 c 1,13,14
 1374 -38 1374 -38 1497 -64 c 128,-1,15
 1620 -90 1620 -90 1741 -96 c 0,16,17
 1742 -96 1742 -96 1722.5 -105 c 128,-1,18
 1703 -114 1703 -114 1670 -134 c 128,-1,19
 1637 -154 1637 -154 1595 -184.5 c 128,-1,20
 1553 -215 1553 -215 1509.5 -258 c 128,-1,21
 1466 -301 1466 -301 1425 -357 c 128,-1,22
 1384 -413 1384 -413 1354 -483 c 1,23,24
 1291 -439 1291 -439 1225 -377 c 0,25,26
 1168 -323 1168 -323 1101 -245 c 128,-1,27
 1034 -167 1034 -167 971 -61 c 1,28,29
 924 -68 924 -68 877.5 -71 c 128,-1,30
 831 -74 831 -74 784 -74 c 0,31,32
 739 -74 739 -74 690 -72.5 c 128,-1,33
 641 -71 641 -71 595.5 -67.5 c 128,-1,34
 550 -64 550 -64 510.5 -57.5 c 128,-1,35
 471 -51 471 -51 446 -41 c 1,36,37
 481 -12 481 -12 510 18 c 128,-1,38
 539 48 539 48 565 80 c 1,39,40
 460 101 460 101 366 146 c 128,-1,41
 272 191 272 191 201.5 260.5 c 128,-1,42
 131 330 131 330 90 426 c 128,-1,43
 49 522 49 522 49 647 c 0,44,45
 49 792 49 792 96.5 909.5 c 128,-1,46
 144 1027 144 1027 226.5 1117.5 c 128,-1,47
 309 1208 309 1208 420 1273.5 c 128,-1,48
 531 1339 531 1339 659 1381.5 c 128,-1,49
 787 1424 787 1424 925.5 1444 c 128,-1,50
 1064 1464 1064 1464 1200 1464 c 0,51,52
 1259 1464 1259 1464 1319.5 1461 c 128,-1,53
 1380 1458 1380 1458 1446 1452 c 1,0,1
1368 793 m 0,54,55
 1368 836 1368 836 1357 879 c 128,-1,56
 1346 922 1346 922 1323 961 c 128,-1,57
 1300 1000 1300 1000 1264.5 1034 c 128,-1,58
 1229 1068 1229 1068 1180 1094 c 1,59,60
 1164 1059 1164 1059 1151.5 1021.5 c 128,-1,61
 1139 984 1139 984 1128 946 c 1,62,63
 1070 966 1070 966 1019.5 973.5 c 128,-1,64
 969 981 969 981 926 981 c 0,65,66
 851 981 851 981 774 954.5 c 128,-1,67
 697 928 697 928 635.5 878 c 128,-1,68
 574 828 574 828 535 757 c 128,-1,69
 496 686 496 686 496 598 c 0,70,71
 496 553 496 553 509.5 510.5 c 128,-1,72
 523 468 523 468 547.5 429 c 128,-1,73
 572 390 572 390 605.5 354.5 c 128,-1,74
 639 319 639 319 678 287 c 1,75,76
 692 329 692 329 699.5 370.5 c 128,-1,77
 707 412 707 412 709 459 c 1,78,79
 775 425 775 425 835.5 412 c 128,-1,80
 896 399 896 399 948 399 c 0,81,82
 1026 399 1026 399 1101.5 426 c 128,-1,83
 1177 453 1177 453 1236.5 504 c 128,-1,84
 1296 555 1296 555 1332 628 c 128,-1,85
 1368 701 1368 701 1368 793 c 0,54,55
EndSplineSet
EndChar

StartChar: R
Encoding: 82 82 82
Width: 1778
Flags: W
LayerCount: 2
Fore
SplineSet
1767 66 m 1,0,1
 1608 53 1608 53 1458.5 8 c 128,-1,2
 1309 -37 1309 -37 1165 -115 c 1,3,4
 1154 12 1154 12 1123 132.5 c 128,-1,5
 1092 253 1092 253 1042 369 c 1,6,7
 943 340 943 340 838 340 c 0,8,9
 786 340 786 340 737 346 c 1,10,11
 739 249 739 249 742 152.5 c 128,-1,12
 745 56 745 56 750 -41 c 1,13,14
 722 -38 722 -38 693 -35.5 c 128,-1,15
 664 -33 664 -33 633 -33 c 0,16,17
 518 -33 518 -33 390.5 -59.5 c 128,-1,18
 263 -86 263 -86 123 -135 c 1,19,20
 179 30 179 30 219.5 196 c 128,-1,21
 260 362 260 362 285 532 c 1,22,23
 206 586 206 586 151.5 640 c 128,-1,24
 97 694 97 694 70 729 c 1,25,26
 124 712 124 712 182.5 698 c 128,-1,27
 241 684 241 684 301 672 c 1,28,29
 309 747 309 747 313 821 c 128,-1,30
 317 895 317 895 317 971 c 2,31,-1
 317 1030 l 1,32,33
 256 1010 256 1010 196 987 c 128,-1,34
 136 964 136 964 80 936 c 1,35,36
 95 992 95 992 103 1045 c 128,-1,37
 111 1098 111 1098 111 1149 c 0,38,39
 111 1236 111 1236 89 1316 c 128,-1,40
 67 1396 67 1396 27 1470 c 1,41,42
 260 1506 260 1506 445.5 1519 c 128,-1,43
 631 1532 631 1532 776 1532 c 0,44,45
 844 1532 844 1532 930.5 1528.5 c 128,-1,46
 1017 1525 1017 1525 1108.5 1512.5 c 128,-1,47
 1200 1500 1200 1500 1290 1476 c 128,-1,48
 1380 1452 1380 1452 1455 1409.5 c 128,-1,49
 1530 1367 1530 1367 1583.5 1304.5 c 128,-1,50
 1637 1242 1637 1242 1655 1153 c 1,51,-1
 1655 1149 l 1,52,53
 1681 1164 1681 1164 1705.5 1180.5 c 128,-1,54
 1730 1197 1730 1197 1755 1217 c 1,55,56
 1741 1126 1741 1126 1710 1036 c 128,-1,57
 1679 946 1679 946 1632.5 862 c 128,-1,58
 1586 778 1586 778 1525.5 702 c 128,-1,59
 1465 626 1465 626 1393 563 c 1,60,61
 1546 293 1546 293 1767 66 c 1,0,1
1014 1149 m 0,62,63
 961 1149 961 1149 896 1144 c 128,-1,64
 831 1139 831 1139 748 1128 c 1,65,66
 743 1008 743 1008 740 889 c 128,-1,67
 737 770 737 770 737 651 c 1,68,69
 815 661 815 661 883 685 c 128,-1,70
 951 709 951 709 1003.5 751 c 128,-1,71
 1056 793 1056 793 1090.5 854.5 c 128,-1,72
 1125 916 1125 916 1135 1001 c 1,73,74
 1178 1009 1178 1009 1220.5 1016 c 128,-1,75
 1263 1023 1263 1023 1307 1032 c 1,76,-1
 1307 1034 l 1,77,78
 1284 1062 1284 1062 1259 1083.5 c 128,-1,79
 1234 1105 1234 1105 1201 1119.5 c 128,-1,80
 1168 1134 1168 1134 1123 1141.5 c 128,-1,81
 1078 1149 1078 1149 1014 1149 c 0,62,63
EndSplineSet
EndChar

StartChar: S
Encoding: 83 83 83
Width: 1667
Flags: W
LayerCount: 2
Fore
SplineSet
1628 684 m 1,0,1
 1631 662 1631 662 1631.5 641 c 128,-1,2
 1632 620 1632 620 1632 600 c 0,3,4
 1632 495 1632 495 1599.5 403 c 128,-1,5
 1567 311 1567 311 1510 234 c 128,-1,6
 1453 157 1453 157 1375.5 96 c 128,-1,7
 1298 35 1298 35 1207 -7 c 128,-1,8
 1116 -49 1116 -49 1016.5 -71.5 c 128,-1,9
 917 -94 917 -94 817 -94 c 0,10,11
 723 -94 723 -94 636 -86 c 128,-1,12
 549 -78 549 -78 471 -78 c 0,13,14
 411 -78 411 -78 358 -86.5 c 128,-1,15
 305 -95 305 -95 260 -121 c 1,16,17
 223 16 223 16 181.5 127.5 c 128,-1,18
 140 239 140 239 105 318 c 0,19,20
 64 410 64 410 23 483 c 1,21,22
 142 421 142 421 261.5 385 c 128,-1,23
 381 349 381 349 489 329.5 c 128,-1,24
 597 310 597 310 686 304.5 c 128,-1,25
 775 299 775 299 834 299 c 0,26,27
 900 299 900 299 967 307 c 128,-1,28
 1034 315 1034 315 1102 332 c 1,29,30
 1085 355 1085 355 1067 373 c 128,-1,31
 1049 391 1049 391 1034 402 c 0,32,33
 1016 415 1016 415 999 424 c 0,34,35
 970 438 970 438 920.5 451.5 c 128,-1,36
 871 465 871 465 810.5 481 c 128,-1,37
 750 497 750 497 681.5 516 c 128,-1,38
 613 535 613 535 545.5 560 c 128,-1,39
 478 585 478 585 416.5 617 c 128,-1,40
 355 649 355 649 307 690 c 0,41,42
 269 723 269 723 244 761.5 c 128,-1,43
 219 800 219 800 204.5 840.5 c 128,-1,44
 190 881 190 881 183.5 921.5 c 128,-1,45
 177 962 177 962 176 999 c 1,46,47
 141 985 141 985 113 972 c 128,-1,48
 85 959 85 959 65 950 c 2,49,-1
 25 930 l 1,50,51
 61 1038 61 1038 125.5 1121 c 128,-1,52
 190 1204 190 1204 270.5 1265 c 128,-1,53
 351 1326 351 1326 442.5 1368 c 128,-1,54
 534 1410 534 1410 624 1437 c 0,55,56
 834 1500 834 1500 1079 1509 c 1,57,58
 1155 1509 1155 1509 1241 1515 c 0,59,60
 1315 1520 1315 1520 1410 1530.5 c 128,-1,61
 1505 1541 1505 1541 1610 1561 c 1,62,63
 1578 1513 1578 1513 1558.5 1457 c 128,-1,64
 1539 1401 1539 1401 1528 1344 c 128,-1,65
 1517 1287 1517 1287 1513 1231.5 c 128,-1,66
 1509 1176 1509 1176 1509 1130 c 0,67,68
 1509 1099 1509 1099 1510 1074 c 128,-1,69
 1511 1049 1511 1049 1513 1031 c 0,70,71
 1515 1010 1515 1010 1518 993 c 1,72,73
 1343 1072 1343 1072 1177 1103.5 c 128,-1,74
 1011 1135 1011 1135 856 1135 c 0,75,76
 803 1135 803 1135 755 1131.5 c 128,-1,77
 707 1128 707 1128 659 1122 c 1,78,79
 670 1074 670 1074 698.5 1042 c 128,-1,80
 727 1010 727 1010 756 990 c 0,81,82
 790 967 790 967 829 954 c 0,83,84
 905 930 905 930 994 895.5 c 128,-1,85
 1083 861 1083 861 1172 810 c 128,-1,86
 1261 759 1261 759 1343 690 c 128,-1,87
 1425 621 1425 621 1487 530 c 1,88,89
 1525 562 1525 562 1561 600.5 c 128,-1,90
 1597 639 1597 639 1628 684 c 1,0,1
EndSplineSet
EndChar

StartChar: T
Encoding: 84 84 84
Width: 1403
Flags: W
LayerCount: 2
Fore
SplineSet
1057 6 m 1,0,1
 1037 6 1037 6 1017 7 c 128,-1,2
 997 8 997 8 977 8 c 0,3,4
 846 8 846 8 722 -10.5 c 128,-1,5
 598 -29 598 -29 479 -70 c 1,6,7
 477 -41 477 -41 477 -10.5 c 128,-1,8
 477 20 477 20 477 49 c 0,9,10
 477 335 477 335 515.5 597 c 128,-1,11
 554 859 554 859 637 1104 c 1,12,13
 473 1087 473 1087 312.5 1046.5 c 128,-1,14
 152 1006 152 1006 0 940 c 1,15,16
 37 1094 37 1094 37 1249 c 0,17,18
 37 1320 37 1320 29.5 1391.5 c 128,-1,19
 22 1463 22 1463 6 1532 c 1,20,21
 192 1490 192 1490 383 1462.5 c 128,-1,22
 574 1435 574 1435 772 1427 c 1,23,24
 800 1483 800 1483 830.5 1538 c 128,-1,25
 861 1593 861 1593 895 1647 c 1,26,27
 886 1536 886 1536 883 1425 c 1,28,-1
 913 1425 l 2,29,30
 1043 1425 1043 1425 1171 1435 c 128,-1,31
 1299 1445 1299 1445 1430 1468 c 1,32,33
 1407 1425 1407 1425 1390.5 1376 c 128,-1,34
 1374 1327 1374 1327 1374 1257 c 0,35,36
 1374 1217 1374 1217 1380.5 1169.5 c 128,-1,37
 1387 1122 1387 1122 1403 1063 c 1,38,39
 1290 1089 1290 1089 1163 1103.5 c 128,-1,40
 1036 1118 1036 1118 899 1118 c 2,41,-1
 883 1118 l 1,42,43
 891 837 891 837 931.5 560.5 c 128,-1,44
 972 284 972 284 1057 6 c 1,0,1
EndSplineSet
EndChar

StartChar: U
Encoding: 85 85 85
Width: 1788
Flags: W
LayerCount: 2
Fore
SplineSet
1733 1395 m 2,0,1
 1733 1045 1733 1045 1668 772.5 c 128,-1,2
 1603 500 1603 500 1474.5 313 c 128,-1,3
 1346 126 1346 126 1156 28 c 128,-1,4
 966 -70 966 -70 717 -70 c 0,5,6
 655 -70 655 -70 588 -60.5 c 128,-1,7
 521 -51 521 -51 449 -33 c 1,8,9
 463 -24 463 -24 479 -13 c 0,10,11
 493 -3 493 -3 511 11 c 128,-1,12
 529 25 529 25 549 43 c 1,13,14
 432 83 432 83 342.5 174.5 c 128,-1,15
 253 266 253 266 192.5 398 c 128,-1,16
 132 530 132 530 101 697.5 c 128,-1,17
 70 865 70 865 70 1057 c 0,18,19
 70 1102 70 1102 71.5 1139.5 c 128,-1,20
 73 1177 73 1177 76.5 1214.5 c 128,-1,21
 80 1252 80 1252 85 1292.5 c 128,-1,22
 90 1333 90 1333 98 1384 c 1,23,24
 200 1374 200 1374 307 1377 c 0,25,26
 353 1378 353 1378 404.5 1382 c 128,-1,27
 456 1386 456 1386 510.5 1395 c 128,-1,28
 565 1404 565 1404 620.5 1418.5 c 128,-1,29
 676 1433 676 1433 729 1454 c 1,30,31
 687 1350 687 1350 656 1262.5 c 128,-1,32
 625 1175 625 1175 604.5 1097.5 c 128,-1,33
 584 1020 584 1020 573.5 947.5 c 128,-1,34
 563 875 563 875 563 801 c 0,35,36
 563 657 563 657 601 534 c 128,-1,37
 639 411 639 411 717 315 c 1,38,39
 722 332 722 332 725 350.5 c 128,-1,40
 728 369 728 369 731 389 c 1,41,42
 757 381 757 381 783 378 c 128,-1,43
 809 375 809 375 834 375 c 0,44,45
 906 375 906 375 963 402 c 128,-1,46
 1020 429 1020 429 1062.5 475 c 128,-1,47
 1105 521 1105 521 1134.5 580.5 c 128,-1,48
 1164 640 1164 640 1182.5 705 c 128,-1,49
 1201 770 1201 770 1209 836 c 128,-1,50
 1217 902 1217 902 1217 961 c 0,51,52
 1217 1011 1217 1011 1205 1075 c 128,-1,53
 1193 1139 1193 1139 1173 1209 c 128,-1,54
 1153 1279 1153 1279 1126.5 1351.5 c 128,-1,55
 1100 1424 1100 1424 1071 1491 c 1,56,57
 1111 1478 1111 1478 1160.5 1467 c 128,-1,58
 1210 1456 1210 1456 1264.5 1448.5 c 128,-1,59
 1319 1441 1319 1441 1376 1436.5 c 128,-1,60
 1433 1432 1433 1432 1489 1432 c 0,61,62
 1561 1432 1561 1432 1624.5 1440 c 128,-1,63
 1688 1448 1688 1448 1733 1468 c 1,64,-1
 1733 1395 l 2,0,1
EndSplineSet
EndChar

StartChar: V
Encoding: 86 86 86
Width: 1630
Flags: W
LayerCount: 2
Fore
SplineSet
1696 1419 m 1,0,1
 1585 1264 1585 1264 1491 1098 c 128,-1,2
 1397 932 1397 932 1322 757 c 128,-1,3
 1247 582 1247 582 1193 398.5 c 128,-1,4
 1139 215 1139 215 1108 25 c 1,5,6
 1012 37 1012 37 922 37 c 0,7,8
 825 37 825 37 729 23 c 128,-1,9
 633 9 633 9 537 -18 c 1,10,11
 500 151 500 151 442 335.5 c 128,-1,12
 384 520 384 520 307.5 703.5 c 128,-1,13
 231 887 231 887 137 1060.5 c 128,-1,14
 43 1234 43 1234 -68 1380 c 1,15,16
 40 1368 40 1368 156 1368 c 0,17,18
 279 1368 279 1368 398.5 1387.5 c 128,-1,19
 518 1407 518 1407 618 1456 c 1,20,21
 629 1327 629 1327 642.5 1205.5 c 128,-1,22
 656 1084 656 1084 677 967 c 128,-1,23
 698 850 698 850 730.5 736 c 128,-1,24
 763 622 763 622 811 508 c 1,25,26
 920 734 920 734 968 963.5 c 128,-1,27
 1016 1193 1016 1193 1016 1430 c 1,28,29
 1201 1399 1201 1399 1386 1399 c 0,30,31
 1464 1399 1464 1399 1541 1404.5 c 128,-1,32
 1618 1410 1618 1410 1696 1419 c 1,0,1
EndSplineSet
EndChar

StartChar: W
Encoding: 87 87 87
Width: 2097
Flags: W
LayerCount: 2
Fore
SplineSet
2111 1382 m 1,0,1
 2032 1221 2032 1221 1973.5 1057.5 c 128,-1,2
 1915 894 1915 894 1876 726 c 128,-1,3
 1837 558 1837 558 1817.5 385.5 c 128,-1,4
 1798 213 1798 213 1798 33 c 1,5,6
 1662 19 1662 19 1532.5 -10.5 c 128,-1,7
 1403 -40 1403 -40 1276 -80 c 1,8,9
 1233 79 1233 79 1175.5 228 c 128,-1,10
 1118 377 1118 377 1034 514 c 1,11,12
 1014 462 1014 462 987.5 395 c 128,-1,13
 961 328 961 328 936.5 254.5 c 128,-1,14
 912 181 912 181 892 105 c 128,-1,15
 872 29 872 29 866 -41 c 1,16,17
 754 -6 754 -6 640.5 16.5 c 128,-1,18
 527 39 527 39 410 39 c 0,19,20
 353 39 353 39 295 33 c 1,21,22
 301 124 301 124 301 217 c 0,23,24
 301 527 301 527 218.5 818 c 128,-1,25
 136 1109 136 1109 -45 1376 c 1,26,27
 104 1384 104 1384 248.5 1407.5 c 128,-1,28
 393 1431 393 1431 537 1468 c 1,29,30
 574 1339 574 1339 604.5 1229 c 128,-1,31
 635 1119 635 1119 658.5 1010.5 c 128,-1,32
 682 902 682 902 698.5 785.5 c 128,-1,33
 715 669 715 669 725 528 c 1,34,35
 750 616 750 616 771.5 685.5 c 128,-1,36
 793 755 793 755 810 812.5 c 128,-1,37
 827 870 827 870 839.5 918.5 c 128,-1,38
 852 967 852 967 860.5 1013.5 c 128,-1,39
 869 1060 869 1060 873 1107.5 c 128,-1,40
 877 1155 877 1155 877 1210 c 0,41,42
 877 1229 877 1229 875.5 1249 c 128,-1,43
 874 1269 874 1269 874 1290 c 1,44,45
 922 1282 922 1282 971 1279 c 128,-1,46
 1020 1276 1020 1276 1071 1276 c 0,47,48
 1109 1276 1109 1276 1148 1277.5 c 128,-1,49
 1187 1279 1187 1279 1225 1284 c 1,50,51
 1225 1170 1225 1170 1237 1073.5 c 128,-1,52
 1249 977 1249 977 1271 891.5 c 128,-1,53
 1293 806 1293 806 1324.5 728.5 c 128,-1,54
 1356 651 1356 651 1395 575 c 1,55,56
 1426 686 1426 686 1447 793.5 c 128,-1,57
 1468 901 1468 901 1481.5 1013 c 128,-1,58
 1495 1125 1495 1125 1502 1243.5 c 128,-1,59
 1509 1362 1509 1362 1513 1495 c 1,60,61
 1791 1382 1791 1382 2111 1382 c 1,0,1
EndSplineSet
EndChar

StartChar: X
Encoding: 88 88 88
Width: 1786
Flags: W
LayerCount: 2
Fore
SplineSet
1839 1401 m 1,0,1
 1668 1236 1668 1236 1502 1066.5 c 128,-1,2
 1336 897 1336 897 1171 715 c 1,3,4
 1315 548 1315 548 1467 392.5 c 128,-1,5
 1619 237 1619 237 1780 84 c 1,6,7
 1605 84 1605 84 1459 57 c 128,-1,8
 1313 30 1313 30 1182 -23 c 1,9,10
 1114 87 1114 87 1042 190 c 128,-1,11
 970 293 970 293 895 393 c 1,12,13
 813 293 813 293 732.5 190.5 c 128,-1,14
 652 88 652 88 573 -18 c 1,15,16
 505 -10 505 -10 437.5 -7 c 128,-1,17
 370 -4 370 -4 299 -4 c 0,18,19
 211 -4 211 -4 121 -10 c 128,-1,20
 31 -16 31 -16 -63 -29 c 1,21,22
 126 151 126 151 301.5 333 c 128,-1,23
 477 515 477 515 641 707 c 1,24,25
 485 884 485 884 320.5 1046.5 c 128,-1,26
 156 1209 156 1209 -20 1362 c 1,27,28
 150 1367 150 1367 309.5 1391.5 c 128,-1,29
 469 1416 469 1416 621 1470 c 1,30,31
 756 1247 756 1247 911 1038 c 1,32,33
 983 1131 983 1131 1049 1225 c 128,-1,34
 1115 1319 1115 1319 1178 1415 c 1,35,36
 1264 1398 1264 1398 1354 1389 c 128,-1,37
 1444 1380 1444 1380 1538 1380 c 0,38,39
 1610 1380 1610 1380 1686 1386 c 128,-1,40
 1762 1392 1762 1392 1839 1401 c 1,0,1
EndSplineSet
EndChar

StartChar: Y
Encoding: 89 89 89
Width: 1810
Flags: W
LayerCount: 2
Fore
SplineSet
1954 1450 m 1,0,1
 1717 1247 1717 1247 1508 1025.5 c 128,-1,2
 1299 804 1299 804 1128 555 c 1,3,4
 1126 540 1126 540 1126 524.5 c 128,-1,5
 1126 509 1126 509 1126 494 c 0,6,7
 1126 353 1126 353 1156.5 223 c 128,-1,8
 1187 93 1187 93 1243 -29 c 1,9,10
 1125 6 1125 6 1010 24.5 c 128,-1,11
 895 43 895 43 776 43 c 0,12,13
 621 43 621 43 467 12 c 1,14,15
 535 153 535 153 578.5 297 c 128,-1,16
 622 441 622 441 635 594 c 1,17,18
 510 830 510 830 344.5 1034 c 128,-1,19
 179 1238 179 1238 -33 1411 c 1,20,21
 51 1397 51 1397 131 1389.5 c 128,-1,22
 211 1382 211 1382 287 1382 c 0,23,24
 380 1382 380 1382 465 1393.5 c 128,-1,25
 550 1405 550 1405 629 1430 c 1,26,27
 675 1283 675 1283 745.5 1159.5 c 128,-1,28
 816 1036 816 1036 913 936 c 1,29,30
 1020 1039 1020 1039 1091.5 1164 c 128,-1,31
 1163 1289 1163 1289 1208 1438 c 1,32,33
 1286 1419 1286 1419 1366.5 1411 c 128,-1,34
 1447 1403 1447 1403 1534 1403 c 0,35,36
 1633 1403 1633 1403 1737.5 1414 c 128,-1,37
 1842 1425 1842 1425 1954 1450 c 1,0,1
EndSplineSet
EndChar

StartChar: Z
Encoding: 90 90 90
Width: 1628
Flags: W
LayerCount: 2
Fore
SplineSet
1561 -39 m 1,0,1
 1525 -39 1525 -39 1491 -40 c 128,-1,2
 1457 -41 1457 -41 1423 -41 c 0,3,4
 1214 -41 1214 -41 1026.5 -30 c 128,-1,5
 839 -19 839 -19 664 2 c 128,-1,6
 489 23 489 23 322 54.5 c 128,-1,7
 155 86 155 86 -12 127 c 1,8,9
 42 135 42 135 94 144 c 128,-1,10
 146 153 146 153 197 162 c 1,11,12
 303 277 303 277 412.5 402.5 c 128,-1,13
 522 528 522 528 624 662 c 128,-1,14
 726 796 726 796 814.5 939 c 128,-1,15
 903 1082 903 1082 967 1233 c 1,16,17
 740 1173 740 1173 522 1083 c 128,-1,18
 304 993 304 993 84 872 c 1,19,20
 106 966 106 966 117.5 1056.5 c 128,-1,21
 129 1147 129 1147 129 1235 c 0,22,23
 129 1294 129 1294 124 1349 c 128,-1,24
 119 1404 119 1404 106 1460 c 1,25,26
 246 1477 246 1477 377 1486 c 128,-1,27
 508 1495 508 1495 635 1495 c 0,28,29
 902 1495 902 1495 1153 1457 c 128,-1,30
 1404 1419 1404 1419 1659 1346 c 1,31,32
 1609 1342 1609 1342 1561.5 1337.5 c 128,-1,33
 1514 1333 1514 1333 1466 1327 c 1,34,35
 1426 1199 1426 1199 1364.5 1070 c 128,-1,36
 1303 941 1303 941 1225.5 813.5 c 128,-1,37
 1148 686 1148 686 1058.5 561.5 c 128,-1,38
 969 437 969 437 874 319 c 1,39,40
 1032 367 1032 367 1189 428 c 128,-1,41
 1346 489 1346 489 1513 569 c 1,42,43
 1501 512 1501 512 1494 454.5 c 128,-1,44
 1487 397 1487 397 1487 340 c 0,45,46
 1487 149 1487 149 1561 -39 c 1,0,1
EndSplineSet
EndChar

StartChar: zero
Encoding: 48 48 91
Width: 1696
Flags: W
LayerCount: 2
Fore
SplineSet
1640 866 m 1,0,1
 1647 823 1647 823 1650 782.5 c 128,-1,2
 1653 742 1653 742 1653 700 c 0,3,4
 1653 535 1653 535 1601.5 389.5 c 128,-1,5
 1550 244 1550 244 1452.5 135 c 128,-1,6
 1355 26 1355 26 1214 -37 c 128,-1,7
 1073 -100 1073 -100 895 -100 c 0,8,9
 725 -100 725 -100 599.5 -46.5 c 128,-1,10
 474 7 474 7 391 95.5 c 128,-1,11
 308 184 308 184 267.5 299 c 128,-1,12
 227 414 227 414 227 537 c 0,13,14
 227 573 227 573 233 612 c 1,15,16
 188 600 188 600 144.5 585 c 128,-1,17
 101 570 101 570 57 553 c 1,18,19
 51 596 51 596 48 635.5 c 128,-1,20
 45 675 45 675 45 717 c 0,21,22
 45 827 45 827 68 929 c 128,-1,23
 91 1031 91 1031 135 1120 c 128,-1,24
 179 1209 179 1209 244 1282.5 c 128,-1,25
 309 1356 309 1356 393.5 1408 c 128,-1,26
 478 1460 478 1460 580.5 1489 c 128,-1,27
 683 1518 683 1518 803 1518 c 0,28,29
 972 1518 972 1518 1097.5 1464 c 128,-1,30
 1223 1410 1223 1410 1305 1320.5 c 128,-1,31
 1387 1231 1387 1231 1427.5 1116.5 c 128,-1,32
 1468 1002 1468 1002 1468 881 c 0,33,34
 1468 845 1468 845 1462 811 c 1,35,36
 1509 819 1509 819 1553 832.5 c 128,-1,37
 1597 846 1597 846 1640 866 c 1,0,1
381 637 m 1,38,39
 410 556 410 556 447 498.5 c 128,-1,40
 484 441 484 441 524.5 402.5 c 128,-1,41
 565 364 565 364 606 341.5 c 128,-1,42
 647 319 647 319 683.5 307.5 c 128,-1,43
 720 296 720 296 749.5 292.5 c 128,-1,44
 779 289 779 289 795 289 c 0,45,46
 868 289 868 289 926 326.5 c 128,-1,47
 984 364 984 364 1024 424.5 c 128,-1,48
 1064 485 1064 485 1085 560.5 c 128,-1,49
 1106 636 1106 636 1106 711 c 0,50,51
 1106 739 1106 739 1103.5 765.5 c 128,-1,52
 1101 792 1101 792 1096 821 c 1,53,54
 1148 809 1148 809 1201 803 c 128,-1,55
 1254 797 1254 797 1305 797 c 1,56,57
 1275 873 1275 873 1238 927.5 c 128,-1,58
 1201 982 1201 982 1161.5 1018.5 c 128,-1,59
 1122 1055 1122 1055 1082.5 1077 c 128,-1,60
 1043 1099 1043 1099 1008 1110 c 128,-1,61
 973 1121 973 1121 945 1124.5 c 128,-1,62
 917 1128 917 1128 901 1128 c 0,63,64
 827 1128 827 1128 769.5 1091.5 c 128,-1,65
 712 1055 712 1055 672 996 c 128,-1,66
 632 937 632 937 611 863 c 128,-1,67
 590 789 590 789 590 713 c 0,68,69
 590 684 590 684 593.5 656.5 c 128,-1,70
 597 629 597 629 602 598 c 1,71,72
 551 618 551 618 501 627.5 c 128,-1,73
 451 637 451 637 403 637 c 2,74,-1
 381 637 l 1,38,39
EndSplineSet
EndChar

StartChar: one
Encoding: 49 49 92
Width: 940
Flags: W
LayerCount: 2
Fore
SplineSet
850 1473 m 1,0,1
 813 1253 813 1253 793.5 1034.5 c 128,-1,2
 774 816 774 816 774 590 c 0,3,4
 774 440 774 440 783.5 291.5 c 128,-1,5
 793 143 793 143 813 -10 c 1,6,7
 643 -10 643 -10 469.5 -41.5 c 128,-1,8
 296 -73 296 -73 129 -133 c 1,9,10
 172 -13 172 -13 209.5 110.5 c 128,-1,11
 247 234 247 234 274.5 362.5 c 128,-1,12
 302 491 302 491 318 626 c 128,-1,13
 334 761 334 761 334 905 c 2,14,-1
 334 967 l 1,15,16
 269 933 269 933 210.5 875.5 c 128,-1,17
 152 818 152 818 96 745 c 1,18,19
 102 798 102 798 105.5 850 c 128,-1,20
 109 902 109 902 109 954 c 0,21,22
 109 1067 109 1067 93 1178 c 128,-1,23
 77 1289 77 1289 43 1399 c 1,24,25
 100 1393 100 1393 155.5 1389.5 c 128,-1,26
 211 1386 211 1386 266 1386 c 0,27,28
 415 1386 415 1386 565.5 1407.5 c 128,-1,29
 716 1429 716 1429 850 1473 c 1,0,1
EndSplineSet
Substitution2: "'sups' Superscript in Latin lookup 1 subtable" onesuperior
Substitution2: "'aalt' Access All Alternates in Latin lookup 0 subtable" onesuperior
EndChar

StartChar: two
Encoding: 50 50 93
Width: 1640
Flags: W
LayerCount: 2
Fore
SplineSet
1618 487 m 1,0,1
 1582 410 1582 410 1558.5 345 c 128,-1,2
 1535 280 1535 280 1520 217 c 128,-1,3
 1505 154 1505 154 1497 88 c 128,-1,4
 1489 22 1489 22 1485 -57 c 1,5,6
 1413 -77 1413 -77 1334.5 -91.5 c 128,-1,7
 1256 -106 1256 -106 1177.5 -115.5 c 128,-1,8
 1099 -125 1099 -125 1025 -130 c 128,-1,9
 951 -135 951 -135 889 -135 c 0,10,11
 628 -135 628 -135 411 -47 c 128,-1,12
 194 41 194 41 20 227 c 1,13,14
 99 215 99 215 174 209 c 1,15,16
 219 305 219 305 277.5 375 c 128,-1,17
 336 445 336 445 400.5 498 c 128,-1,18
 465 551 465 551 532 591.5 c 128,-1,19
 599 632 599 632 662 668.5 c 128,-1,20
 725 705 725 705 781 741.5 c 128,-1,21
 837 778 837 778 879 824 c 128,-1,22
 921 870 921 870 945 929.5 c 128,-1,23
 969 989 969 989 969 1071 c 0,24,25
 969 1102 969 1102 963 1126 c 1,26,27
 861 1118 861 1118 756 1096 c 128,-1,28
 651 1074 651 1074 551 1036.5 c 128,-1,29
 451 999 451 999 359 943.5 c 128,-1,30
 267 888 267 888 190 813 c 1,31,32
 190 974 190 974 157.5 1112 c 128,-1,33
 125 1250 125 1250 49 1374 c 1,34,35
 105 1404 105 1404 170.5 1426.5 c 128,-1,36
 236 1449 236 1449 304 1465.5 c 128,-1,37
 372 1482 372 1482 440.5 1492.5 c 128,-1,38
 509 1503 509 1503 572 1509 c 128,-1,39
 635 1515 635 1515 689.5 1517.5 c 128,-1,40
 744 1520 744 1520 784 1520 c 0,41,42
 907 1520 907 1520 1023 1492 c 128,-1,43
 1139 1464 1139 1464 1242.5 1406.5 c 128,-1,44
 1346 1349 1346 1349 1434.5 1260.5 c 128,-1,45
 1523 1172 1523 1172 1591 1051 c 1,46,47
 1519 1080 1519 1080 1442 1100 c 1,48,49
 1444 1087 1444 1087 1444 1076.5 c 128,-1,50
 1444 1066 1444 1066 1444 1055 c 0,51,52
 1444 955 1444 955 1421.5 878 c 128,-1,53
 1399 801 1399 801 1361 741 c 128,-1,54
 1323 681 1323 681 1271.5 634.5 c 128,-1,55
 1220 588 1220 588 1162.5 548.5 c 128,-1,56
 1105 509 1105 509 1044 473.5 c 128,-1,57
 983 438 983 438 925 399.5 c 128,-1,58
 867 361 867 361 815 316.5 c 128,-1,59
 763 272 763 272 723 215 c 1,60,61
 837 227 837 227 953.5 249.5 c 128,-1,62
 1070 272 1070 272 1184 305.5 c 128,-1,63
 1298 339 1298 339 1407.5 384 c 128,-1,64
 1517 429 1517 429 1618 487 c 1,0,1
EndSplineSet
Substitution2: "'sups' Superscript in Latin lookup 1 subtable" twosuperior
Substitution2: "'aalt' Access All Alternates in Latin lookup 0 subtable" twosuperior
EndChar

StartChar: three
Encoding: 51 51 94
Width: 1571
Flags: W
LayerCount: 2
Fore
SplineSet
1511 430 m 1,0,1
 1380 175 1380 175 1160 41.5 c 128,-1,2
 940 -92 940 -92 618 -92 c 0,3,4
 567 -92 567 -92 500 -88.5 c 128,-1,5
 433 -85 433 -85 361 -78 c 128,-1,6
 289 -71 289 -71 216.5 -60.5 c 128,-1,7
 144 -50 144 -50 82 -35 c 1,8,9
 135 80 135 80 159.5 197.5 c 128,-1,10
 184 315 184 315 184 446 c 1,11,12
 269 407 269 407 365 378 c 128,-1,13
 461 349 461 349 557.5 329.5 c 128,-1,14
 654 310 654 310 746.5 300 c 128,-1,15
 839 290 839 290 918 289 c 1,16,17
 918 295 918 295 919 300 c 128,-1,18
 920 305 920 305 920 311 c 0,19,20
 920 373 920 373 896 416.5 c 128,-1,21
 872 460 872 460 836.5 489 c 128,-1,22
 801 518 801 518 760 534 c 128,-1,23
 719 550 719 550 684 558 c 128,-1,24
 649 566 649 566 626.5 567.5 c 128,-1,25
 604 569 604 569 606 569 c 1,26,-1
 600 791 l 1,27,28
 677 793 677 793 734 810 c 128,-1,29
 791 827 791 827 831.5 854 c 128,-1,30
 872 881 872 881 897.5 914.5 c 128,-1,31
 923 948 923 948 937.5 983 c 128,-1,32
 952 1018 952 1018 957.5 1052 c 128,-1,33
 963 1086 963 1086 963 1114 c 0,34,35
 963 1122 963 1122 962 1129.5 c 128,-1,36
 961 1137 961 1137 961 1145 c 1,37,38
 859 1139 859 1139 758.5 1123 c 128,-1,39
 658 1107 658 1107 561.5 1078 c 128,-1,40
 465 1049 465 1049 373 1005 c 128,-1,41
 281 961 281 961 195 897 c 1,42,43
 176 1028 176 1028 127 1151 c 128,-1,44
 78 1274 78 1274 6 1393 c 1,45,46
 77 1422 77 1422 167.5 1446 c 128,-1,47
 258 1470 258 1470 351.5 1487.5 c 128,-1,48
 445 1505 445 1505 534.5 1514.5 c 128,-1,49
 624 1524 624 1524 692 1524 c 0,50,51
 834 1524 834 1524 968 1491 c 128,-1,52
 1102 1458 1102 1458 1217 1395.5 c 128,-1,53
 1332 1333 1332 1333 1421 1243.5 c 128,-1,54
 1510 1154 1510 1154 1563 1040 c 1,55,-1
 1417 1083 l 1,56,57
 1415 1038 1415 1038 1403 997.5 c 128,-1,58
 1391 957 1391 957 1372 921.5 c 128,-1,59
 1353 886 1353 886 1329 856 c 128,-1,60
 1305 826 1305 826 1280 802 c 0,61,62
 1222 745 1222 745 1149 702 c 1,63,64
 1214 662 1214 662 1266 611 c 0,65,66
 1288 589 1288 589 1309.5 563 c 128,-1,67
 1331 537 1331 537 1347.5 507 c 128,-1,68
 1364 477 1364 477 1374.5 443.5 c 128,-1,69
 1385 410 1385 410 1386 373 c 1,70,71
 1417 385 1417 385 1448.5 399 c 128,-1,72
 1480 413 1480 413 1511 430 c 1,0,1
EndSplineSet
Substitution2: "'sups' Superscript in Latin lookup 1 subtable" threesuperior
Substitution2: "'aalt' Access All Alternates in Latin lookup 0 subtable" threesuperior
EndChar

StartChar: four
Encoding: 52 52 95
Width: 1575
Flags: W
LayerCount: 2
Fore
SplineSet
1497 55 m 1,0,1
 1483 55 1483 55 1469.5 56 c 128,-1,2
 1456 57 1456 57 1442 57 c 0,3,4
 1369 57 1369 57 1288.5 48 c 128,-1,5
 1208 39 1208 39 1128 21 c 128,-1,6
 1048 3 1048 3 972 -23.5 c 128,-1,7
 896 -50 896 -50 831 -84 c 1,8,9
 851 -18 851 -18 872 48 c 128,-1,10
 893 114 893 114 912 181.5 c 128,-1,11
 931 249 931 249 947 319.5 c 128,-1,12
 963 390 963 390 975 465 c 1,13,14
 906 471 906 471 835.5 474 c 128,-1,15
 765 477 765 477 696 477 c 0,16,17
 613 477 613 477 523 473 c 128,-1,18
 433 469 433 469 341 461.5 c 128,-1,19
 249 454 249 454 158 442.5 c 128,-1,20
 67 431 67 431 -18 416 c 1,21,22
 118 664 118 664 208.5 926.5 c 128,-1,23
 299 1189 299 1189 342 1473 c 1,24,25
 386 1461 386 1461 436.5 1452.5 c 128,-1,26
 487 1444 487 1444 539 1438.5 c 128,-1,27
 591 1433 591 1433 641.5 1430 c 128,-1,28
 692 1427 692 1427 737 1427 c 0,29,30
 796 1427 796 1427 854 1432 c 128,-1,31
 912 1437 912 1437 971 1446 c 1,32,33
 851 1303 851 1303 748.5 1140.5 c 128,-1,34
 646 978 646 978 573 782 c 1,35,36
 609 779 609 779 643.5 776.5 c 128,-1,37
 678 774 678 774 713 774 c 0,38,39
 784 774 784 774 853 780.5 c 128,-1,40
 922 787 922 787 993 801 c 1,41,42
 987 967 987 967 950 1161 c 1,43,44
 972 1159 972 1159 993.5 1158 c 128,-1,45
 1015 1157 1015 1157 1036 1157 c 0,46,47
 1084 1157 1084 1157 1141 1161.5 c 128,-1,48
 1198 1166 1198 1166 1257.5 1175.5 c 128,-1,49
 1317 1185 1317 1185 1375 1199 c 128,-1,50
 1433 1213 1433 1213 1481 1231 c 1,51,52
 1462 1098 1462 1098 1454 968.5 c 128,-1,53
 1446 839 1446 839 1446 709 c 0,54,55
 1446 543 1446 543 1459 380 c 128,-1,56
 1472 217 1472 217 1497 55 c 1,0,1
EndSplineSet
EndChar

StartChar: thorn
Encoding: 254 254 96
Width: 1595
Flags: W
LayerCount: 2
Fore
SplineSet
735 1266 m 1,0,1
 730 1216 730 1216 728 1164 c 128,-1,2
 726 1112 726 1112 723 1057 c 1,3,-1
 727 1057 l 2,4,5
 781 1057 781 1057 856 1054.5 c 128,-1,6
 931 1052 931 1052 1013.5 1042 c 128,-1,7
 1096 1032 1096 1032 1179 1013 c 128,-1,8
 1262 994 1262 994 1332 961 c 128,-1,9
 1402 928 1402 928 1453 878 c 128,-1,10
 1504 828 1504 828 1522 758 c 1,11,12
 1545 769 1545 769 1567 780 c 128,-1,13
 1589 791 1589 791 1612 805 c 1,14,15
 1591 653 1591 653 1519 526.5 c 128,-1,16
 1447 400 1447 400 1338.5 309.5 c 128,-1,17
 1230 219 1230 219 1091 169 c 128,-1,18
 952 119 952 119 797 119 c 0,19,20
 777 119 777 119 758 119 c 128,-1,21
 739 119 739 119 721 121 c 1,22,-1
 727 -35 l 1,23,24
 695 -30 695 -30 663 -28.5 c 128,-1,25
 631 -27 631 -27 602 -27 c 0,26,27
 503 -27 503 -27 385 -49.5 c 128,-1,28
 267 -72 267 -72 131 -117 c 1,29,30
 163 -29 163 -29 192.5 73 c 128,-1,31
 222 175 222 175 244 287 c 1,32,33
 188 324 188 324 148 359.5 c 128,-1,34
 108 395 108 395 86 420 c 1,35,36
 128 409 128 409 172 398.5 c 128,-1,37
 216 388 216 388 262 379 c 1,38,39
 273 444 273 444 280.5 508.5 c 128,-1,40
 288 573 288 573 293 639 c 1,41,42
 191 604 191 604 92 561 c 1,43,44
 108 612 108 612 115.5 659 c 128,-1,45
 123 706 123 706 123 748 c 0,46,47
 123 820 123 820 105 884.5 c 128,-1,48
 87 949 87 949 53 1006 c 1,49,50
 113 1014 113 1014 169.5 1020.5 c 128,-1,51
 226 1027 226 1027 279 1032 c 1,52,53
 274 1064 274 1064 268 1096 c 128,-1,54
 262 1128 262 1128 254 1159 c 1,55,56
 371 1157 371 1157 487 1183.5 c 128,-1,57
 603 1210 603 1210 735 1266 c 1,0,1
938 750 m 0,58,59
 829 750 829 750 715 735 c 1,60,-1
 715 571 l 1,61,-1
 715 356 l 1,62,63
 776 366 776 366 829.5 386.5 c 128,-1,64
 883 407 883 407 923.5 440 c 128,-1,65
 964 473 964 473 990 520 c 128,-1,66
 1016 567 1016 567 1024 631 c 1,67,68
 1099 640 1099 640 1178 655 c 1,69,70
 1139 702 1139 702 1076 726 c 128,-1,71
 1013 750 1013 750 938 750 c 0,58,59
EndSplineSet
EndChar

StartChar: question
Encoding: 63 63 97
Width: 1640
Flags: W
LayerCount: 2
Fore
SplineSet
1599 1051 m 1,0,1
 1527 1080 1527 1080 1450 1100 c 1,2,3
 1452 1087 1452 1087 1452 1076.5 c 128,-1,4
 1452 1066 1452 1066 1452 1055 c 0,5,6
 1452 980 1452 980 1428 921 c 128,-1,7
 1404 862 1404 862 1365.5 815 c 128,-1,8
 1327 768 1327 768 1277 731 c 128,-1,9
 1227 694 1227 694 1175.5 661.5 c 128,-1,10
 1124 629 1124 629 1074 599.5 c 128,-1,11
 1024 570 1024 570 985.5 538.5 c 128,-1,12
 947 507 947 507 923 471.5 c 128,-1,13
 899 436 899 436 899 391 c 1,14,15
 811 407 811 407 737.5 409 c 128,-1,16
 664 411 664 411 610 407 c 0,17,18
 547 403 547 403 494 391 c 1,19,20
 494 453 494 453 515 500.5 c 128,-1,21
 536 548 536 548 569.5 586.5 c 128,-1,22
 603 625 603 625 646.5 657.5 c 128,-1,23
 690 690 690 690 735.5 721.5 c 128,-1,24
 781 753 781 753 824.5 786.5 c 128,-1,25
 868 820 868 820 901.5 861 c 128,-1,26
 935 902 935 902 956 953 c 128,-1,27
 977 1004 977 1004 977 1071 c 0,28,29
 977 1102 977 1102 971 1126 c 1,30,31
 869 1118 869 1118 764 1096 c 128,-1,32
 659 1074 659 1074 559 1036.5 c 128,-1,33
 459 999 459 999 367 943.5 c 128,-1,34
 275 888 275 888 199 813 c 1,35,36
 199 974 199 974 166 1112 c 128,-1,37
 133 1250 133 1250 57 1374 c 1,38,39
 142 1419 142 1419 244.5 1447.5 c 128,-1,40
 347 1476 347 1476 449 1492 c 128,-1,41
 551 1508 551 1508 641.5 1514 c 128,-1,42
 732 1520 732 1520 793 1520 c 0,43,44
 916 1520 916 1520 1031.5 1492 c 128,-1,45
 1147 1464 1147 1464 1250.5 1406.5 c 128,-1,46
 1354 1349 1354 1349 1442.5 1260.5 c 128,-1,47
 1531 1172 1531 1172 1599 1051 c 1,0,1
965 154 m 0,48,49
 965 81 965 81 895.5 38.5 c 128,-1,50
 826 -4 826 -4 705 -4 c 0,51,52
 643 -4 643 -4 592.5 6.5 c 128,-1,53
 542 17 542 17 505 37 c 128,-1,54
 468 57 468 57 448 84.5 c 128,-1,55
 428 112 428 112 428 147 c 0,56,57
 428 183 428 183 449 212.5 c 128,-1,58
 470 242 470 242 507.5 262.5 c 128,-1,59
 545 283 545 283 596.5 294 c 128,-1,60
 648 305 648 305 709 305 c 0,61,62
 766 305 766 305 813 294.5 c 128,-1,63
 860 284 860 284 893.5 264 c 128,-1,64
 927 244 927 244 946 216 c 128,-1,65
 965 188 965 188 965 154 c 0,48,49
EndSplineSet
EndChar

StartChar: at
Encoding: 64 64 98
Width: 2071
Flags: W
LayerCount: 2
Fore
SplineSet
1622 463 m 1,0,1
 1594 449 1594 449 1567.5 437 c 128,-1,2
 1541 425 1541 425 1513 416 c 1,3,4
 1532 384 1532 384 1549.5 353 c 128,-1,5
 1567 322 1567 322 1587 293 c 1,6,7
 1668 356 1668 356 1712.5 450.5 c 128,-1,8
 1757 545 1757 545 1757 672 c 0,9,10
 1757 758 1757 758 1717.5 837 c 128,-1,11
 1678 916 1678 916 1597.5 977 c 128,-1,12
 1517 1038 1517 1038 1394.5 1074 c 128,-1,13
 1272 1110 1272 1110 1106 1110 c 0,14,15
 1056 1110 1056 1110 998.5 1101 c 128,-1,16
 941 1092 941 1092 872 1069 c 1,17,18
 872 1086 872 1086 863 1113 c 128,-1,19
 854 1140 854 1140 840 1171 c 1,20,21
 736 1139 736 1139 646.5 1084.5 c 128,-1,22
 557 1030 557 1030 491.5 953 c 128,-1,23
 426 876 426 876 389 776 c 128,-1,24
 352 676 352 676 354 555 c 0,25,26
 355 498 355 498 371.5 434.5 c 128,-1,27
 388 371 388 371 419.5 309.5 c 128,-1,28
 451 248 451 248 498 192 c 128,-1,29
 545 136 545 136 606.5 93 c 128,-1,30
 668 50 668 50 745 25 c 128,-1,31
 822 0 822 0 913 0 c 0,32,33
 963 0 963 0 1021 9 c 128,-1,34
 1079 18 1079 18 1147 41 c 1,35,36
 1147 18 1147 18 1162.5 -21.5 c 128,-1,37
 1178 -61 1178 -61 1201.5 -103 c 128,-1,38
 1225 -145 1225 -145 1251.5 -182 c 128,-1,39
 1278 -219 1278 -219 1300 -238 c 1,40,41
 1255 -254 1255 -254 1198 -265 c 0,42,43
 1149 -275 1149 -275 1081.5 -283 c 128,-1,44
 1014 -291 1014 -291 932 -291 c 0,45,46
 778 -291 778 -291 653 -256 c 128,-1,47
 528 -221 528 -221 431 -160.5 c 128,-1,48
 334 -100 334 -100 264.5 -19.5 c 128,-1,49
 195 61 195 61 152 151.5 c 128,-1,50
 109 242 109 242 92 338.5 c 128,-1,51
 75 435 75 435 82 526 c 0,52,53
 90 638 90 638 123 731.5 c 128,-1,54
 156 825 156 825 208 901.5 c 128,-1,55
 260 978 260 978 327.5 1037.5 c 128,-1,56
 395 1097 395 1097 471.5 1140 c 128,-1,57
 548 1183 548 1183 631 1210 c 128,-1,58
 714 1237 714 1237 797 1249 c 1,59,60
 777 1281 777 1281 756.5 1306.5 c 128,-1,61
 736 1332 736 1332 719 1348 c 1,62,63
 764 1363 764 1363 821 1374 c 0,64,65
 870 1384 870 1384 937 1392.5 c 128,-1,66
 1004 1401 1004 1401 1087 1401 c 0,67,68
 1318 1401 1318 1401 1492.5 1348 c 128,-1,69
 1667 1295 1667 1295 1783.5 1203.5 c 128,-1,70
 1900 1112 1900 1112 1958.5 989.5 c 128,-1,71
 2017 867 2017 867 2017 729 c 0,72,73
 2017 602 2017 602 1978 500.5 c 128,-1,74
 1939 399 1939 399 1872.5 323.5 c 128,-1,75
 1806 248 1806 248 1719 199.5 c 128,-1,76
 1632 151 1632 151 1536 130.5 c 128,-1,77
 1440 110 1440 110 1341.5 118.5 c 128,-1,78
 1243 127 1243 127 1153 164 c 1,79,80
 1187 164 1187 164 1219 166.5 c 128,-1,81
 1251 169 1251 169 1282 174 c 1,82,83
 1284 182 1284 182 1284 189.5 c 128,-1,84
 1284 197 1284 197 1284 205 c 0,85,86
 1284 267 1284 267 1260 350 c 1,87,88
 1207 344 1207 344 1153 344 c 0,89,90
 1063 344 1063 344 979 367 c 1,91,92
 968 319 968 319 959 270 c 128,-1,93
 950 221 950 221 942 168 c 1,94,95
 909 184 909 184 870 197 c 0,96,97
 837 208 837 208 793 217.5 c 128,-1,98
 749 227 749 227 700 227 c 0,99,100
 660 227 660 227 613 220.5 c 128,-1,101
 566 214 566 214 510 197 c 1,102,103
 553 240 553 240 591 284.5 c 128,-1,104
 629 329 629 329 661 370 c 128,-1,105
 693 411 693 411 718 447.5 c 128,-1,106
 743 484 743 484 760 510 c 1,107,108
 741 533 741 533 724.5 559 c 128,-1,109
 708 585 708 585 694 614 c 1,110,111
 720 602 720 602 745 590.5 c 128,-1,112
 770 579 770 579 795 569 c 1,113,114
 824 623 824 623 857 676 c 128,-1,115
 890 729 890 729 928 778 c 1,116,117
 919 796 919 796 907 820 c 128,-1,118
 895 844 895 844 880.5 869.5 c 128,-1,119
 866 895 866 895 851 920 c 128,-1,120
 836 945 836 945 821 967 c 1,121,122
 946 932 946 932 1069 926 c 1,123,124
 1137 985 1137 985 1223 1022 c 1,125,126
 1209 999 1209 999 1196.5 976 c 128,-1,127
 1184 953 1184 953 1171 928 c 1,128,129
 1202 930 1202 930 1234.5 935 c 128,-1,130
 1267 940 1267 940 1303 946 c 1,131,132
 1327 859 1327 859 1355 777 c 128,-1,133
 1383 695 1383 695 1417 616 c 1,134,135
 1445 632 1445 632 1472.5 649 c 128,-1,136
 1500 666 1500 666 1528 686 c 1,137,138
 1548 620 1548 620 1571 564 c 128,-1,139
 1594 508 1594 508 1622 463 c 1,0,1
1192 530 m 1,140,141
 1170 580 1170 580 1143 630.5 c 128,-1,142
 1116 681 1116 681 1085 733 c 1,143,144
 1067 682 1067 682 1050 628.5 c 128,-1,145
 1033 575 1033 575 1016 518 c 1,146,147
 1028 516 1028 516 1039.5 516 c 128,-1,148
 1051 516 1051 516 1063 516 c 0,149,150
 1095 516 1095 516 1127.5 519 c 128,-1,151
 1160 522 1160 522 1192 530 c 1,140,141
EndSplineSet
EndChar

StartChar: product
Encoding: 8719 8719 99
Width: 1571
Flags: W
LayerCount: 2
Fore
SplineSet
776 -35 m 1,0,1
 705 -35 705 -35 644.5 -38 c 128,-1,2
 584 -41 584 -41 524.5 -49 c 128,-1,3
 465 -57 465 -57 401.5 -72 c 128,-1,4
 338 -87 338 -87 260 -111 c 1,5,6
 250 25 250 25 255 171 c 128,-1,7
 260 317 260 317 279 466 c 128,-1,8
 298 615 298 615 330.5 762.5 c 128,-1,9
 363 910 363 910 408 1049 c 1,10,11
 326 1027 326 1027 245.5 1000.5 c 128,-1,12
 165 974 165 974 88 940 c 1,13,14
 125 1094 125 1094 125 1249 c 0,15,16
 125 1320 125 1320 117.5 1391.5 c 128,-1,17
 110 1463 110 1463 94 1532 c 1,18,19
 213 1506 213 1506 333.5 1485 c 128,-1,20
 454 1464 454 1464 578 1450 c 1,21,22
 601 1492 601 1492 625.5 1530 c 128,-1,23
 650 1568 650 1568 676 1606 c 1,24,-1
 664 1440 l 1,25,26
 747 1432 747 1432 831.5 1428.5 c 128,-1,27
 916 1425 916 1425 1001 1425 c 2,28,-1
 1012 1425 l 1,29,30
 1035 1482 1035 1482 1061 1538 c 128,-1,31
 1087 1594 1087 1594 1118 1647 c 1,32,33
 1116 1593 1116 1593 1117 1538 c 128,-1,34
 1118 1483 1118 1483 1120 1427 c 1,35,36
 1219 1431 1219 1431 1318 1440.5 c 128,-1,37
 1417 1450 1417 1450 1518 1468 c 1,38,39
 1495 1425 1495 1425 1478.5 1376 c 128,-1,40
 1462 1327 1462 1327 1462 1257 c 0,41,42
 1462 1217 1462 1217 1468.5 1169.5 c 128,-1,43
 1475 1122 1475 1122 1491 1063 c 1,44,45
 1409 1081 1409 1081 1321 1094.5 c 128,-1,46
 1233 1108 1233 1108 1137 1114 c 1,47,48
 1160 813 1160 813 1212 510.5 c 128,-1,49
 1264 208 1264 208 1348 -78 c 1,50,51
 1306 -49 1306 -49 1249 -24.5 c 128,-1,52
 1192 0 1192 0 1125.5 15 c 128,-1,53
 1059 30 1059 30 984 34 c 128,-1,54
 909 38 909 38 831 27 c 1,55,56
 821 163 821 163 820.5 302.5 c 128,-1,57
 820 442 820 442 829 580 c 128,-1,58
 838 718 838 718 858.5 853 c 128,-1,59
 879 988 879 988 911 1116 c 1,60,61
 845 1114 845 1114 779 1108.5 c 128,-1,62
 713 1103 713 1103 645 1094 c 1,63,64
 642 954 642 954 646.5 813 c 128,-1,65
 651 672 651 672 666 531 c 128,-1,66
 681 390 681 390 708 248 c 128,-1,67
 735 106 735 106 776 -35 c 1,0,1
EndSplineSet
EndChar

StartChar: pi
Encoding: 960 960 100
Width: 1335
Flags: W
LayerCount: 2
Fore
SplineSet
653 -29 m 1,0,1
 585 -29 585 -29 534.5 -31 c 128,-1,2
 484 -33 484 -33 435.5 -40 c 128,-1,3
 387 -47 387 -47 332 -60.5 c 128,-1,4
 277 -74 277 -74 199 -96 c 1,5,6
 179 133 179 133 213 368.5 c 128,-1,7
 247 604 247 604 334 831 c 1,8,9
 260 814 260 814 187.5 791 c 128,-1,10
 115 768 115 768 43 739 c 1,11,12
 80 880 80 880 80 999 c 0,13,14
 80 1110 80 1110 51 1229 c 1,15,16
 161 1207 161 1207 271.5 1190.5 c 128,-1,17
 382 1174 382 1174 494 1161 c 1,18,19
 521 1208 521 1208 550.5 1251 c 128,-1,20
 580 1294 580 1294 612 1337 c 1,21,-1
 594 1151 l 1,22,23
 663 1146 663 1146 732 1143.5 c 128,-1,24
 801 1141 801 1141 870 1141 c 2,25,-1
 874 1141 l 1,26,27
 900 1201 900 1201 930 1259 c 128,-1,28
 960 1317 960 1317 995 1376 c 1,29,30
 993 1317 993 1317 994 1259.5 c 128,-1,31
 995 1202 995 1202 997 1143 c 1,32,33
 1079 1146 1079 1146 1164 1154 c 128,-1,34
 1249 1162 1249 1162 1343 1176 c 1,35,36
 1323 1141 1323 1141 1309.5 1102 c 128,-1,37
 1296 1063 1296 1063 1296 1006 c 0,38,39
 1296 974 1296 974 1303 934.5 c 128,-1,40
 1310 895 1310 895 1325 844 c 1,41,42
 1250 861 1250 861 1172 872 c 128,-1,43
 1094 883 1094 883 1014 889 c 1,44,45
 1034 643 1034 643 1079.5 401 c 128,-1,46
 1125 159 1125 159 1196 -61 c 1,47,48
 1140 -36 1140 -36 1086 -18 c 128,-1,49
 1032 0 1032 0 975 10.5 c 128,-1,50
 918 21 918 21 855.5 23 c 128,-1,51
 793 25 793 25 721 18 c 1,52,53
 705 239 705 239 718.5 458.5 c 128,-1,54
 732 678 732 678 791 893 c 1,55,56
 737 891 737 891 682 886.5 c 128,-1,57
 627 882 627 882 571 874 c 1,58,59
 564 762 564 762 563 649.5 c 128,-1,60
 562 537 562 537 570.5 424 c 128,-1,61
 579 311 579 311 598.5 198 c 128,-1,62
 618 85 618 85 653 -29 c 1,0,1
EndSplineSet
EndChar

StartChar: partialdiff
Encoding: 8706 8706 101
Width: 1735
Flags: W
LayerCount: 2
Fore
SplineSet
1651 672 m 0,0,1
 1651 481 1651 481 1594 338 c 128,-1,2
 1537 195 1537 195 1426.5 99.5 c 128,-1,3
 1316 4 1316 4 1154.5 -44 c 128,-1,4
 993 -92 993 -92 784 -92 c 0,5,6
 743 -92 743 -92 689.5 -85.5 c 128,-1,7
 636 -79 636 -79 583 -69.5 c 128,-1,8
 530 -60 530 -60 485 -49.5 c 128,-1,9
 440 -39 440 -39 416 -31 c 1,10,11
 444 -8 444 -8 469 15.5 c 128,-1,12
 494 39 494 39 516 63 c 1,13,14
 421 81 421 81 337.5 117 c 128,-1,15
 254 153 254 153 191 209.5 c 128,-1,16
 128 266 128 266 91.5 342.5 c 128,-1,17
 55 419 55 419 55 518 c 0,18,19
 55 630 55 630 94.5 720.5 c 128,-1,20
 134 811 134 811 203 882 c 128,-1,21
 272 953 272 953 365.5 1005.5 c 128,-1,22
 459 1058 459 1058 567.5 1093 c 128,-1,23
 676 1128 676 1128 794.5 1146.5 c 128,-1,24
 913 1165 913 1165 1032 1169 c 1,25,26
 981 1230 981 1230 921 1284.5 c 128,-1,27
 861 1339 861 1339 794 1386.5 c 128,-1,28
 727 1434 727 1434 656.5 1472 c 128,-1,29
 586 1510 586 1510 514 1538 c 1,30,31
 658 1538 658 1538 798 1507 c 128,-1,32
 938 1476 938 1476 1064.5 1419.5 c 128,-1,33
 1191 1363 1191 1363 1298.5 1284 c 128,-1,34
 1406 1205 1406 1205 1484.5 1108.5 c 128,-1,35
 1563 1012 1563 1012 1607 901.5 c 128,-1,36
 1651 791 1651 791 1651 672 c 0,0,1
1217 721 m 0,37,38
 1217 789 1217 789 1199.5 855.5 c 128,-1,39
 1182 922 1182 922 1153 985 c 1,40,41
 1119 934 1119 934 1091.5 876 c 128,-1,42
 1064 818 1064 818 1044 750 c 1,43,44
 975 770 975 770 927.5 777 c 128,-1,45
 880 784 880 784 848 784 c 0,46,47
 785 784 785 784 721 763 c 128,-1,48
 657 742 657 742 605.5 702.5 c 128,-1,49
 554 663 554 663 521.5 606.5 c 128,-1,50
 489 550 489 550 489 479 c 0,51,52
 489 411 489 411 524 354.5 c 128,-1,53
 559 298 559 298 614 250 c 1,54,55
 624 281 624 281 628.5 313 c 128,-1,56
 633 345 633 345 635 379 c 1,57,58
 709 345 709 345 766 332 c 128,-1,59
 823 319 823 319 866 319 c 0,60,61
 931 319 931 319 994 337 c 128,-1,62
 1057 355 1057 355 1106.5 400 c 128,-1,63
 1156 445 1156 445 1186.5 523 c 128,-1,64
 1217 601 1217 601 1217 721 c 0,37,38
EndSplineSet
EndChar

StartChar: mu
Encoding: 181 181 102
Width: 1675
Flags: W
LayerCount: 2
Fore
SplineSet
1622 1188 m 1,0,1
 1622 882 1622 882 1563.5 649.5 c 128,-1,2
 1505 417 1505 417 1389.5 260.5 c 128,-1,3
 1274 104 1274 104 1103 24.5 c 128,-1,4
 932 -55 932 -55 707 -55 c 0,5,6
 666 -55 666 -55 626.5 -51 c 128,-1,7
 587 -47 587 -47 545 -41 c 1,8,9
 554 -119 554 -119 565 -193 c 128,-1,10
 576 -267 576 -267 592 -336 c 1,11,12
 554 -330 554 -330 506 -330 c 0,13,14
 461 -330 461 -330 410.5 -336 c 128,-1,15
 360 -342 360 -342 310 -354.5 c 128,-1,16
 260 -367 260 -367 212.5 -386.5 c 128,-1,17
 165 -406 165 -406 127 -432 c 1,18,19
 139 -344 139 -344 148.5 -243.5 c 128,-1,20
 158 -143 158 -143 165 -34.5 c 128,-1,21
 172 74 172 74 176 188.5 c 128,-1,22
 180 303 180 303 182 420 c 1,23,24
 150 513 150 513 133.5 620 c 128,-1,25
 117 727 117 727 117 846 c 0,26,27
 117 883 117 883 118.5 913 c 128,-1,28
 120 943 120 943 123 973 c 128,-1,29
 126 1003 126 1003 130.5 1035.5 c 128,-1,30
 135 1068 135 1068 141 1110 c 1,31,32
 165 1108 165 1108 192 1106 c 0,33,34
 215 1104 215 1104 245 1103 c 128,-1,35
 275 1102 275 1102 307 1102 c 0,36,37
 349 1102 349 1102 399 1105 c 128,-1,38
 449 1108 449 1108 504.5 1115.5 c 128,-1,39
 560 1123 560 1123 619.5 1137 c 128,-1,40
 679 1151 679 1151 739 1174 c 1,41,42
 702 1089 702 1089 674.5 1018.5 c 128,-1,43
 647 948 647 948 628.5 884.5 c 128,-1,44
 610 821 610 821 601 761.5 c 128,-1,45
 592 702 592 702 592 641 c 0,46,47
 592 538 592 538 617 449.5 c 128,-1,48
 642 361 642 361 694 287 c 1,49,-1
 698 317 l 1,50,51
 768 299 768 299 809 299 c 0,52,53
 869 299 869 299 916 321 c 128,-1,54
 963 343 963 343 998 379.5 c 128,-1,55
 1033 416 1033 416 1057.5 464 c 128,-1,56
 1082 512 1082 512 1097 564 c 128,-1,57
 1112 616 1112 616 1119 668.5 c 128,-1,58
 1126 721 1126 721 1126 768 c 0,59,60
 1126 809 1126 809 1115.5 861.5 c 128,-1,61
 1105 914 1105 914 1087.5 971.5 c 128,-1,62
 1070 1029 1070 1029 1046 1087.5 c 128,-1,63
 1022 1146 1022 1146 995 1200 c 1,64,65
 1037 1188 1037 1188 1085.5 1178 c 128,-1,66
 1134 1168 1134 1168 1185.5 1160.5 c 128,-1,67
 1237 1153 1237 1153 1288 1149 c 128,-1,68
 1339 1145 1339 1145 1386 1145 c 0,69,70
 1445 1145 1445 1145 1505 1154 c 128,-1,71
 1565 1163 1565 1163 1622 1188 c 1,0,1
537 39 m 1,72,73
 537 36 537 36 538 33 c 128,-1,74
 539 30 539 30 539 27 c 1,75,76
 541 31 541 31 549 35 c 1,77,78
 541 39 541 39 537 39 c 1,72,73
EndSplineSet
EndChar

StartChar: yen
Encoding: 165 165 103
Width: 1470
Flags: W
LayerCount: 2
Fore
SplineSet
1112 459 m 1,0,1
 1077 460 1077 460 1009 464 c 128,-1,2
 941 468 941 468 858 471 c 1,3,4
 866 397 866 397 885.5 328 c 128,-1,5
 905 259 905 259 936 193 c 1,6,7
 852 217 852 217 772 230.5 c 128,-1,8
 692 244 692 244 608 244 c 0,9,10
 504 244 504 244 391 221 c 1,11,12
 420 283 420 283 444 345.5 c 128,-1,13
 468 408 468 408 483 473 c 1,14,15
 412 470 412 470 355.5 463.5 c 128,-1,16
 299 457 299 457 268 444 c 1,17,18
 273 468 273 468 275.5 501.5 c 128,-1,19
 278 535 278 535 277.5 571 c 128,-1,20
 277 607 277 607 273.5 641.5 c 128,-1,21
 270 676 270 676 264 702 c 1,22,23
 304 688 304 688 362 679.5 c 128,-1,24
 420 671 420 671 489 666 c 1,25,26
 403 818 403 818 291.5 952 c 128,-1,27
 180 1086 180 1086 41 1200 c 1,28,29
 158 1182 158 1182 266 1182 c 0,30,31
 331 1182 331 1182 390.5 1189 c 128,-1,32
 450 1196 450 1196 506 1214 c 1,33,34
 538 1111 538 1111 587 1024.5 c 128,-1,35
 636 938 636 938 705 868 c 1,36,37
 779 941 779 941 829 1028 c 128,-1,38
 879 1115 879 1115 911 1219 c 1,39,40
 965 1206 965 1206 1022 1201 c 128,-1,41
 1079 1196 1079 1196 1139 1196 c 0,42,43
 1208 1196 1208 1196 1281 1203 c 128,-1,44
 1354 1210 1354 1210 1432 1229 c 1,45,46
 1283 1099 1283 1099 1150.5 961.5 c 128,-1,47
 1018 824 1018 824 903 672 c 1,48,49
 966 678 966 678 1019 688 c 128,-1,50
 1072 698 1072 698 1112 711 c 1,51,52
 1104 688 1104 688 1101 655 c 128,-1,53
 1098 622 1098 622 1098 587 c 128,-1,54
 1098 552 1098 552 1101.5 518 c 128,-1,55
 1105 484 1105 484 1112 459 c 1,0,1
EndSplineSet
EndChar

StartChar: ordfeminine
Encoding: 170 170 104
Width: 1171
Flags: W
LayerCount: 2
Fore
SplineSet
1083 942 m 1,0,1
 1059 930 1059 930 1034 919 c 128,-1,2
 1009 908 1009 908 983 899 c 1,3,4
 1011 848 1011 848 1041.5 802 c 128,-1,5
 1072 756 1072 756 1106 711 c 1,6,7
 1012 711 1012 711 927.5 693 c 128,-1,8
 843 675 843 675 756 635 c 1,9,10
 762 652 762 652 764 668 c 128,-1,11
 766 684 766 684 766 702 c 0,12,13
 766 758 766 758 743 838 c 1,14,15
 719 835 719 835 694.5 833 c 128,-1,16
 670 831 670 831 645 831 c 0,17,18
 557 831 557 831 481 852 c 1,19,20
 472 807 472 807 463 761 c 128,-1,21
 454 715 454 715 446 666 c 1,22,23
 415 682 415 682 379 694 c 0,24,25
 348 705 348 705 307 714 c 128,-1,26
 266 723 266 723 221 723 c 0,27,28
 181 723 181 723 137.5 716.5 c 128,-1,29
 94 710 94 710 41 694 c 1,30,31
 82 735 82 735 117.5 776.5 c 128,-1,32
 153 818 153 818 183 857 c 128,-1,33
 213 896 213 896 236 930 c 128,-1,34
 259 964 259 964 274 989 c 1,35,36
 257 1009 257 1009 242 1033.5 c 128,-1,37
 227 1058 227 1058 215 1085 c 1,38,39
 238 1073 238 1073 262 1063.5 c 128,-1,40
 286 1054 286 1054 307 1044 c 1,41,42
 335 1094 335 1094 365 1143.5 c 128,-1,43
 395 1193 395 1193 432 1239 c 1,44,45
 424 1257 424 1257 413 1279 c 128,-1,46
 402 1301 402 1301 389 1324.5 c 128,-1,47
 376 1348 376 1348 362 1371.5 c 128,-1,48
 348 1395 348 1395 334 1415 c 1,49,50
 393 1398 393 1398 449.5 1389 c 128,-1,51
 506 1380 506 1380 565 1378 c 1,52,53
 597 1404 597 1404 632.5 1427 c 128,-1,54
 668 1450 668 1450 709 1468 c 1,55,-1
 659 1380 l 1,56,57
 688 1382 688 1382 720 1386.5 c 128,-1,58
 752 1391 752 1391 786 1397 c 1,59,60
 808 1315 808 1315 834 1238.5 c 128,-1,61
 860 1162 860 1162 891 1087 c 1,62,63
 945 1117 945 1117 995 1153 c 1,64,65
 1014 1090 1014 1090 1035.5 1037 c 128,-1,66
 1057 984 1057 984 1083 942 c 1,0,1
1067 332 m 1,67,68
 1017 335 1017 335 938 340.5 c 128,-1,69
 859 346 859 346 765 350 c 128,-1,70
 671 354 671 354 570 355.5 c 128,-1,71
 469 357 469 357 375.5 353.5 c 128,-1,72
 282 350 282 350 203.5 340 c 128,-1,73
 125 330 125 330 76 311 c 1,74,75
 88 380 88 380 88 442 c 128,-1,76
 88 504 88 504 70 578 c 1,77,78
 181 553 181 553 312 542.5 c 128,-1,79
 443 532 443 532 576.5 534 c 128,-1,80
 710 536 710 536 836.5 550 c 128,-1,81
 963 564 963 564 1067 590 c 1,82,83
 1045 524 1045 524 1046.5 464 c 128,-1,84
 1048 404 1048 404 1067 332 c 1,67,68
680 1008 m 1,85,86
 660 1054 660 1054 635.5 1101.5 c 128,-1,87
 611 1149 611 1149 582 1198 c 1,88,89
 548 1105 548 1105 516 995 c 1,90,-1
 559 995 l 2,91,92
 621 995 621 995 680 1008 c 1,85,86
EndSplineSet
EndChar

StartChar: ordmasculine
Encoding: 186 186 105
Width: 1114
Flags: W
LayerCount: 2
Fore
SplineSet
840 1413 m 1,0,1
 818 1396 818 1396 799.5 1377.5 c 128,-1,2
 781 1359 781 1359 764 1339 c 1,3,4
 821 1328 821 1328 870.5 1304.5 c 128,-1,5
 920 1281 920 1281 957.5 1245 c 128,-1,6
 995 1209 995 1209 1016.5 1161.5 c 128,-1,7
 1038 1114 1038 1114 1038 1057 c 0,8,9
 1038 958 1038 958 990.5 887 c 128,-1,10
 943 816 943 816 865 770.5 c 128,-1,11
 787 725 787 725 687.5 703.5 c 128,-1,12
 588 682 588 682 483 682 c 0,13,14
 459 682 459 682 432 682.5 c 128,-1,15
 405 683 405 683 380.5 684.5 c 128,-1,16
 356 686 356 686 334.5 689.5 c 128,-1,17
 313 693 313 693 299 698 c 1,18,19
 333 723 333 723 358 756 c 1,20,21
 301 766 301 766 251 787 c 128,-1,22
 201 808 201 808 163.5 841.5 c 128,-1,23
 126 875 126 875 104 921.5 c 128,-1,24
 82 968 82 968 82 1028 c 0,25,26
 82 1098 82 1098 107.5 1154 c 128,-1,27
 133 1210 133 1210 177.5 1253.5 c 128,-1,28
 222 1297 222 1297 282 1328 c 128,-1,29
 342 1359 342 1359 410.5 1379.5 c 128,-1,30
 479 1400 479 1400 554 1409.5 c 128,-1,31
 629 1419 629 1419 702 1419 c 0,32,33
 762 1419 762 1419 834 1413 c 1,34,-1
 840 1413 l 1,0,1
1006 332 m 1,35,36
 956 335 956 335 884.5 340.5 c 128,-1,37
 813 346 813 346 730.5 350 c 128,-1,38
 648 354 648 354 560.5 355.5 c 128,-1,39
 473 357 473 357 390.5 353.5 c 128,-1,40
 308 350 308 350 237 340 c 128,-1,41
 166 330 166 330 117 311 c 1,42,43
 129 380 129 380 129 442 c 128,-1,44
 129 504 129 504 111 578 c 1,45,46
 222 553 222 553 337 542.5 c 128,-1,47
 452 532 452 532 566 534 c 128,-1,48
 680 536 680 536 791 550 c 128,-1,49
 902 564 902 564 1006 590 c 1,50,51
 984 524 984 524 985.5 464 c 128,-1,52
 987 404 987 404 1006 332 c 1,35,36
778 1098 m 0,53,54
 778 1149 778 1149 755.5 1181.5 c 128,-1,55
 733 1214 733 1214 698 1233 c 1,56,57
 692 1217 692 1217 686.5 1200.5 c 128,-1,58
 681 1184 681 1184 676 1167 c 1,59,60
 634 1178 634 1178 605.5 1183 c 128,-1,61
 577 1188 577 1188 557 1188 c 0,62,63
 519 1188 519 1188 481 1175.5 c 128,-1,64
 443 1163 443 1163 412 1139 c 128,-1,65
 381 1115 381 1115 361.5 1081 c 128,-1,66
 342 1047 342 1047 342 1004 c 0,67,68
 342 963 342 963 363 928.5 c 128,-1,69
 384 894 384 894 418 866 c 1,70,71
 424 885 424 885 426 903.5 c 128,-1,72
 428 922 428 922 430 944 c 1,73,74
 475 924 475 924 509 916.5 c 128,-1,75
 543 909 543 909 569 909 c 0,76,77
 608 909 608 909 646 922 c 128,-1,78
 684 935 684 935 713 959 c 128,-1,79
 742 983 742 983 760 1018 c 128,-1,80
 778 1053 778 1053 778 1098 c 0,53,54
EndSplineSet
EndChar

StartChar: ae
Encoding: 230 230 106
Width: 2376
Flags: W
LayerCount: 2
Fore
SplineSet
1483 4 m 2,0,1
 1425 4 1425 4 1368 3.5 c 128,-1,2
 1311 3 1311 3 1251.5 -1.5 c 128,-1,3
 1192 -6 1192 -6 1130 -15.5 c 128,-1,4
 1068 -25 1068 -25 1001 -43 c 1,5,6
 1023 22 1023 22 1041 86.5 c 128,-1,7
 1059 151 1059 151 1073 217 c 1,8,9
 938 190 938 190 809 190 c 0,10,11
 771 190 771 190 733 192.5 c 128,-1,12
 695 195 695 195 657 201 c 1,13,14
 595 66 595 66 549 -84 c 1,15,16
 498 -58 498 -58 437 -37 c 0,17,18
 385 -20 385 -20 317 -5 c 128,-1,19
 249 10 249 10 174 10 c 0,20,21
 109 10 109 10 36 -1 c 128,-1,22
 -37 -12 -37 -12 -125 -37 c 1,23,24
 -72 10 -72 10 -24.5 58 c 128,-1,25
 23 106 23 106 67.5 155 c 128,-1,26
 112 204 112 204 154.5 254.5 c 128,-1,27
 197 305 197 305 240 356 c 1,28,-1
 260 381 l 1,29,30
 211 427 211 427 168.5 484.5 c 128,-1,31
 126 542 126 542 92 614 c 1,32,33
 164 579 164 579 232.5 551.5 c 128,-1,34
 301 524 301 524 367 506 c 1,35,36
 426 575 426 575 490 644 c 128,-1,37
 554 713 554 713 624.5 779 c 128,-1,38
 695 845 695 845 773.5 907 c 128,-1,39
 852 969 852 969 940 1024 c 1,40,-1
 664 1053 l 1,41,-1
 659 1053 l 1,42,43
 749 1084 749 1084 855.5 1107 c 128,-1,44
 962 1130 962 1130 1077 1147 c 1,45,46
 1074 1156 1074 1156 1072.5 1165 c 128,-1,47
 1071 1174 1071 1174 1069 1184 c 1,48,49
 1092 1176 1092 1176 1114 1170 c 128,-1,50
 1136 1164 1136 1164 1159 1159 c 1,51,-1
 1219 1165 l 1,52,53
 1279 1190 1279 1190 1343 1211.5 c 128,-1,54
 1407 1233 1407 1233 1479 1251 c 1,55,56
 1460 1236 1460 1236 1441.5 1218.5 c 128,-1,57
 1423 1201 1423 1201 1403 1184 c 1,58,59
 1531 1193 1531 1193 1649.5 1197.5 c 128,-1,60
 1768 1202 1768 1202 1870 1202 c 0,61,62
 1907 1202 1907 1202 1963.5 1199.5 c 128,-1,63
 2020 1197 2020 1197 2081.5 1193 c 128,-1,64
 2143 1189 2143 1189 2203 1185 c 128,-1,65
 2263 1181 2263 1181 2308 1178 c 1,66,67
 2265 1031 2265 1031 2265 874 c 0,68,69
 2265 847 2265 847 2266 813 c 128,-1,70
 2267 779 2267 779 2269 752 c 1,71,72
 2130 804 2130 804 1952 848.5 c 128,-1,73
 1774 893 1774 893 1579 928 c 1,74,75
 1573 868 1573 868 1569 807 c 128,-1,76
 1565 746 1565 746 1563 686 c 1,77,78
 1648 702 1648 702 1736.5 709.5 c 128,-1,79
 1825 717 1825 717 1921 719 c 1,80,81
 1910 682 1910 682 1905.5 645 c 128,-1,82
 1901 608 1901 608 1901 569 c 0,83,84
 1901 538 1901 538 1904 505 c 128,-1,85
 1907 472 1907 472 1915 438 c 1,86,87
 1825 476 1825 476 1737.5 507 c 128,-1,88
 1650 538 1650 538 1561 563 c 1,89,90
 1561 482 1561 482 1565 394.5 c 128,-1,91
 1569 307 1569 307 1577 219 c 1,92,93
 1748 242 1748 242 1921 280.5 c 128,-1,94
 2094 319 2094 319 2271 375 c 1,95,96
 2259 312 2259 312 2253 250 c 128,-1,97
 2247 188 2247 188 2247 131 c 0,98,99
 2247 77 2247 77 2252 23.5 c 128,-1,100
 2257 -30 2257 -30 2269 -86 c 1,101,102
 2099 -49 2099 -49 1933.5 -21.5 c 128,-1,103
 1768 6 1768 6 1599 23 c 1,104,-1
 1604 4 l 1,105,-1
 1483 4 l 2,0,1
803 471 m 1,106,107
 883 483 883 483 962.5 507.5 c 128,-1,108
 1042 532 1042 532 1122 567 c 1,109,110
 1124 601 1124 601 1125 633.5 c 128,-1,111
 1126 666 1126 666 1126 700 c 0,112,113
 1126 748 1126 748 1123.5 796.5 c 128,-1,114
 1121 845 1121 845 1116 895 c 1,115,116
 1036 805 1036 805 956.5 700.5 c 128,-1,117
 877 596 877 596 803 471 c 1,106,107
EndSplineSet
EndChar

StartChar: oslash
Encoding: 248 248 107
Width: 1712
Flags: W
LayerCount: 2
Fore
SplineSet
1649 565 m 0,0,1
 1649 455 1649 455 1612.5 366.5 c 128,-1,2
 1576 278 1576 278 1511.5 208.5 c 128,-1,3
 1447 139 1447 139 1359 88.5 c 128,-1,4
 1271 38 1271 38 1168 5.5 c 128,-1,5
 1065 -27 1065 -27 951 -43 c 128,-1,6
 837 -59 837 -59 721 -59 c 0,7,8
 689 -59 689 -59 656 -58 c 128,-1,9
 623 -57 623 -57 590 -55.5 c 128,-1,10
 557 -54 557 -54 526 -51.5 c 128,-1,11
 495 -49 495 -49 469 -45 c 1,12,13
 418 -85 418 -85 366.5 -119 c 128,-1,14
 315 -153 315 -153 262 -182 c 1,15,16
 312 -119 312 -119 358 -53.5 c 128,-1,17
 404 12 404 12 449 78 c 1,18,19
 366 100 366 100 293.5 138 c 128,-1,20
 221 176 221 176 167.5 230.5 c 128,-1,21
 114 285 114 285 83.5 356.5 c 128,-1,22
 53 428 53 428 53 518 c 0,23,24
 53 624 53 624 88.5 711 c 128,-1,25
 124 798 124 798 187 868 c 128,-1,26
 250 938 250 938 336 990.5 c 128,-1,27
 422 1043 422 1043 522.5 1079.5 c 128,-1,28
 623 1116 623 1116 734 1137.5 c 128,-1,29
 845 1159 845 1159 958 1167 c 1,30,31
 972 1218 972 1218 982.5 1266.5 c 128,-1,32
 993 1315 993 1315 1001 1362 c 1,33,34
 1046 1327 1046 1327 1104 1302 c 128,-1,35
 1162 1277 1162 1277 1226 1261 c 128,-1,36
 1290 1245 1290 1245 1356 1239 c 128,-1,37
 1422 1233 1422 1233 1481 1237 c 1,38,39
 1449 1178 1449 1178 1413.5 1117 c 128,-1,40
 1378 1056 1378 1056 1339 993 c 1,41,42
 1407 965 1407 965 1464 923.5 c 128,-1,43
 1521 882 1521 882 1562 828 c 128,-1,44
 1603 774 1603 774 1626 708 c 128,-1,45
 1649 642 1649 642 1649 565 c 0,0,1
578 283 m 1,46,47
 650 408 650 408 711.5 533 c 128,-1,48
 773 658 773 658 825 782 c 1,49,50
 764 779 764 779 703.5 756.5 c 128,-1,51
 643 734 643 734 595 695 c 128,-1,52
 547 656 547 656 517 601 c 128,-1,53
 487 546 487 546 487 479 c 0,54,55
 487 424 487 424 511.5 375 c 128,-1,56
 536 326 536 326 578 283 c 1,46,47
1188 760 m 1,57,58
 1109 644 1109 644 1024 533.5 c 128,-1,59
 939 423 939 423 848 319 c 1,60,-1
 864 319 l 2,61,62
 929 319 929 319 992 340.5 c 128,-1,63
 1055 362 1055 362 1104.5 403 c 128,-1,64
 1154 444 1154 444 1184 502.5 c 128,-1,65
 1214 561 1214 561 1214 635 c 0,66,67
 1214 672 1214 672 1207 703 c 128,-1,68
 1200 734 1200 734 1188 760 c 1,57,58
EndSplineSet
EndChar

StartChar: AE
Encoding: 198 198 108
Width: 2613
Flags: W
LayerCount: 2
Fore
SplineSet
1769 4 m 1,0,1
 1687 3 1687 3 1606.5 3.5 c 128,-1,2
 1526 4 1526 4 1446.5 1 c 128,-1,3
 1367 -2 1367 -2 1289 -12 c 128,-1,4
 1211 -22 1211 -22 1135 -43 c 1,5,6
 1158 37 1158 37 1177.5 116.5 c 128,-1,7
 1197 196 1197 196 1212 276 c 1,8,9
 1131 256 1131 256 1050 247 c 128,-1,10
 969 238 969 238 891 238 c 0,11,12
 840 238 840 238 792 242.5 c 128,-1,13
 744 247 744 247 696 256 c 1,14,15
 662 174 662 174 631.5 88.5 c 128,-1,16
 601 3 601 3 575 -88 c 1,17,18
 524 -60 524 -60 462 -38 c 0,19,20
 408 -19 408 -19 334.5 -3.5 c 128,-1,21
 261 12 261 12 170 12 c 0,22,23
 98 12 98 12 18 -1.5 c 128,-1,24
 -62 -15 -62 -15 -147 -47 c 1,25,26
 -92 7 -92 7 -38.5 68.5 c 128,-1,27
 15 130 15 130 68.5 196.5 c 128,-1,28
 122 263 122 263 175 333 c 128,-1,29
 228 403 228 403 283 475 c 1,30,31
 177 584 177 584 106 748 c 1,32,33
 182 707 182 707 254.5 677.5 c 128,-1,34
 327 648 327 648 399 627 c 1,35,36
 468 714 468 714 540.5 801.5 c 128,-1,37
 613 889 613 889 692 972 c 128,-1,38
 771 1055 771 1055 857.5 1133 c 128,-1,39
 944 1211 944 1211 1040 1280 c 1,40,41
 959 1291 959 1291 882.5 1299 c 128,-1,42
 806 1307 806 1307 737 1315 c 1,43,44
 840 1355 840 1355 962.5 1384.5 c 128,-1,45
 1085 1414 1085 1414 1219 1436 c 1,46,-1
 1212 1468 l 1,47,48
 1231 1462 1231 1462 1249.5 1456.5 c 128,-1,49
 1268 1451 1268 1451 1286 1446 c 1,50,-1
 1331 1452 l 1,51,52
 1467 1518 1467 1518 1626 1565 c 1,53,54
 1608 1546 1608 1546 1585.5 1523 c 128,-1,55
 1563 1500 1563 1500 1538 1477 c 1,56,57
 1691 1491 1691 1491 1833.5 1497 c 128,-1,58
 1976 1503 1976 1503 2097 1503 c 0,59,60
 2139 1503 2139 1503 2202.5 1499.5 c 128,-1,61
 2266 1496 2266 1496 2333.5 1491.5 c 128,-1,62
 2401 1487 2401 1487 2464 1482 c 128,-1,63
 2527 1477 2527 1477 2570 1473 c 1,64,65
 2521 1290 2521 1290 2521 1094 c 0,66,67
 2521 1022 2521 1022 2527 952 c 1,68,69
 2372 1017 2372 1017 2169.5 1070.5 c 128,-1,70
 1967 1124 1967 1124 1743 1167 c 1,71,72
 1735 1089 1735 1089 1730.5 1008.5 c 128,-1,73
 1726 928 1726 928 1724 850 c 1,74,75
 1926 896 1926 896 2130 899 c 1,76,77
 2119 853 2119 853 2113 807 c 128,-1,78
 2107 761 2107 761 2107 713 c 0,79,80
 2107 676 2107 676 2110.5 639 c 128,-1,81
 2114 602 2114 602 2122 565 c 1,82,83
 2025 612 2025 612 1925.5 649 c 128,-1,84
 1826 686 1826 686 1722 715 c 1,85,86
 1722 609 1722 609 1727 496 c 128,-1,87
 1732 383 1732 383 1741 268 c 1,88,89
 2126 320 2126 320 2527 459 c 1,90,91
 2515 384 2515 384 2508 311 c 128,-1,92
 2501 238 2501 238 2501 164 c 0,93,94
 2501 96 2501 96 2507 29 c 128,-1,95
 2513 -38 2513 -38 2527 -106 c 1,96,97
 2338 -58 2338 -58 2149 -23.5 c 128,-1,98
 1960 11 1960 11 1765 31 c 1,99,100
 1765 25 1765 25 1766 17.5 c 128,-1,101
 1767 10 1767 10 1769 4 c 1,0,1
856 586 m 1,102,103
 1069 610 1069 610 1270 713 c 1,104,105
 1272 755 1272 755 1273 795 c 128,-1,106
 1274 835 1274 835 1274 877 c 0,107,108
 1274 949 1274 949 1269.5 1022 c 128,-1,109
 1265 1095 1265 1095 1257 1169 c 1,110,111
 1158 1052 1158 1052 1055.5 907 c 128,-1,112
 953 762 953 762 856 586 c 1,102,103
EndSplineSet
EndChar

StartChar: Oslash
Encoding: 216 216 109
Width: 1866
Flags: W
LayerCount: 2
Fore
SplineSet
1817 707 m 0,0,1
 1817 570 1817 570 1776.5 458.5 c 128,-1,2
 1736 347 1736 347 1664 260.5 c 128,-1,3
 1592 174 1592 174 1494 111 c 128,-1,4
 1396 48 1396 48 1281 6.5 c 128,-1,5
 1166 -35 1166 -35 1039.5 -54.5 c 128,-1,6
 913 -74 913 -74 784 -74 c 0,7,8
 749 -74 749 -74 712.5 -73 c 128,-1,9
 676 -72 676 -72 640 -70 c 128,-1,10
 604 -68 604 -68 570 -65 c 128,-1,11
 536 -62 536 -62 508 -57 c 1,12,13
 452 -107 452 -107 396.5 -149.5 c 128,-1,14
 341 -192 341 -192 287 -227 c 1,15,16
 342 -149 342 -149 394.5 -68 c 128,-1,17
 447 13 447 13 498 96 c 1,18,19
 404 122 404 122 322 168.5 c 128,-1,20
 240 215 240 215 179.5 283.5 c 128,-1,21
 119 352 119 352 84 442.5 c 128,-1,22
 49 533 49 533 49 647 c 0,23,24
 49 782 49 782 90 892 c 128,-1,25
 131 1002 131 1002 203 1090 c 128,-1,26
 275 1178 275 1178 373 1243.5 c 128,-1,27
 471 1309 471 1309 585.5 1354.5 c 128,-1,28
 700 1400 700 1400 826 1426 c 128,-1,29
 952 1452 952 1452 1079 1460 c 1,30,31
 1093 1516 1093 1516 1103.5 1569 c 128,-1,32
 1114 1622 1114 1622 1122 1673 c 1,33,34
 1165 1637 1165 1637 1226.5 1611 c 128,-1,35
 1288 1585 1288 1585 1356.5 1569 c 128,-1,36
 1425 1553 1425 1553 1495 1547 c 128,-1,37
 1565 1541 1565 1541 1626 1546 c 1,38,39
 1589 1472 1589 1472 1549.5 1397.5 c 128,-1,40
 1510 1323 1510 1323 1468 1245 c 1,41,42
 1543 1210 1543 1210 1607 1158.5 c 128,-1,43
 1671 1107 1671 1107 1717.5 1039.5 c 128,-1,44
 1764 972 1764 972 1790.5 888.5 c 128,-1,45
 1817 805 1817 805 1817 707 c 0,0,1
631 328 m 1,46,47
 719 492 719 492 793.5 655.5 c 128,-1,48
 868 819 868 819 930 981 c 1,49,-1
 926 981 l 2,50,51
 851 981 851 981 774 954.5 c 128,-1,52
 697 928 697 928 635.5 878 c 128,-1,53
 574 828 574 828 535 757 c 128,-1,54
 496 686 496 686 496 598 c 0,55,56
 496 521 496 521 533.5 454 c 128,-1,57
 571 387 571 387 631 328 c 1,46,47
1315 981 m 1,58,59
 1222 829 1222 829 1123.5 682.5 c 128,-1,60
 1025 536 1025 536 920 399 c 1,61,62
 926 397 926 397 933 398 c 128,-1,63
 940 399 940 399 948 399 c 0,64,65
 1026 399 1026 399 1101.5 426 c 128,-1,66
 1177 453 1177 453 1236.5 504 c 128,-1,67
 1296 555 1296 555 1332 628 c 128,-1,68
 1368 701 1368 701 1368 793 c 0,69,70
 1368 851 1368 851 1354 897.5 c 128,-1,71
 1340 944 1340 944 1315 981 c 1,58,59
EndSplineSet
EndChar

StartChar: Euro
Encoding: 8364 8364 111
Width: 1589
Flags: W
LayerCount: 2
Fore
SplineSet
1505 559 m 1,0,1
 1493 472 1493 472 1464 407.5 c 128,-1,2
 1435 343 1435 343 1394.5 297 c 128,-1,3
 1354 251 1354 251 1304.5 221.5 c 128,-1,4
 1255 192 1255 192 1202 175 c 128,-1,5
 1149 158 1149 158 1095.5 151.5 c 128,-1,6
 1042 145 1042 145 993 145 c 0,7,8
 817 145 817 145 684 214 c 128,-1,9
 551 283 551 283 469 422 c 1,10,11
 418 426 418 426 362.5 428 c 128,-1,12
 307 430 307 430 252 428.5 c 128,-1,13
 197 427 197 427 145 420.5 c 128,-1,14
 93 414 93 414 49 399 c 1,15,16
 63 423 63 423 77.5 456.5 c 128,-1,17
 92 490 92 490 105 526 c 128,-1,18
 118 562 118 562 127 596.5 c 128,-1,19
 136 631 136 631 139 657 c 1,20,21
 255 611 255 611 389 614 c 1,22,23
 383 639 383 639 378.5 664 c 128,-1,24
 374 689 374 689 369 717 c 1,25,26
 386 712 386 712 403 708 c 128,-1,27
 420 704 420 704 438 700 c 1,28,29
 440 713 440 713 441.5 726 c 128,-1,30
 443 739 443 739 446 752 c 1,31,32
 371 754 371 754 299 747.5 c 128,-1,33
 227 741 227 741 168 721 c 1,34,35
 180 745 180 745 194.5 779 c 128,-1,36
 209 813 209 813 221.5 849 c 128,-1,37
 234 885 234 885 243 919 c 128,-1,38
 252 953 252 953 254 979 c 1,39,40
 372 932 372 932 508 938 c 1,41,42
 553 1021 553 1021 621 1084 c 128,-1,43
 689 1147 689 1147 775.5 1189 c 128,-1,44
 862 1231 862 1231 964.5 1252.5 c 128,-1,45
 1067 1274 1067 1274 1180 1274 c 0,46,47
 1248 1274 1248 1274 1324.5 1267 c 128,-1,48
 1401 1260 1401 1260 1491 1243 c 1,49,50
 1469 1180 1469 1180 1459.5 1116 c 128,-1,51
 1450 1052 1450 1052 1450 989 c 0,52,53
 1450 955 1450 955 1452.5 921.5 c 128,-1,54
 1455 888 1455 888 1460 856 c 1,55,56
 1377 918 1377 918 1296.5 940.5 c 128,-1,57
 1216 963 1216 963 1147 963 c 0,58,59
 1082 963 1082 963 1013.5 945 c 128,-1,60
 945 927 945 927 883.5 893 c 128,-1,61
 822 859 822 859 773.5 809.5 c 128,-1,62
 725 760 725 760 702 696 c 1,63,64
 730 699 730 699 757.5 706 c 128,-1,65
 785 713 785 713 811 721 c 1,66,67
 809 707 809 707 808 692.5 c 128,-1,68
 807 678 807 678 807 664 c 0,69,70
 807 598 807 598 830 546.5 c 128,-1,71
 853 495 853 495 893 459.5 c 128,-1,72
 933 424 933 424 987.5 405.5 c 128,-1,73
 1042 387 1042 387 1104 387 c 0,74,75
 1140 387 1140 387 1186 394 c 128,-1,76
 1232 401 1232 401 1284 419.5 c 128,-1,77
 1336 438 1336 438 1392 471.5 c 128,-1,78
 1448 505 1448 505 1505 559 c 1,0,1
EndSplineSet
EndChar

StartChar: cent
Encoding: 162 162 112
Width: 1262
Flags: W
LayerCount: 2
Fore
SplineSet
1182 547 m 1,0,1
 1167 437 1167 437 1125.5 363 c 128,-1,2
 1084 289 1084 289 1027 242 c 128,-1,3
 970 195 970 195 902.5 172 c 128,-1,4
 835 149 835 149 768 141 c 1,5,6
 774 36 774 36 785.5 -60.5 c 128,-1,7
 797 -157 797 -157 815 -242 c 1,8,9
 803 -240 803 -240 787 -239 c 128,-1,10
 771 -238 771 -238 756 -238 c 0,11,12
 724 -238 724 -238 688.5 -242 c 128,-1,13
 653 -246 653 -246 618 -255 c 128,-1,14
 583 -264 583 -264 549.5 -277.5 c 128,-1,15
 516 -291 516 -291 489 -309 c 1,16,17
 502 -212 502 -212 510.5 -95.5 c 128,-1,18
 519 21 519 21 524 147 c 1,19,20
 429 166 429 166 349.5 210 c 128,-1,21
 270 254 270 254 209.5 324 c 128,-1,22
 149 394 149 394 107.5 489.5 c 128,-1,23
 66 585 66 585 47 707 c 1,24,25
 64 700 64 700 81 696.5 c 128,-1,26
 98 693 98 693 117 688 c 1,27,28
 126 786 126 786 159 868 c 128,-1,29
 192 950 192 950 244.5 1015.5 c 128,-1,30
 297 1081 297 1081 367.5 1129 c 128,-1,31
 438 1177 438 1177 522 1208 c 1,32,33
 517 1312 517 1312 507 1405.5 c 128,-1,34
 497 1499 497 1499 483 1579 c 1,35,36
 497 1576 497 1576 515 1573.5 c 128,-1,37
 533 1571 533 1571 553 1571 c 0,38,39
 586 1571 586 1571 623.5 1576 c 128,-1,40
 661 1581 661 1581 698 1591.5 c 128,-1,41
 735 1602 735 1602 769.5 1618 c 128,-1,42
 804 1634 804 1634 831 1657 c 1,43,44
 811 1567 811 1567 797 1467.5 c 128,-1,45
 783 1368 783 1368 774 1260 c 1,46,47
 794 1262 794 1262 814 1263 c 128,-1,48
 834 1264 834 1264 856 1264 c 0,49,50
 924 1264 924 1264 1001.5 1256 c 128,-1,51
 1079 1248 1079 1248 1167 1233 c 1,52,53
 1128 1107 1128 1107 1128 977 c 0,54,55
 1128 945 1128 945 1130 911.5 c 128,-1,56
 1132 878 1132 878 1137 844 c 1,57,58
 1055 907 1055 907 975 929.5 c 128,-1,59
 895 952 895 952 825 952 c 0,60,61
 760 952 760 952 691.5 934 c 128,-1,62
 623 916 623 916 561.5 882 c 128,-1,63
 500 848 500 848 452 798.5 c 128,-1,64
 404 749 404 749 381 686 c 1,65,66
 409 691 409 691 435 697 c 128,-1,67
 461 703 461 703 487 711 c 1,68,69
 485 695 485 695 484 681 c 128,-1,70
 483 667 483 667 483 653 c 0,71,72
 483 588 483 588 506 536.5 c 128,-1,73
 529 485 529 485 569.5 449.5 c 128,-1,74
 610 414 610 414 664.5 395.5 c 128,-1,75
 719 377 719 377 782 377 c 0,76,77
 818 377 818 377 864 383.5 c 128,-1,78
 910 390 910 390 962 408 c 128,-1,79
 1014 426 1014 426 1070 459.5 c 128,-1,80
 1126 493 1126 493 1182 547 c 1,0,1
EndSplineSet
EndChar

StartChar: sterling
Encoding: 163 163 113
Width: 1155
Flags: W
LayerCount: 2
Fore
SplineSet
1063 170 m 1,0,1
 965 201 965 201 849 221 c 128,-1,2
 733 241 733 241 607 247 c 128,-1,3
 481 253 481 253 349.5 245.5 c 128,-1,4
 218 238 218 238 88 215 c 1,5,6
 119 252 119 252 155 282.5 c 128,-1,7
 191 313 191 313 231 338 c 1,8,9
 244 415 244 415 251 490.5 c 128,-1,10
 258 566 258 566 260 641 c 1,11,12
 212 638 212 638 172 631.5 c 128,-1,13
 132 625 132 625 104 614 c 1,14,15
 108 639 108 639 110.5 673 c 128,-1,16
 113 707 113 707 112.5 743 c 128,-1,17
 112 779 112 779 108.5 813 c 128,-1,18
 105 847 105 847 98 872 c 1,19,20
 171 847 171 847 260 838 c 1,21,22
 259 860 259 860 257.5 880.5 c 128,-1,23
 256 901 256 901 253.5 922 c 128,-1,24
 251 943 251 943 247 967 c 128,-1,25
 243 991 243 991 238 1020 c 1,26,27
 184 998 184 998 145.5 978 c 128,-1,28
 107 958 107 958 88 942 c 1,29,30
 118 1047 118 1047 171.5 1121.5 c 128,-1,31
 225 1196 225 1196 296.5 1245.5 c 128,-1,32
 368 1295 368 1295 452.5 1323 c 128,-1,33
 537 1351 537 1351 629.5 1365 c 128,-1,34
 722 1379 722 1379 817.5 1382 c 128,-1,35
 913 1385 913 1385 1006 1384 c 1,36,37
 983 1339 983 1339 969.5 1295.5 c 128,-1,38
 956 1252 956 1252 950 1208.5 c 128,-1,39
 944 1165 944 1165 944.5 1119.5 c 128,-1,40
 945 1074 945 1074 950 1026 c 1,41,42
 859 1068 859 1068 763.5 1082.5 c 128,-1,43
 668 1097 668 1097 575 1092 c 1,44,45
 573 1027 573 1027 572.5 965.5 c 128,-1,46
 572 904 572 904 567 842 c 1,47,48
 612 850 612 850 655.5 859.5 c 128,-1,49
 699 869 699 869 737 883 c 1,50,51
 729 859 729 859 726 825.5 c 128,-1,52
 723 792 723 792 723.5 757 c 128,-1,53
 724 722 724 722 727.5 688 c 128,-1,54
 731 654 731 654 737 629 c 1,55,-1
 549 641 l 1,56,57
 543 591 543 591 534 542 c 128,-1,58
 525 493 525 493 514 442 c 1,59,60
 629 467 629 467 771.5 481.5 c 128,-1,61
 914 496 914 496 1090 508 c 1,62,63
 1080 484 1080 484 1070.5 443.5 c 128,-1,64
 1061 403 1061 403 1056 356 c 128,-1,65
 1051 309 1051 309 1052 260 c 128,-1,66
 1053 211 1053 211 1063 170 c 1,0,1
EndSplineSet
EndChar

StartChar: section
Encoding: 167 167 114
Width: 1731
Flags: W
LayerCount: 2
Fore
SplineSet
1661 377 m 1,0,1
 1664 355 1664 355 1664.5 334 c 128,-1,2
 1665 313 1665 313 1665 293 c 0,3,4
 1665 188 1665 188 1632.5 96 c 128,-1,5
 1600 4 1600 4 1543 -73 c 128,-1,6
 1486 -150 1486 -150 1408 -211 c 128,-1,7
 1330 -272 1330 -272 1239.5 -314 c 128,-1,8
 1149 -356 1149 -356 1049.5 -378.5 c 128,-1,9
 950 -401 950 -401 850 -401 c 0,10,11
 788 -401 788 -401 715.5 -393 c 128,-1,12
 643 -385 643 -385 568.5 -382 c 128,-1,13
 494 -379 494 -379 423 -387.5 c 128,-1,14
 352 -396 352 -396 293 -428 c 1,15,16
 256 -291 256 -291 214 -179.5 c 128,-1,17
 172 -68 172 -68 137 11 c 0,18,19
 96 103 96 103 55 176 c 1,20,21
 174 114 174 114 294 78 c 128,-1,22
 414 42 414 42 521.5 22.5 c 128,-1,23
 629 3 629 3 718.5 -2.5 c 128,-1,24
 808 -8 808 -8 866 -8 c 0,25,26
 950 -8 950 -8 1035.5 5.5 c 128,-1,27
 1121 19 1121 19 1206 47 c 1,28,29
 1170 88 1170 88 1124.5 111.5 c 128,-1,30
 1079 135 1079 135 1027 148.5 c 128,-1,31
 975 162 975 162 918 169 c 128,-1,32
 861 176 861 176 801.5 183.5 c 128,-1,33
 742 191 742 191 681.5 202 c 128,-1,34
 621 213 621 213 562 234.5 c 128,-1,35
 503 256 503 256 447 291.5 c 128,-1,36
 391 327 391 327 340 383 c 0,37,38
 263 467 263 467 231 551.5 c 128,-1,39
 199 636 199 636 201.5 716.5 c 128,-1,40
 204 797 204 797 236 872.5 c 128,-1,41
 268 948 268 948 319 1016 c 1,42,43
 287 1048 287 1048 266 1085 c 128,-1,44
 245 1122 245 1122 233 1160 c 128,-1,45
 221 1198 221 1198 215.5 1235.5 c 128,-1,46
 210 1273 210 1273 209 1307 c 1,47,48
 174 1292 174 1292 146 1279.5 c 128,-1,49
 118 1267 118 1267 98 1257 c 0,50,51
 75 1246 75 1246 57 1237 c 1,52,53
 93 1346 93 1346 157.5 1428.5 c 128,-1,54
 222 1511 222 1511 303 1572 c 128,-1,55
 384 1633 384 1633 475.5 1675 c 128,-1,56
 567 1717 567 1717 657 1744 c 0,57,58
 868 1807 868 1807 1112 1817 c 1,59,60
 1187 1818 1187 1818 1273 1823 c 0,61,62
 1347 1828 1347 1828 1442.5 1838 c 128,-1,63
 1538 1848 1538 1848 1642 1868 c 1,64,65
 1611 1820 1611 1820 1591.5 1764.5 c 128,-1,66
 1572 1709 1572 1709 1561 1651.5 c 128,-1,67
 1550 1594 1550 1594 1546 1539 c 128,-1,68
 1542 1484 1542 1484 1542 1438 c 0,69,70
 1542 1407 1542 1407 1543 1381.5 c 128,-1,71
 1544 1356 1544 1356 1546 1338 c 0,72,73
 1548 1317 1548 1317 1550 1300 c 1,74,75
 1376 1379 1376 1379 1210 1410.5 c 128,-1,76
 1044 1442 1044 1442 889 1442 c 0,77,78
 836 1442 836 1442 788 1439 c 128,-1,79
 740 1436 740 1436 692 1430 c 1,80,81
 703 1382 703 1382 731.5 1350 c 128,-1,82
 760 1318 760 1318 789 1298 c 0,83,84
 823 1275 823 1275 862 1262 c 0,85,86
 918 1244 918 1244 992 1219 c 128,-1,87
 1066 1194 1066 1194 1144 1158.5 c 128,-1,88
 1222 1123 1222 1123 1298 1076.5 c 128,-1,89
 1374 1030 1374 1030 1434 971 c 128,-1,90
 1494 912 1494 912 1530.5 839 c 128,-1,91
 1567 766 1567 766 1567 678 c 0,92,93
 1567 607 1567 607 1550.5 548.5 c 128,-1,94
 1534 490 1534 490 1509.5 444.5 c 128,-1,95
 1485 399 1485 399 1457 365.5 c 128,-1,96
 1429 332 1429 332 1407 311 c 1,97,98
 1429 285 1429 285 1446 255 c 128,-1,99
 1463 225 1463 225 1479 190 c 1,100,101
 1530 229 1530 229 1575.5 275 c 128,-1,102
 1621 321 1621 321 1661 377 c 1,0,1
1032 731 m 1,103,104
 1005 743 1005 743 961 755.5 c 128,-1,105
 917 768 917 768 862.5 782.5 c 128,-1,106
 808 797 808 797 746.5 814 c 128,-1,107
 685 831 685 831 623 852 c 1,108,109
 623 814 623 814 636 776.5 c 128,-1,110
 649 739 649 739 674.5 706 c 128,-1,111
 700 673 700 673 739 647 c 128,-1,112
 778 621 778 621 829 608 c 1,113,114
 866 597 866 597 907.5 585.5 c 128,-1,115
 949 574 949 574 993 560.5 c 128,-1,116
 1037 547 1037 547 1082 531 c 128,-1,117
 1127 515 1127 515 1171 494 c 1,118,119
 1175 524 1175 524 1172 550 c 128,-1,120
 1169 576 1169 576 1160 598 c 128,-1,121
 1151 620 1151 620 1138 638.5 c 128,-1,122
 1125 657 1125 657 1111 672 c 0,123,124
 1078 706 1078 706 1032 731 c 1,103,104
EndSplineSet
EndChar

StartChar: paragraph
Encoding: 182 182 115
Width: 2206
Flags: W
LayerCount: 2
Fore
SplineSet
51 1112 m 1,0,1
 74 1095 74 1095 100 1081 c 128,-1,2
 126 1067 126 1067 152 1055 c 1,3,-1
 152 1059 l 1,4,5
 172 1163 172 1163 228.5 1242.5 c 128,-1,6
 285 1322 285 1322 368.5 1380.5 c 128,-1,7
 452 1439 452 1439 558 1478 c 128,-1,8
 664 1517 664 1517 783.5 1540 c 128,-1,9
 903 1563 903 1563 1031 1573 c 128,-1,10
 1159 1583 1159 1583 1286 1583 c 0,11,12
 1416 1583 1416 1583 1540.5 1575 c 128,-1,13
 1665 1567 1665 1567 1775.5 1555 c 128,-1,14
 1886 1543 1886 1543 1977 1529 c 128,-1,15
 2068 1515 2068 1515 2130 1503 c 1,16,17
 2099 1441 2099 1441 2086 1372.5 c 128,-1,18
 2073 1304 2073 1304 2073 1235 c 0,19,20
 2073 1173 2073 1173 2082.5 1114 c 128,-1,21
 2092 1055 2092 1055 2107 999 c 1,22,23
 2084 1010 2084 1010 2025.5 1027 c 128,-1,24
 1967 1044 1967 1044 1880 1063 c 1,25,-1
 1880 942 l 2,26,27
 1880 672 1880 672 1906 419.5 c 128,-1,28
 1932 167 1932 167 1991 -76 c 1,29,30
 1896 -53 1896 -53 1814 -38 c 128,-1,31
 1732 -23 1732 -23 1651 -23 c 0,32,33
 1606 -23 1606 -23 1561 -27.5 c 128,-1,34
 1516 -32 1516 -32 1466 -43 c 1,35,36
 1471 100 1471 100 1474 237 c 128,-1,37
 1477 374 1477 374 1477 510 c 1,38,39
 1446 487 1446 487 1413.5 466 c 128,-1,40
 1381 445 1381 445 1343 426 c 1,41,42
 1356 284 1356 284 1378 149 c 128,-1,43
 1400 14 1400 14 1434 -117 c 1,44,45
 1384 -94 1384 -94 1337 -78 c 128,-1,46
 1290 -62 1290 -62 1245 -52.5 c 128,-1,47
 1200 -43 1200 -43 1155.5 -39 c 128,-1,48
 1111 -35 1111 -35 1065 -35 c 0,49,50
 1028 -35 1028 -35 991 -37.5 c 128,-1,51
 954 -40 954 -40 913 -43 c 1,52,53
 917 51 917 51 919.5 143 c 128,-1,54
 922 235 922 235 922 326 c 1,55,-1
 915 326 l 2,56,57
 803 326 803 326 696 350 c 128,-1,58
 589 374 589 374 494 420 c 128,-1,59
 399 466 399 466 319 533.5 c 128,-1,60
 239 601 239 601 180 688.5 c 128,-1,61
 121 776 121 776 87 882.5 c 128,-1,62
 53 989 53 989 51 1112 c 1,0,1
672 958 m 1,63,64
 679 895 679 895 700 847 c 128,-1,65
 721 799 721 799 754 763.5 c 128,-1,66
 787 728 787 728 830 704.5 c 128,-1,67
 873 681 873 681 924 668 c 1,68,69
 922 786 922 786 920 902.5 c 128,-1,70
 918 1019 918 1019 913 1137 c 1,71,72
 848 1128 848 1128 789 1114.5 c 128,-1,73
 730 1101 730 1101 678.5 1080.5 c 128,-1,74
 627 1060 627 1060 585 1033 c 128,-1,75
 543 1006 543 1006 512 971 c 1,76,-1
 672 958 l 1,63,64
1329 1141 m 1,77,78
 1326 1073 1326 1073 1325.5 1007 c 128,-1,79
 1325 941 1325 941 1325 874 c 0,80,81
 1325 822 1325 822 1326 771.5 c 128,-1,82
 1327 721 1327 721 1329 672 c 1,83,84
 1366 678 1366 678 1402.5 687 c 128,-1,85
 1439 696 1439 696 1477 707 c 1,86,87
 1475 815 1475 815 1473 919.5 c 128,-1,88
 1471 1024 1471 1024 1466 1130 c 1,89,90
 1432 1134 1432 1134 1397.5 1136.5 c 128,-1,91
 1363 1139 1363 1139 1329 1141 c 1,77,78
EndSplineSet
EndChar

StartChar: registered
Encoding: 174 174 117
Width: 1614
Flags: W
LayerCount: 2
Fore
SplineSet
455 268 m 1,0,1
 380 290 380 290 311.5 327 c 128,-1,2
 243 364 243 364 190 420 c 128,-1,3
 137 476 137 476 105.5 552 c 128,-1,4
 74 628 74 628 74 727 c 0,5,6
 74 803 74 803 93.5 877 c 128,-1,7
 113 951 113 951 153.5 1018 c 128,-1,8
 194 1085 194 1085 255.5 1141.5 c 128,-1,9
 317 1198 317 1198 400.5 1239 c 128,-1,10
 484 1280 484 1280 590.5 1303.5 c 128,-1,11
 697 1327 697 1327 827 1327 c 0,12,13
 910 1327 910 1327 977.5 1318.5 c 128,-1,14
 1045 1310 1045 1310 1094 1300 c 0,15,16
 1151 1289 1151 1289 1196 1274 c 1,17,18
 1187 1266 1187 1266 1176.5 1257 c 128,-1,19
 1166 1248 1166 1248 1157 1237 c 1,20,21
 1232 1216 1232 1216 1301.5 1178.5 c 128,-1,22
 1371 1141 1371 1141 1424 1085.5 c 128,-1,23
 1477 1030 1477 1030 1508.5 954 c 128,-1,24
 1540 878 1540 878 1540 780 c 0,25,26
 1540 704 1540 704 1520.5 630 c 128,-1,27
 1501 556 1501 556 1460.5 489 c 128,-1,28
 1420 422 1420 422 1358.5 365.5 c 128,-1,29
 1297 309 1297 309 1213 268 c 128,-1,30
 1129 227 1129 227 1022.5 203.5 c 128,-1,31
 916 180 916 180 786 180 c 0,32,33
 703 180 703 180 636 188 c 128,-1,34
 569 196 569 196 520 206 c 0,35,36
 463 217 463 217 418 233 c 1,37,-1
 455 268 l 1,0,1
311 686 m 0,38,39
 311 568 311 568 367.5 488 c 128,-1,40
 424 408 424 408 524 358 c 1,41,42
 553 403 553 403 571 444 c 1,43,44
 640 421 640 421 697.5 412 c 128,-1,45
 755 403 755 403 805 403 c 0,46,47
 919 403 919 403 1011.5 430 c 128,-1,48
 1104 457 1104 457 1168.5 510 c 128,-1,49
 1233 563 1233 563 1268 641 c 128,-1,50
 1303 719 1303 719 1303 821 c 0,51,52
 1303 937 1303 937 1245.5 1018 c 128,-1,53
 1188 1099 1188 1099 1087 1149 c 1,54,55
 1073 1127 1073 1127 1061.5 1105 c 128,-1,56
 1050 1083 1050 1083 1042 1063 c 1,57,58
 974 1086 974 1086 916 1095 c 128,-1,59
 858 1104 858 1104 809 1104 c 0,60,61
 695 1104 695 1104 602.5 1077 c 128,-1,62
 510 1050 510 1050 445.5 997 c 128,-1,63
 381 944 381 944 346 866 c 128,-1,64
 311 788 311 788 311 686 c 0,38,39
1182 545 m 1,65,66
 1120 542 1120 542 1062 524.5 c 128,-1,67
 1004 507 1004 507 944 479 c 1,68,69
 939 524 939 524 928.5 564.5 c 128,-1,70
 918 605 918 605 899 643 c 1,71,72
 884 640 884 640 866 638.5 c 128,-1,73
 848 637 848 637 831 637 c 0,74,75
 823 637 823 637 816 637 c 128,-1,76
 809 637 809 637 803 639 c 1,77,78
 803 572 803 572 809 508 c 1,79,80
 795 511 795 511 781 511.5 c 128,-1,81
 767 512 767 512 756 512 c 0,82,83
 714 512 714 512 664 502 c 128,-1,84
 614 492 614 492 557 473 c 1,85,86
 579 530 579 530 594 588 c 128,-1,87
 609 646 609 646 618 705 c 1,88,89
 589 723 589 723 568.5 741.5 c 128,-1,90
 548 760 548 760 539 772 c 1,91,92
 559 766 559 766 581 760.5 c 128,-1,93
 603 755 603 755 625 752 c 1,94,95
 631 800 631 800 631 850 c 2,96,-1
 631 864 l 1,97,98
 608 858 608 858 585 849.5 c 128,-1,99
 562 841 562 841 541 831 c 1,100,101
 555 872 555 872 555 909 c 0,102,103
 555 938 555 938 546.5 965.5 c 128,-1,104
 538 993 538 993 524 1016 c 1,105,106
 615 1028 615 1028 685 1033 c 128,-1,107
 755 1038 755 1038 809 1038 c 0,108,109
 834 1038 834 1038 866 1037 c 128,-1,110
 898 1036 898 1036 932.5 1031.5 c 128,-1,111
 967 1027 967 1027 1001 1019 c 128,-1,112
 1035 1011 1035 1011 1063.5 997 c 128,-1,113
 1092 983 1092 983 1112.5 962 c 128,-1,114
 1133 941 1133 941 1141 911 c 1,115,116
 1150 916 1150 916 1160 921 c 128,-1,117
 1170 926 1170 926 1180 932 c 1,118,119
 1169 870 1169 870 1133.5 813 c 128,-1,120
 1098 756 1098 756 1042 713 c 1,121,122
 1073 665 1073 665 1108 623.5 c 128,-1,123
 1143 582 1143 582 1182 545 c 1,65,66
895 909 m 0,124,125
 859 909 859 909 807 903 c 1,126,127
 805 863 805 863 804 823.5 c 128,-1,128
 803 784 803 784 803 743 c 1,129,130
 854 751 854 751 890 777.5 c 128,-1,131
 926 804 926 804 934 858 c 1,132,133
 949 860 949 860 965.5 862.5 c 128,-1,134
 982 865 982 865 997 868 c 1,135,-1
 997 870 l 1,136,-1
 999 870 l 1,137,138
 991 879 991 879 982 886.5 c 128,-1,139
 973 894 973 894 961 899 c 128,-1,140
 949 904 949 904 933 906.5 c 128,-1,141
 917 909 917 909 895 909 c 0,124,125
EndSplineSet
EndChar

StartChar: copyright
Encoding: 169 169 118
Width: 1614
Flags: W
LayerCount: 2
Fore
SplineSet
455 268 m 1,0,1
 380 290 380 290 311.5 327 c 128,-1,2
 243 364 243 364 190 420 c 128,-1,3
 137 476 137 476 105.5 552 c 128,-1,4
 74 628 74 628 74 727 c 0,5,6
 74 803 74 803 93.5 877 c 128,-1,7
 113 951 113 951 153.5 1018 c 128,-1,8
 194 1085 194 1085 255.5 1141.5 c 128,-1,9
 317 1198 317 1198 400.5 1239 c 128,-1,10
 484 1280 484 1280 590.5 1303.5 c 128,-1,11
 697 1327 697 1327 827 1327 c 0,12,13
 910 1327 910 1327 977.5 1318.5 c 128,-1,14
 1045 1310 1045 1310 1094 1300 c 0,15,16
 1151 1289 1151 1289 1196 1274 c 1,17,18
 1187 1266 1187 1266 1176.5 1257 c 128,-1,19
 1166 1248 1166 1248 1157 1237 c 1,20,21
 1232 1216 1232 1216 1301.5 1178.5 c 128,-1,22
 1371 1141 1371 1141 1424 1085.5 c 128,-1,23
 1477 1030 1477 1030 1508.5 954 c 128,-1,24
 1540 878 1540 878 1540 780 c 0,25,26
 1540 704 1540 704 1520.5 630 c 128,-1,27
 1501 556 1501 556 1460.5 489 c 128,-1,28
 1420 422 1420 422 1358.5 365.5 c 128,-1,29
 1297 309 1297 309 1213 268 c 128,-1,30
 1129 227 1129 227 1022.5 203.5 c 128,-1,31
 916 180 916 180 786 180 c 0,32,33
 703 180 703 180 636 188 c 128,-1,34
 569 196 569 196 520 206 c 0,35,36
 463 217 463 217 418 233 c 1,37,-1
 455 268 l 1,0,1
311 686 m 0,38,39
 311 568 311 568 367.5 488 c 128,-1,40
 424 408 424 408 524 358 c 1,41,42
 553 403 553 403 571 444 c 1,43,44
 640 421 640 421 697.5 412 c 128,-1,45
 755 403 755 403 805 403 c 0,46,47
 919 403 919 403 1011.5 430 c 128,-1,48
 1104 457 1104 457 1168.5 510 c 128,-1,49
 1233 563 1233 563 1268 641 c 128,-1,50
 1303 719 1303 719 1303 821 c 0,51,52
 1303 937 1303 937 1245.5 1018 c 128,-1,53
 1188 1099 1188 1099 1087 1149 c 1,54,55
 1073 1127 1073 1127 1061.5 1105 c 128,-1,56
 1050 1083 1050 1083 1042 1063 c 1,57,58
 974 1086 974 1086 916 1095 c 128,-1,59
 858 1104 858 1104 809 1104 c 0,60,61
 695 1104 695 1104 602.5 1077 c 128,-1,62
 510 1050 510 1050 445.5 997 c 128,-1,63
 381 944 381 944 346 866 c 128,-1,64
 311 788 311 788 311 686 c 0,38,39
1092 688 m 1,65,66
 1084 637 1084 637 1054 600 c 128,-1,67
 1024 563 1024 563 983.5 538 c 128,-1,68
 943 513 943 513 897.5 501 c 128,-1,69
 852 489 852 489 813 489 c 0,70,71
 676 489 676 489 587.5 559.5 c 128,-1,72
 499 630 499 630 473 770 c 1,73,74
 482 767 482 767 491.5 764.5 c 128,-1,75
 501 762 501 762 510 760 c 1,76,77
 517 827 517 827 551 878 c 128,-1,78
 585 929 585 929 638 963.5 c 128,-1,79
 691 998 691 998 760.5 1015 c 128,-1,80
 830 1032 830 1032 909 1032 c 0,81,82
 946 1032 946 1032 988 1029 c 128,-1,83
 1030 1026 1030 1026 1081 1018 c 1,84,85
 1070 989 1070 989 1066.5 958 c 128,-1,86
 1063 927 1063 927 1063 895 c 0,87,88
 1063 879 1063 879 1064 861.5 c 128,-1,89
 1065 844 1065 844 1071 819 c 1,90,91
 1017 856 1017 856 972 869.5 c 128,-1,92
 927 883 927 883 895 883 c 256,93,94
 863 883 863 883 828 874.5 c 128,-1,95
 793 866 793 866 762 850 c 128,-1,96
 731 834 731 834 706 810.5 c 128,-1,97
 681 787 681 787 668 756 c 1,98,-1
 725 770 l 1,99,100
 723 762 723 762 723 754 c 128,-1,101
 723 746 723 746 723 739 c 0,102,103
 723 676 723 676 765 642 c 128,-1,104
 807 608 807 608 870 608 c 0,105,106
 889 608 889 608 912.5 611 c 128,-1,107
 936 614 936 614 964 623 c 128,-1,108
 992 632 992 632 1024 647.5 c 128,-1,109
 1056 663 1056 663 1092 688 c 1,65,66
EndSplineSet
EndChar

StartChar: trademark
Encoding: 8482 8482 119
Width: 1722
Flags: W
LayerCount: 2
Fore
SplineSet
547 838 m 2,0,1
 490 838 490 838 433 829.5 c 128,-1,2
 376 821 376 821 317 803 c 1,3,4
 315 815 315 815 315 829 c 128,-1,5
 315 843 315 843 315 854 c 0,6,7
 315 969 315 969 333 1072.5 c 128,-1,8
 351 1176 351 1176 393 1276 c 1,9,10
 321 1268 321 1268 248.5 1250.5 c 128,-1,11
 176 1233 176 1233 104 1204 c 1,12,13
 123 1273 123 1273 123 1335 c 0,14,15
 123 1363 123 1363 119 1392 c 128,-1,16
 115 1421 115 1421 109 1450 c 1,17,18
 194 1433 194 1433 282.5 1420.5 c 128,-1,19
 371 1408 371 1408 459 1405 c 1,20,21
 473 1428 473 1428 488 1449.5 c 128,-1,22
 503 1471 503 1471 520 1493 c 1,23,-1
 514 1405 l 1,24,-1
 518 1405 l 2,25,26
 526 1405 526 1405 545 1405.5 c 128,-1,27
 564 1406 564 1406 588 1407.5 c 128,-1,28
 612 1409 612 1409 639 1410.5 c 128,-1,29
 666 1412 666 1412 689.5 1414 c 128,-1,30
 713 1416 713 1416 730.5 1418 c 128,-1,31
 748 1420 748 1420 754 1423 c 1,32,33
 751 1417 751 1417 748 1412 c 128,-1,34
 745 1407 745 1407 743 1401 c 1,35,36
 756 1399 756 1399 769.5 1399 c 128,-1,37
 783 1399 783 1399 799 1399 c 0,38,39
 841 1399 841 1399 892.5 1407 c 128,-1,40
 944 1415 944 1415 1001 1440 c 1,41,42
 1034 1394 1034 1394 1067 1335 c 0,43,44
 1095 1284 1095 1284 1126 1212.5 c 128,-1,45
 1157 1141 1157 1141 1182 1053 c 1,46,-1
 1217 1139 l 2,47,48
 1234 1182 1234 1182 1249.5 1221.5 c 128,-1,49
 1265 1261 1265 1261 1278.5 1299 c 128,-1,50
 1292 1337 1292 1337 1303 1376 c 128,-1,51
 1314 1415 1314 1415 1323 1456 c 1,52,53
 1359 1437 1359 1437 1397 1426.5 c 128,-1,54
 1435 1416 1435 1416 1470 1411.5 c 128,-1,55
 1505 1407 1505 1407 1536 1406 c 128,-1,56
 1567 1405 1567 1405 1589 1405 c 1,57,58
 1551 1326 1551 1326 1536.5 1261 c 128,-1,59
 1522 1196 1522 1196 1522 1141 c 256,60,61
 1522 1086 1522 1086 1533.5 1041 c 128,-1,62
 1545 996 1545 996 1564 959.5 c 128,-1,63
 1583 923 1583 923 1606.5 894 c 128,-1,64
 1630 865 1630 865 1653 842 c 1,65,66
 1633 842 1633 842 1616 844 c 128,-1,67
 1599 846 1599 846 1579 846 c 0,68,69
 1536 846 1536 846 1495.5 835 c 128,-1,70
 1455 824 1455 824 1401 803 c 1,71,72
 1378 862 1378 862 1364 920 c 128,-1,73
 1350 978 1350 978 1343 1038 c 1,74,75
 1319 989 1319 989 1302.5 935 c 128,-1,76
 1286 881 1286 881 1278 821 c 1,77,78
 1272 821 1272 821 1252.5 820.5 c 128,-1,79
 1233 820 1233 820 1205.5 817.5 c 128,-1,80
 1178 815 1178 815 1145 810 c 128,-1,81
 1112 805 1112 805 1079 795 c 1,82,83
 1071 863 1071 863 1055.5 921.5 c 128,-1,84
 1040 980 1040 980 1014 1034 c 1,85,86
 1008 975 1008 975 993 917.5 c 128,-1,87
 978 860 978 860 956 803 c 1,88,89
 850 846 850 846 750 846 c 0,90,91
 734 846 734 846 712.5 844 c 128,-1,92
 691 842 691 842 670 840 c 1,93,94
 748 915 748 915 788.5 1009 c 128,-1,95
 829 1103 829 1103 829 1219 c 0,96,97
 829 1231 829 1231 829 1245.5 c 128,-1,98
 829 1260 829 1260 827 1276 c 1,99,100
 804 1298 804 1298 780.5 1318 c 128,-1,101
 757 1338 757 1338 731 1358 c 1,102,-1
 731 1337 l 2,103,104
 731 1322 731 1322 734 1302 c 128,-1,105
 737 1282 737 1282 745 1257 c 1,106,107
 690 1270 690 1270 632 1276 c 128,-1,108
 574 1282 574 1282 514 1282 c 1,109,110
 517 1170 517 1170 536 1058.5 c 128,-1,111
 555 947 555 947 590 838 c 1,112,-1
 547 838 l 2,0,1
EndSplineSet
EndChar

StartChar: five
Encoding: 53 53 120
Width: 1563
Flags: W
LayerCount: 2
Fore
SplineSet
1454 285 m 0,0,1
 1429 189 1429 189 1373.5 109 c 128,-1,2
 1318 29 1318 29 1230.5 -27.5 c 128,-1,3
 1143 -84 1143 -84 1023.5 -113.5 c 128,-1,4
 904 -143 904 -143 752.5 -139 c 128,-1,5
 601 -135 601 -135 417 -93.5 c 128,-1,6
 233 -52 233 -52 16 33 c 1,7,-1
 180 543 l 1,8,9
 216 496 216 496 269.5 453 c 128,-1,10
 323 410 323 410 385.5 374.5 c 128,-1,11
 448 339 448 339 516 312 c 128,-1,12
 584 285 584 285 650.5 270.5 c 128,-1,13
 717 256 717 256 777.5 254.5 c 128,-1,14
 838 253 838 253 885.5 268 c 128,-1,15
 933 283 933 283 963 316 c 128,-1,16
 993 349 993 349 999 403 c 0,17,18
 1004 447 1004 447 980 489 c 128,-1,19
 956 531 956 531 910.5 569 c 128,-1,20
 865 607 865 607 803 639.5 c 128,-1,21
 741 672 741 672 669.5 698 c 128,-1,22
 598 724 598 724 521.5 742 c 128,-1,23
 445 760 445 760 371.5 768.5 c 128,-1,24
 298 777 298 777 232 775 c 128,-1,25
 166 773 166 773 115 758 c 1,26,27
 162 813 162 813 236 848 c 1,28,-1
 274 1300 l 1,29,30
 228 1336 228 1336 188.5 1377.5 c 128,-1,31
 149 1419 149 1419 115 1470 c 1,32,33
 287 1449 287 1449 466 1440.5 c 128,-1,34
 645 1432 645 1432 827 1440 c 128,-1,35
 1009 1448 1009 1448 1191.5 1475 c 128,-1,36
 1374 1502 1374 1502 1552 1550 c 1,37,38
 1506 1429 1506 1429 1484.5 1306.5 c 128,-1,39
 1463 1184 1463 1184 1460 1057 c 1,40,41
 1227 1052 1227 1052 1029 1065.5 c 128,-1,42
 831 1079 831 1079 668 1120 c 1,43,-1
 649 911 l 1,44,45
 717 909 717 909 776.5 902 c 128,-1,46
 836 895 836 895 881 888 c 0,47,48
 934 879 934 879 979 870 c 1,49,50
 1084 845 1084 845 1163.5 805.5 c 128,-1,51
 1243 766 1243 766 1299.5 716.5 c 128,-1,52
 1356 667 1356 667 1391.5 611 c 128,-1,53
 1427 555 1427 555 1445 498.5 c 128,-1,54
 1463 442 1463 442 1464.5 387 c 128,-1,55
 1466 332 1466 332 1454 285 c 0,0,1
EndSplineSet
EndChar

StartChar: six
Encoding: 54 54 121
Width: 1567
Flags: W
LayerCount: 2
Fore
SplineSet
874 -139 m 0,0,1
 767 -139 767 -139 668 -118.5 c 128,-1,2
 569 -98 569 -98 477.5 -61.5 c 128,-1,3
 386 -25 386 -25 303 24.5 c 128,-1,4
 220 74 220 74 145 133 c 1,5,6
 181 144 181 144 214.5 157.5 c 128,-1,7
 248 171 248 171 279 186 c 1,8,9
 165 280 165 280 107 408.5 c 128,-1,10
 49 537 49 537 49 682 c 0,11,12
 49 803 49 803 90.5 929 c 128,-1,13
 132 1055 132 1055 217.5 1173.5 c 128,-1,14
 303 1292 303 1292 433.5 1398 c 128,-1,15
 564 1504 564 1504 741 1585 c 1,16,17
 773 1534 773 1534 832.5 1478 c 128,-1,18
 892 1422 892 1422 967 1367.5 c 128,-1,19
 1042 1313 1042 1313 1127 1264 c 128,-1,20
 1212 1215 1212 1215 1296 1180 c 1,21,22
 1172 1170 1172 1170 1062 1139.5 c 128,-1,23
 952 1109 952 1109 859 1062 c 128,-1,24
 766 1015 766 1015 692 953.5 c 128,-1,25
 618 892 618 892 566 819.5 c 128,-1,26
 514 747 514 747 486.5 666 c 128,-1,27
 459 585 459 585 459 500 c 0,28,29
 459 465 459 465 465 429.5 c 128,-1,30
 471 394 471 394 485 358 c 1,31,32
 523 400 523 400 553.5 447 c 128,-1,33
 584 494 584 494 610 545 c 1,34,35
 647 496 647 496 682 459 c 128,-1,36
 717 422 717 422 753.5 397.5 c 128,-1,37
 790 373 790 373 829.5 360.5 c 128,-1,38
 869 348 869 348 915 348 c 0,39,40
 963 348 963 348 1004.5 361.5 c 128,-1,41
 1046 375 1046 375 1076.5 401.5 c 128,-1,42
 1107 428 1107 428 1125 467.5 c 128,-1,43
 1143 507 1143 507 1143 559 c 0,44,45
 1143 613 1143 613 1121 654 c 128,-1,46
 1099 695 1099 695 1061 723 c 128,-1,47
 1023 751 1023 751 972.5 765.5 c 128,-1,48
 922 780 922 780 866 780 c 0,49,50
 806 780 806 780 758.5 758.5 c 128,-1,51
 711 737 711 737 682 711 c 1,52,53
 702 775 702 775 741.5 822 c 128,-1,54
 781 869 781 869 832 900 c 128,-1,55
 883 931 883 931 942.5 946 c 128,-1,56
 1002 961 1002 961 1061 961 c 0,57,58
 1157 961 1157 961 1246.5 925.5 c 128,-1,59
 1336 890 1336 890 1404.5 826 c 128,-1,60
 1473 762 1473 762 1514.5 673.5 c 128,-1,61
 1556 585 1556 585 1556 479 c 0,62,63
 1556 385 1556 385 1530 302.5 c 128,-1,64
 1504 220 1504 220 1457.5 151.5 c 128,-1,65
 1411 83 1411 83 1347 29 c 128,-1,66
 1283 -25 1283 -25 1207.5 -62.5 c 128,-1,67
 1132 -100 1132 -100 1047 -119.5 c 128,-1,68
 962 -139 962 -139 874 -139 c 0,0,1
EndSplineSet
EndChar

StartChar: seven
Encoding: 55 55 122
Width: 1468
Flags: W
LayerCount: 2
Fore
SplineSet
1522 1479 m 1,0,1
 1414 1305 1414 1305 1329.5 1109 c 128,-1,2
 1245 913 1245 913 1181.5 704.5 c 128,-1,3
 1118 496 1118 496 1075 279 c 128,-1,4
 1032 62 1032 62 1006 -154 c 1,5,6
 923 -110 923 -110 827.5 -81 c 128,-1,7
 732 -52 732 -52 632.5 -36.5 c 128,-1,8
 533 -21 533 -21 433 -19 c 128,-1,9
 333 -17 333 -17 240 -27 c 1,10,11
 341 101 341 101 437 241.5 c 128,-1,12
 533 382 533 382 614 526.5 c 128,-1,13
 695 671 695 671 757 817 c 128,-1,14
 819 963 819 963 852 1102 c 1,15,16
 756 1082 756 1082 647 1057 c 128,-1,17
 538 1032 538 1032 430 1000 c 128,-1,18
 322 968 322 968 222.5 928 c 128,-1,19
 123 888 123 888 45 838 c 1,20,21
 150 1180 150 1180 6 1479 c 1,22,23
 123 1465 123 1465 248.5 1456.5 c 128,-1,24
 374 1448 374 1448 504 1443.5 c 128,-1,25
 634 1439 634 1439 766 1439 c 128,-1,26
 898 1439 898 1439 1027.5 1443.5 c 128,-1,27
 1157 1448 1157 1448 1282 1457 c 128,-1,28
 1407 1466 1407 1466 1522 1479 c 1,0,1
EndSplineSet
EndChar

StartChar: nine
Encoding: 57 57 123
Width: 1567
Flags: W
LayerCount: 2
Fore
SplineSet
694 1544 m 0,0,1
 801 1544 801 1544 900.5 1523.5 c 128,-1,2
 1000 1503 1000 1503 1091.5 1466.5 c 128,-1,3
 1183 1430 1183 1430 1266 1380 c 128,-1,4
 1349 1330 1349 1330 1423 1272 c 1,5,6
 1352 1250 1352 1250 1290 1217 c 1,7,8
 1403 1123 1403 1123 1461.5 995.5 c 128,-1,9
 1520 868 1520 868 1520 723 c 0,10,11
 1520 601 1520 601 1478 475.5 c 128,-1,12
 1436 350 1436 350 1350.5 231.5 c 128,-1,13
 1265 113 1265 113 1134.5 7 c 128,-1,14
 1004 -99 1004 -99 827 -180 c 1,15,16
 770 -126 770 -126 701.5 -75.5 c 128,-1,17
 633 -25 633 -25 556.5 21 c 128,-1,18
 480 67 480 67 397.5 108 c 128,-1,19
 315 149 315 149 231 184 c 1,20,21
 365 194 365 194 482.5 227.5 c 128,-1,22
 600 261 600 261 697.5 312.5 c 128,-1,23
 795 364 795 364 872 431 c 128,-1,24
 949 498 949 498 1001.5 575 c 128,-1,25
 1054 652 1054 652 1082 735.5 c 128,-1,26
 1110 819 1110 819 1110 905 c 0,27,28
 1110 971 1110 971 1081 1047 c 1,29,30
 1046 1003 1046 1003 1015 957 c 128,-1,31
 984 911 984 911 958 860 c 1,32,33
 921 909 921 909 886 946 c 128,-1,34
 851 983 851 983 814.5 1007.5 c 128,-1,35
 778 1032 778 1032 738.5 1044.5 c 128,-1,36
 699 1057 699 1057 653 1057 c 0,37,38
 605 1057 605 1057 564 1043.5 c 128,-1,39
 523 1030 523 1030 492 1003.5 c 128,-1,40
 461 977 461 977 443.5 937.5 c 128,-1,41
 426 898 426 898 426 846 c 0,42,43
 426 792 426 792 448 750.5 c 128,-1,44
 470 709 470 709 508 681.5 c 128,-1,45
 546 654 546 654 596 639.5 c 128,-1,46
 646 625 646 625 702 625 c 0,47,48
 762 625 762 625 807 644 c 128,-1,49
 852 663 852 663 887 694 c 1,50,51
 873 629 873 629 834.5 582 c 128,-1,52
 796 535 796 535 743 504.5 c 128,-1,53
 690 474 690 474 628.5 459 c 128,-1,54
 567 444 567 444 508 444 c 0,55,56
 412 444 412 444 322.5 479.5 c 128,-1,57
 233 515 233 515 164 579 c 128,-1,58
 95 643 95 643 53.5 731.5 c 128,-1,59
 12 820 12 820 12 926 c 0,60,61
 12 1067 12 1067 69 1181.5 c 128,-1,62
 126 1296 126 1296 221 1376.5 c 128,-1,63
 316 1457 316 1457 439 1500.5 c 128,-1,64
 562 1544 562 1544 694 1544 c 0,0,1
EndSplineSet
EndChar

